<?xml version="1.0" encoding="UTF-8"?>
<svg width="150px" height="150px" viewBox="0 0 150 150" version="1.1" xmlns="http://www.w3.org/2000/svg" xmlns:xlink="http://www.w3.org/1999/xlink">
    <!-- Generator: Sketch 51.3 (57544) - http://www.bohemiancoding.com/sketch -->
    <title>Artboard Copy 4</title>
    <desc>Created with Sketch.</desc>
    <defs></defs>
    <g id="Artboard-Copy-4" stroke="none" stroke-width="1" fill="none" fill-rule="evenodd">
        <rect fill="#FFFFFF" x="0" y="0" width="150" height="150"></rect>
        <g id="Group" transform="translate(22.000000, 15.000000)" fill-rule="nonzero">
            <path d="M4.91441454,113.325805 L4.91441454,106.002403 C4.91441454,104.8568 4.8323476,103.24988 4.66821373,101.181643 L4.77372836,101.181643 L8.27915893,113.325805 L12.6873258,113.325805 L16.145861,101.204709 L16.2513756,101.204709 C16.1575848,103.034599 16.1048275,104.184046 16.0931037,104.653051 C16.0813798,105.122057 16.0755179,105.548775 16.0755179,105.933205 L16.0755179,113.325805 L20.3312748,113.325805 L20.3312748,96.4646804 L14.1528068,96.4646804 L10.6473762,108.435848 L10.5535855,108.435848 L6.9778118,96.4646804 L0.811067708,96.4646804 L0.811067708,113.325805 L4.91441454,113.325805 Z M26.1720959,113.556463 C27.1881627,113.556463 28.016648,113.418068 28.6575517,113.141278 C29.2984554,112.864488 29.9276352,112.349351 30.5450912,111.595867 L30.638882,111.595867 L31.5181706,113.325805 L34.6953334,113.325805 L34.6953334,104.756848 C34.6953334,103.265257 34.2283335,102.104277 33.2943336,101.273907 C32.3603337,100.443537 31.0414008,100.028352 29.3375348,100.028352 C26.9771334,100.028352 25.0231588,100.420471 23.4756108,101.204709 L24.8004056,104.180202 C26.2932423,103.534358 27.5242463,103.211437 28.4934178,103.211437 C29.5720118,103.211437 30.1113088,103.74964 30.1113088,104.826045 L30.1113088,105.010572 L27.8955015,105.079769 C26.0275017,105.164344 24.6011002,105.546852 23.616297,106.227295 C22.6314937,106.907737 22.1390921,107.943777 22.1390921,109.335416 C22.1390921,110.673234 22.4986235,111.711197 23.2176862,112.449303 C23.9367488,113.18741 24.9215521,113.556463 26.1720959,113.556463 Z M28.1182546,110.373378 C27.2506899,110.373378 26.8169075,109.97357 26.8169075,109.173955 C26.8169075,108.135992 27.5711417,107.590101 29.0796102,107.536281 L30.1347565,107.490149 L30.1347565,108.505046 C30.1347565,109.058626 29.9374051,109.508409 29.5427022,109.854397 C29.1479993,110.200384 28.6731835,110.373378 28.1182546,110.373378 Z M41.4975101,119 L41.4975101,113.752523 C41.4975101,113.529553 41.427167,112.960596 41.2864808,112.045651 L41.4975101,112.045651 C42.0211753,112.614608 42.5487485,113.00865 43.0802296,113.227775 C43.6117107,113.446901 44.2135349,113.556463 44.8857022,113.556463 C46.3785388,113.556463 47.5606935,112.950985 48.4321662,111.740029 C49.3036389,110.529073 49.7393753,108.870255 49.7393753,106.763575 C49.7393753,104.672273 49.3212247,103.02691 48.4849235,101.827487 C47.6486224,100.628063 46.4957773,100.028352 45.0263883,100.028352 C43.5257358,100.028352 42.349443,100.658818 41.4975101,101.91975 L41.2864808,101.91975 L40.6416692,100.25901 L36.9134855,100.25901 L36.9134855,119 L41.4975101,119 Z M43.3967735,109.923594 C42.740238,109.923594 42.2595602,109.673715 41.9547401,109.173955 C41.6499201,108.674195 41.4975101,107.863047 41.4975101,106.740509 L41.4975101,106.382989 C41.5209578,105.452667 41.6675059,104.751081 41.9371544,104.278232 C42.2068029,103.805382 42.6777108,103.568957 43.3498781,103.568957 C43.9673341,103.568957 44.4089323,103.813071 44.6746729,104.301297 C44.9404135,104.789524 45.0732837,105.594906 45.0732837,106.717444 C45.0732837,107.863047 44.9404135,108.683806 44.6746729,109.179721 C44.4089323,109.675637 43.9829659,109.923594 43.3967735,109.923594 Z M53.7864476,98.9903892 C55.4199705,98.9903892 56.2367319,98.3291687 56.2367319,97.0067275 C56.2367319,96.345507 56.0413344,95.8457472 55.6505395,95.5074483 C55.2597445,95.1691494 54.6383806,95 53.7864476,95 C52.9345147,95 52.3170587,95.1653051 51.9340796,95.4959154 C51.5511006,95.8265257 51.3596111,96.3301297 51.3596111,97.0067275 C51.3596111,98.3291687 52.1685566,98.9903892 53.7864476,98.9903892 Z M56.0608742,113.325805 L56.0608742,100.25901 L51.4768496,100.25901 L51.4768496,113.325805 L56.0608742,113.325805 Z M63.3554524,113.556463 C64.1057787,113.556463 64.7603602,113.500721 65.319197,113.389236 C65.8780337,113.277751 66.4661801,113.091302 67.0836361,112.829889 L67.0836361,109.543008 C66.2238873,109.842864 65.4852848,109.992792 64.8678288,109.992792 C64.0393436,109.992792 63.6251009,109.569918 63.6251009,108.724171 L63.6251009,103.638155 L66.8843307,103.638155 L66.8843307,100.25901 L63.6251009,100.25901 L63.6251009,97.641038 L60.6237958,97.641038 L59.4396872,100.385872 L57.3997376,101.804421 L57.3997376,103.638155 L59.0059048,103.638155 L59.0059048,109.024027 C59.0059048,110.561749 59.3458964,111.701586 60.0258796,112.443537 C60.7058628,113.185488 61.8157204,113.556463 63.3554524,113.556463 Z M74.5306244,113.556463 C76.6331012,113.556463 78.268578,112.958674 79.4370548,111.763095 C80.6055317,110.567516 81.1897701,108.901009 81.1897701,106.763575 C81.1897701,105.402691 80.9181676,104.212878 80.3749627,103.194137 C79.8317577,102.175396 79.0599377,101.39308 78.0595027,100.847189 C77.0590676,100.301297 75.9062226,100.028352 74.6009675,100.028352 C72.4906748,100.028352 70.8512901,100.618453 69.6828132,101.798654 C68.5143364,102.978856 67.9300979,104.63383 67.9300979,106.763575 C67.9300979,108.847189 68.5260602,110.50024 69.7179848,111.722729 C70.9099093,112.945219 72.5141225,113.556463 74.5306244,113.556463 Z M74.5775198,110.211917 C73.8584571,110.211917 73.3465158,109.917828 73.0416957,109.329649 C72.7368757,108.74147 72.5844656,107.886112 72.5844656,106.763575 C72.5844656,105.641038 72.7368757,104.797213 73.0416957,104.2321 C73.3465158,103.666987 73.8506412,103.384431 74.5540721,103.384431 C75.2731348,103.384431 75.7811682,103.668909 76.0781724,104.237866 C76.3751765,104.806824 76.5236786,105.648727 76.5236786,106.763575 C76.5236786,107.886112 76.3771305,108.74147 76.0840343,109.329649 C75.7909381,109.917828 75.2887666,110.211917 74.5775198,110.211917 Z M87.511269,113.556463 C88.4335451,113.556463 89.2366286,113.396925 89.9205198,113.077847 C90.6044109,112.75877 91.137846,112.299375 91.520825,111.699664 L91.7904736,111.699664 L92.3649421,113.325805 L95.8234773,113.325805 L95.8234773,100.25901 L91.2394527,100.25901 L91.2394527,105.979337 C91.2394527,107.432484 91.0714109,108.46468 90.7353272,109.075925 C90.3992436,109.68717 89.8364989,109.992792 89.0470931,109.992792 C88.4843484,109.992792 88.0798756,109.773667 87.8336748,109.335416 C87.587474,108.897165 87.4643736,108.251321 87.4643736,107.397886 L87.4643736,100.25901 L82.880349,100.25901 L82.880349,108.770303 C82.880349,110.292648 83.2867757,111.470927 84.0996292,112.305142 C84.9124827,113.139356 86.0496959,113.556463 87.511269,113.556463 Z M103.082884,113.556463 C103.83321,113.556463 104.487792,113.500721 105.046629,113.389236 C105.605465,113.277751 106.193612,113.091302 106.811068,112.829889 L106.811068,109.543008 C105.951319,109.842864 105.212716,109.992792 104.59526,109.992792 C103.766775,109.992792 103.352533,109.569918 103.352533,108.724171 L103.352533,103.638155 L106.611762,103.638155 L106.611762,100.25901 L103.352533,100.25901 L103.352533,97.641038 L100.351227,97.641038 L99.1671188,100.385872 L97.1271692,101.804421 L97.1271692,103.638155 L98.7333364,103.638155 L98.7333364,109.024027 C98.7333364,110.561749 99.073328,111.701586 99.7533112,112.443537 C100.433294,113.185488 101.543152,113.556463 103.082884,113.556463 Z" id="Mapitout" fill="#154834"></path>
            <path d="M51.3110677,-9.9475983e-14 C72.0122607,0.0226905134 88.7881865,16.6588098 88.8110677,37.187484 C88.8110677,67.7542677 53.918657,84.0702763 52.4333891,84.7555885 C51.7212579,85.0814705 50.9008775,85.0814705 50.1887463,84.7555885 C48.7034784,84.0702763 13.8110677,67.7542677 13.8110677,37.187484 C13.8339489,16.6588098 30.6098747,0.0226905134 51.3110677,-9.9475983e-14 Z M51.3110677,18.593742 C46.8730653,18.593742 43.2753534,22.1614714 43.2753534,26.5624886 C43.2753534,30.9635058 46.8730653,34.5312351 51.3110677,34.5312351 C55.7490702,34.5312351 59.346782,30.9635058 59.346782,26.5624886 C59.3423525,22.1632921 55.7472341,18.5981346 51.3110677,18.593742 Z" id="Combined-Shape" fill="#3BD59A"></path>
        </g>
    </g>
</svg>