<?xml version="1.0" encoding="UTF-8"?>
<svg width="86px" height="89px" viewBox="0 0 86 89" version="1.1" xmlns="http://www.w3.org/2000/svg" xmlns:xlink="http://www.w3.org/1999/xlink">
    <!-- Generator: Sketch 48.2 (47327) - http://www.bohemiancoding.com/sketch -->
    <title>customer-2</title>
    <desc>Created with Sketch.</desc>
    <defs></defs>
    <g id="Artboard-5-Copy" stroke="none" stroke-width="1" fill="none" fill-rule="evenodd" transform="translate(-894.000000, -1779.000000)">
        <g id="customer-2" transform="translate(894.000000, 1780.000000)">
            <rect id="Rectangle-2" fill="#3BD59A" transform="translate(42.427760, 66.993683) rotate(-5.000000) translate(-42.427760, -66.993683) " x="15.0315338" y="48.729532" width="54.7924528" height="36.5283019"></rect>
            <g id="Group" fill="#000000" fill-rule="nonzero">
                <path d="M61.6965006,24.9056604 C61.9803258,24.9056604 62.2641509,24.75 62.2641509,24.5424528 C62.2641509,24.3349057 62.0512821,24.1273585 61.7674569,24.1273585 L54.5299145,24.0754717 C54.175133,24.0754717 53.9622642,24.2311321 53.9622642,24.4386792 C53.9622642,24.6462264 54.175133,24.8537736 54.4589582,24.8537736 L61.6965006,24.9056604 C61.6965006,24.9056604 61.6965006,24.9056604 61.6965006,24.9056604 Z" id="Shape"></path>
                <path d="M53.1448815,28.5911784 C53.0788079,28.8267446 53.2770287,29.0623108 53.5413231,29.1212023 L57.5057391,29.8867925 C57.5718127,29.8867925 57.5718127,29.8867925 57.6378863,29.8867925 C57.8361071,29.8867925 58.1004015,29.7690094 58.1004015,29.5334432 C58.1664751,29.297877 57.9682543,29.0623108 57.7039599,29.0034193 L53.7395439,28.2378291 C53.4752495,28.1789376 53.2109551,28.3556122 53.1448815,28.5911784 Z" id="Shape"></path>
                <path d="M53.6914362,20.754717 C53.7591978,20.754717 53.8269593,20.754717 53.8269593,20.754717 L57.7571316,19.3317433 C58.028178,19.2568499 58.1637012,18.8823831 58.0959396,18.6577031 C58.028178,18.3581297 57.68937,18.208343 57.4183237,18.2832363 L53.4881514,19.70621 C53.217105,19.7811034 53.0815818,20.1555702 53.1493434,20.3802502 C53.2848666,20.6049303 53.4881514,20.754717 53.6914362,20.754717 Z" id="Shape"></path>
                <path d="M37.7735849,8.30188679 C37.9811321,8.30188679 38.1886792,8.0890179 38.1886792,7.73423641 L38.1886792,0.567650379 C38.1886792,0.283825189 38.0330189,0 37.7735849,0 C37.5660377,0 37.3584906,0.212868892 37.3584906,0.567650379 L37.3584906,7.80519271 C37.3584906,8.0890179 37.5660377,8.30188679 37.7735849,8.30188679 Z" id="Shape"></path>
                <path d="M28.1892425,9.70434145 C28.2511968,9.8333028 28.43706,9.96226415 28.5609687,9.96226415 C28.6229231,9.96226415 28.7468319,9.96226415 28.8087863,9.89778348 C29.0566038,9.76882213 29.1185582,9.44641876 28.9946494,9.25297674 L25.7730217,3.57867741 C25.6491129,3.32075472 25.339341,3.25627404 25.1534779,3.38523539 C24.9056604,3.51419674 24.843706,3.83660011 24.9676148,4.03004213 L28.1892425,9.70434145 Z" id="Shape"></path>
                <path d="M16.8708671,13.3468795 L23.2194791,16.5399129 C23.2908118,16.6037736 23.3621445,16.6037736 23.5048099,16.6037736 C23.7188081,16.6037736 23.8614735,16.5399129 24.004139,16.3483309 C24.1468044,16.0928882 24.0754717,15.8374456 23.7901408,15.7097242 L17.4415288,12.5166909 C17.1561979,12.3889695 16.8708671,12.4528302 16.7282016,12.7082729 C16.5142035,12.8998549 16.5855362,13.2191582 16.8708671,13.3468795 Z" id="Shape"></path>
                <path d="M13.8601638,24.9056604 C13.8601638,24.9056604 13.8601638,24.9056604 13.8601638,24.9056604 L21.078529,24.8537736 C21.3616022,24.8537736 21.6446753,24.6981132 21.573907,24.4386792 C21.573907,24.2311321 21.3616022,24.0754717 21.0077607,24.0754717 C21.0077607,24.0754717 21.0077607,24.0754717 21.0077607,24.0754717 L13.7893955,24.1273585 C13.5063224,24.1273585 13.2232492,24.2830189 13.2940175,24.5424528 C13.3647858,24.75 13.5770906,24.9056604 13.8601638,24.9056604 Z" id="Shape"></path>
                <path d="M51.540442,16.3483309 C51.6116243,16.4760522 51.8251711,16.6037736 52.0387178,16.6037736 C52.1099001,16.6037736 52.2522646,16.6037736 52.3234468,16.5399129 L58.6586672,13.3468795 C58.9433962,13.2191582 59.0145785,12.8998549 58.872214,12.7082729 C58.7298495,12.4528302 58.3739382,12.3889695 58.1603915,12.5166909 L51.8251711,15.7097242 C51.4692598,15.8374456 51.3980775,16.0928882 51.540442,16.3483309 Z" id="Shape"></path>
                <path d="M45.8968055,9.89778348 C45.9589406,9.96226415 46.083211,9.96226415 46.1453461,9.96226415 C46.3317516,9.96226415 46.4560219,9.89778348 46.5181571,9.70434145 L49.7491856,4.03004213 C49.8734559,3.77211944 49.8113208,3.51419674 49.5627801,3.38523539 C49.3142394,3.25627404 49.0656988,3.32075472 48.9414285,3.57867741 L45.7104,9.25297674 C45.5861297,9.51089943 45.7104,9.76882213 45.8968055,9.89778348 Z" id="Shape"></path>
                <path d="M32.9456729,7.96190021 C33.0222829,8.16589216 33.2521129,8.30188679 33.4819429,8.30188679 C33.5585529,8.30188679 33.635163,8.30188679 33.635163,8.30188679 C33.941603,8.23388948 34.094823,7.96190021 34.018213,7.68991095 L32.6392328,3.67806932 C32.5626228,3.40608006 32.2561827,3.27008543 31.9497427,3.33808274 C31.6433027,3.40608006 31.4900826,3.67806932 31.5666926,3.95005859 L32.9456729,7.96190021 Z" id="Shape"></path>
                <path d="M25.6569468,13.1354298 C25.7255575,13.2092243 25.8627787,13.2830189 26,13.2830189 C26.1372213,13.2830189 26.2744425,13.2092243 26.4116638,13.1354298 C26.6174957,12.9140461 26.6174957,12.5450734 26.4116638,12.3236897 L23.3241852,9.29811321 C23.1183533,9.07672956 22.7753002,9.07672956 22.5694683,9.29811321 C22.3636364,9.51949686 22.3636364,9.8884696 22.5694683,10.1098532 L25.6569468,13.1354298 Z" id="Shape"></path>
                <path d="M22.0176309,19.0411551 L18.0429965,18.275565 C17.7780208,18.2166734 17.5130452,18.3933481 17.4468013,18.6289143 C17.3805574,18.8644805 17.5792891,19.1000466 17.8442648,19.1589382 L21.8188992,19.9245283 C21.8851431,19.9245283 21.8851431,19.9245283 21.951387,19.9245283 C22.1501187,19.9245283 22.4150943,19.8067452 22.4150943,19.571179 C22.4150943,19.3356128 22.2826065,19.1000466 22.0176309,19.0411551 Z" id="Shape"></path>
                <path d="M20.8900218,27.4153118 L16.9598495,28.8382855 C16.6888031,28.9131789 16.55328,29.2876456 16.6210415,29.5123257 C16.6888031,29.7370057 16.8920879,29.8867925 17.0953727,29.8867925 C17.1631343,29.8867925 17.2308959,29.8867925 17.2308959,29.8867925 L21.2288297,28.4638187 C21.4998761,28.3889254 21.6353993,28.089352 21.5676377,27.7897786 C21.4321145,27.4902051 21.1610682,27.3404184 20.8900218,27.4153118 Z" id="Shape"></path>
                <path d="M49.1569049,13.1494158 C49.230331,13.2162173 49.377183,13.2830189 49.5240351,13.2830189 C49.6708871,13.2830189 49.8177392,13.2162173 49.9645913,13.0826142 L52.9750584,10.0097434 C53.1953365,9.80933879 53.1953365,9.47533109 52.9016324,9.27492647 C52.6813543,9.07452185 52.3142242,9.07452185 52.0939461,9.34172801 L49.0834789,12.4145988 C48.9366269,12.681805 48.9366269,12.9490112 49.1569049,13.1494158 Z" id="Shape"></path>
                <path d="M41.8717069,8.30188679 C41.9301964,8.30188679 41.9301964,8.30188679 41.9886858,8.30188679 C42.1641542,8.30188679 42.3981121,8.16939898 42.3981121,7.90442335 L43.1584752,3.92978893 C43.2169647,3.6648133 43.0414963,3.39983767 42.8075384,3.33359377 C42.5735805,3.26734986 42.3396226,3.46608158 42.2811332,3.73105721 L41.5207701,7.70569163 C41.4622806,7.97066726 41.637749,8.23564289 41.8717069,8.30188679 Z" id="Shape"></path>
                <path d="M34.6884656,31.5471698 C34.6884656,31.5471698 34.7587049,31.5471698 34.7587049,31.5471698 C35.0396623,31.4702895 35.2503803,31.1627682 35.180141,30.8552468 C35.180141,30.8552468 35.1099017,30.2402042 35.3206197,29.8558026 C35.4610984,29.6251616 35.7420557,29.4714009 36.0932524,29.3945206 C36.3742098,29.3176403 36.5849278,29.0101189 36.5146885,28.7025976 C36.4444491,28.3950763 36.1634918,28.1644353 35.8825344,28.2413156 C35.2503803,28.3950763 34.7587049,28.7025976 34.4075082,29.1638796 C33.9158329,30.0095632 34.0563115,30.9321272 34.0563115,31.0858878 C34.2670296,31.3934092 34.4777476,31.5471698 34.6884656,31.5471698 Z" id="Shape"></path>
                <path d="M35.2351681,33.8350154 C35.3659865,33.9025889 35.4968049,33.9701624 35.7584417,34.0377358 C35.8892601,34.0377358 35.9546693,34.0377358 36.0854876,34.0377358 C36.543352,34.0377358 37.0012163,33.8350154 37.3282623,33.4971479 C37.6553083,33.8350154 38.1131726,34.0377358 38.571037,34.0377358 C38.7018554,34.0377358 38.7672646,34.0377358 38.9634921,33.9701624 C39.0943105,33.9025889 39.2905381,33.8350154 39.4213565,33.8350154 C41.5144507,32.9565599 44,30.4563405 44,26.4695042 C44,23.2935498 42.8880437,20.5230364 40.7949495,18.157964 C40.7949495,18.157964 40.7949495,18.157964 40.7295403,18.0903905 C40.7295403,18.0903905 40.7295403,18.0903905 40.7295403,18.0903905 C40.4679036,17.752523 40.1408576,17.482229 39.8792208,17.2119351 C39.7484025,17.0767881 39.6829933,17.0092146 39.4867657,16.8740676 C39.2251289,16.6713471 38.8980829,16.6037736 38.571037,16.6037736 C38.1131726,16.6037736 37.6553083,16.8064941 37.3282623,17.1443616 C37.0012163,16.8064941 36.543352,16.6037736 36.0854876,16.6037736 C35.7584417,16.6037736 35.4313957,16.6713471 35.1043497,16.8740676 C34.9735314,16.9416411 34.9081222,17.0767881 34.7773038,17.1443616 C34.4502578,17.4146556 34.188621,17.752523 33.9269843,18.022817 C33.9269843,18.022817 33.9269843,18.022817 33.9269843,18.022817 C33.9269843,18.022817 33.9269843,18.022817 33.9269843,18.022817 C31.7684809,20.3878894 30.7219338,23.2259763 30.7219338,26.3343572 C30.5911154,30.4563405 33.0766648,32.8889864 35.2351681,33.8350154 Z M39.2905381,22.4826678 C38.9634921,22.0096534 38.5056278,21.8745064 38.243991,21.8069329 C38.0477634,21.8069329 37.916945,21.8069329 37.7207175,21.8745064 L37.7207175,18.428258 C37.7207175,18.3606845 37.7207175,18.293111 37.7207175,18.2255375 C37.7861267,17.88767 38.1131726,17.617376 38.4402186,17.617376 C38.571037,17.617376 38.7018554,17.6849495 38.8326737,17.6849495 C38.8980829,17.752523 39.0289013,17.8200965 39.0943105,17.88767 C39.4213565,18.157964 39.6829933,18.428258 39.94463,18.7661255 C39.94463,18.833699 40.2062668,19.23914 39.4867657,20.5230364 C39.3559473,20.7933304 39.4213565,21.0636244 39.6829933,21.1987714 C39.7484025,21.2663449 39.8792208,21.2663449 39.94463,21.2663449 C40.1408576,21.2663449 40.271676,21.1987714 40.3370852,20.9960509 C40.598722,20.5906099 40.7295403,20.1851689 40.8603587,19.8473014 C41.9069058,21.3339184 42.5609978,23.0232558 42.8226345,24.8477402 C42.4955886,24.6450197 42.1031334,24.5098728 41.6452691,24.5098728 C40.7949495,24.4422993 39.94463,24.7801667 39.1597197,25.5234752 C38.9634921,25.7261957 38.9634921,26.0640632 39.0943105,26.2667837 C39.2905381,26.4695042 39.6175841,26.4695042 39.8138116,26.3343572 C40.4024944,25.7937692 40.9911771,25.5234752 41.5798599,25.5234752 C42.2339518,25.5910487 42.7572253,25.9964897 42.9534529,26.1992102 C42.9534529,26.2667837 42.9534529,26.3343572 42.9534529,26.4019307 C42.9534529,29.848179 40.7949495,32.0105309 38.9634921,32.8214129 C38.8326737,32.8889864 38.7672646,32.8889864 38.7018554,32.9565599 C38.6364462,32.9565599 38.6364462,32.9565599 38.571037,32.9565599 C38.1785818,32.9565599 37.916945,32.6862659 37.8515359,32.3483984 C37.8515359,32.2808249 37.8515359,32.2132514 37.8515359,32.1456779 L37.8515359,22.9556823 C37.9823542,22.8881088 38.1131726,22.8205353 38.243991,22.8205353 C38.3094002,22.8205353 38.4402186,22.8205353 38.571037,23.0908293 C38.6364462,23.2259763 38.8326737,23.2935498 38.9634921,23.2935498 C39.0943105,23.2935498 39.1597197,23.2935498 39.2251289,23.2259763 C39.4213565,23.0232558 39.4867657,22.7529618 39.2905381,22.4826678 Z M31.5722533,26.2667837 C31.7684809,26.0640632 32.2263453,25.6586222 32.9458464,25.5910487 C33.5345291,25.5234752 34.1232118,25.7937692 34.7118946,26.4019307 C34.9081222,26.6046512 35.2351681,26.6046512 35.4313957,26.3343572 C35.6276233,26.1316367 35.6276233,25.7937692 35.3659865,25.5910487 C34.5810762,24.8477402 33.7307567,24.5098728 32.8804372,24.5774462 C32.4225728,24.5774462 32.0301177,24.7801667 31.7030717,24.9153137 C31.9647085,23.0908293 32.6188004,21.4014919 33.6653475,19.9148749 C33.7961659,20.2527424 33.9269843,20.5906099 34.188621,21.0636244 C34.2540302,21.1987714 34.4502578,21.3339184 34.5810762,21.3339184 C34.6464854,21.3339184 34.7773038,21.3339184 34.842713,21.2663449 C35.1043497,21.1311979 35.1697589,20.7933304 35.0389406,20.5906099 C34.3194394,19.374287 34.5810762,18.9012725 34.5810762,18.833699 C34.842713,18.563405 35.1043497,18.2255375 35.4313957,17.9552435 C35.4968049,17.88767 35.6276233,17.8200965 35.6276233,17.752523 C35.7584417,17.6849495 35.8892601,17.617376 36.0200784,17.617376 C36.4125336,17.617376 36.6741704,17.88767 36.7395796,18.2255375 C36.7395796,18.293111 36.7395796,18.3606845 36.7395796,18.428258 L36.7395796,21.8745064 C36.6087612,21.8069329 36.4125336,21.8069329 36.216306,21.8069329 C35.9546693,21.8069329 35.4968049,21.9420799 35.1697589,22.4826678 C35.0389406,22.6853883 35.0389406,23.0232558 35.3005773,23.2259763 C35.3659865,23.2935498 35.4968049,23.2935498 35.5622141,23.2935498 C35.6930325,23.2935498 35.8892601,23.2259763 35.9546693,23.0908293 C36.0854876,22.8881088 36.216306,22.8881088 36.2817152,22.8205353 C36.4125336,22.8205353 36.543352,22.8881088 36.6741704,22.9556823 L36.6741704,32.1456779 C36.6741704,32.2132514 36.6741704,32.2808249 36.6741704,32.3483984 C36.6087612,32.6862659 36.2817152,32.9565599 35.9546693,32.9565599 C35.8892601,32.9565599 35.8238509,32.9565599 35.8892601,32.9565599 C35.7584417,32.8889864 35.6930325,32.8889864 35.5622141,32.8214129 C33.7307567,32.0105309 31.5722533,29.848179 31.5722533,26.4019307 C31.5722533,26.4019307 31.5722533,26.3343572 31.5722533,26.2667837 Z" id="Shape"></path>
                <path d="M39.0332951,28.7062929 C38.9588571,29.0134148 39.182171,29.3205366 39.4799229,29.397317 C39.8521127,29.4740975 40.0754266,29.6276584 40.2987405,29.8579998 C40.5964923,30.2419021 40.5220544,30.8561457 40.4476164,30.8561457 C40.3731784,31.1632675 40.5964923,31.4703894 40.8942442,31.5471698 C40.8942442,31.5471698 40.9686821,31.5471698 40.9686821,31.5471698 C41.266434,31.5471698 41.4897479,31.3936089 41.4897479,31.0864871 C41.4897479,31.0097066 41.6386238,30.0115607 41.1175581,29.1669757 C40.7453683,28.7062929 40.2987405,28.3223907 39.5543608,28.2456102 C39.331047,28.1688298 39.1077331,28.3223907 39.0332951,28.7062929 Z" id="Shape"></path>
                <path d="M2.90566038,53.1320755 C3.11320755,53.1320755 3.32075472,52.9328302 3.32075472,52.6007547 L3.32075472,43.7011321 C3.32075472,43.4354717 3.16509434,43.1698113 2.90566038,43.1698113 C2.69811321,43.1698113 2.49056604,43.3690566 2.49056604,43.7011321 L2.49056604,52.6671698 C2.54245283,52.8664151 2.69811321,53.1320755 2.90566038,53.1320755 Z" id="Shape"></path>
                <path d="M2.49056604,58.3899371 C2.49056604,58.6666667 2.64622642,58.9433962 2.90566038,58.9433962 C3.11320755,58.9433962 3.32075472,58.7358491 3.32075472,58.3899371 L3.32075472,55.3459119 C3.32075472,55.0691824 3.16509434,54.7924528 2.90566038,54.7924528 C2.69811321,54.7924528 2.49056604,55 2.49056604,55.3459119 L2.49056604,58.3899371 Z" id="Shape"></path>
                <path d="M79.2830189,64.754717 C79.0754717,64.754717 78.8679245,64.9526428 78.8679245,65.2825191 L78.8679245,74.1891791 C78.8679245,74.4530801 79.0235849,74.7169811 79.2830189,74.7169811 C79.490566,74.7169811 79.6981132,74.5190554 79.6981132,74.1891791 L79.6981132,65.2165438 C79.6981132,64.9526428 79.490566,64.754717 79.2830189,64.754717 Z" id="Shape"></path>
                <path d="M79.2830189,76.3773585 C79.0754717,76.3773585 78.8679245,76.5849057 78.8679245,76.9308176 L78.8679245,79.9748428 C78.8679245,80.2515723 79.0235849,80.5283019 79.2830189,80.5283019 C79.490566,80.5283019 79.6981132,80.3207547 79.6981132,79.9748428 L79.6981132,76.9308176 C79.6981132,76.6540881 79.490566,76.3773585 79.2830189,76.3773585 Z" id="Shape"></path>
                <path d="M76.2684813,51.6510189 C76.1051655,51.4119245 75.8329725,51.4119245 75.6696567,51.6510189 C75.5063409,51.8901132 75.5063409,52.2886038 75.6696567,52.5276981 L76.5406743,53.8028679 C76.5951129,53.882566 76.7039901,53.9622642 76.8128673,53.9622642 C76.9217445,53.9622642 77.0306217,53.882566 77.0850603,53.8028679 C77.2483761,53.5637736 77.2483761,53.165283 77.0850603,52.9261887 L76.2684813,51.6510189 Z" id="Shape"></path>
                <path d="M79.589236,54.9717736 C79.4259202,54.7326792 79.1537272,54.7326792 78.9904114,54.9717736 C78.8270956,55.2108679 78.8270956,55.6093585 78.9904114,55.8484528 L79.861429,57.1236226 C79.9158676,57.2033208 80.0247448,57.2830189 80.133622,57.2830189 C80.2424992,57.2830189 80.3513764,57.2033208 80.405815,57.1236226 C80.5691308,56.8845283 80.5691308,56.4860377 80.405815,56.2469434 L79.589236,54.9717736 Z" id="Shape"></path>
                <path d="M76.5406743,54.9717736 L75.6696567,56.2469434 C75.5063409,56.4860377 75.5063409,56.8845283 75.6696567,57.1236226 C75.7240953,57.2033208 75.8329725,57.2830189 75.9418497,57.2830189 C76.0507269,57.2830189 76.1596041,57.2033208 76.2140427,57.1236226 L77.0850603,55.8484528 C77.2483761,55.6093585 77.2483761,55.2108679 77.0850603,54.9717736 C76.9217445,54.7326792 76.6495515,54.7326792 76.5406743,54.9717736 Z" id="Shape"></path>
                <path d="M79.861429,51.6510189 L78.9904114,52.9261887 C78.8270956,53.165283 78.8270956,53.5637736 78.9904114,53.8028679 C79.04485,53.882566 79.1537272,53.9622642 79.2626044,53.9622642 C79.3714816,53.9622642 79.4803588,53.882566 79.5347974,53.8028679 L80.405815,52.5276981 C80.5691308,52.2886038 80.5691308,51.8901132 80.405815,51.6510189 C80.2424992,51.4119245 80.0247448,51.4119245 79.861429,51.6510189 Z" id="Shape"></path>
                <path d="M3.21187751,79.877434 C3.04856171,79.6383396 2.7763687,79.6383396 2.61305289,79.877434 C2.44973709,80.1165283 2.44973709,80.5150189 2.61305289,80.7541132 L3.48407052,82.029283 C3.53850912,82.1089811 3.64738633,82.1886792 3.75626353,82.1886792 C3.86514074,82.1886792 3.97401794,82.1089811 4.02845654,82.029283 C4.19177235,81.7901887 4.19177235,81.3916981 4.02845654,81.1526038 L3.21187751,79.877434 Z" id="Shape"></path>
                <path d="M6.53263223,83.1981887 C6.36931642,82.9590943 6.09712341,82.9590943 5.93380761,83.1981887 C5.7704918,83.437283 5.7704918,83.8357736 5.93380761,84.0748679 L6.80482524,85.3500377 C6.85926384,85.4297358 6.96814105,85.509434 7.07701825,85.509434 C7.18589545,85.509434 7.29477266,85.4297358 7.34921126,85.3500377 C7.51252706,85.1109434 7.51252706,84.7124528 7.34921126,84.4733585 L6.53263223,83.1981887 Z" id="Shape"></path>
                <path d="M3.48407052,83.1981887 L2.61305289,84.4733585 C2.44973709,84.7124528 2.44973709,85.1109434 2.61305289,85.3500377 C2.66749149,85.4297358 2.7763687,85.509434 2.8852459,85.509434 C2.99412311,85.509434 3.10300031,85.4297358 3.15743891,85.3500377 L4.02845654,84.0748679 C4.19177235,83.8357736 4.19177235,83.437283 4.02845654,83.1981887 C3.91957934,82.9590943 3.64738633,82.9590943 3.48407052,83.1981887 Z" id="Shape"></path>
                <path d="M6.80482524,79.877434 L5.93380761,81.1526038 C5.7704918,81.3916981 5.7704918,81.7901887 5.93380761,82.029283 C5.98824621,82.1089811 6.09712341,82.1886792 6.20600062,82.1886792 C6.31487782,82.1886792 6.42375503,82.1089811 6.47819363,82.029283 L7.34921126,80.7541132 C7.51252706,80.5150189 7.51252706,80.1165283 7.34921126,79.877434 C7.18589545,79.6383396 6.96814105,79.6383396 6.80482524,79.877434 Z" id="Shape"></path>
                <path d="M83.0188679,28.2264151 C81.6139332,28.2264151 80.5283019,29.3759071 80.5283019,30.7169811 C80.5283019,32.1219158 81.6777939,33.2075472 83.0188679,33.2075472 C84.4238026,33.2075472 85.509434,32.0580552 85.509434,30.7169811 C85.509434,29.3759071 84.3599419,28.2264151 83.0188679,28.2264151 Z M83.0188679,32.3134978 C82.1886792,32.3134978 81.4862119,31.6110305 81.4862119,30.7808418 C81.4862119,29.9506531 82.1886792,29.2481858 83.0188679,29.2481858 C83.8490566,29.2481858 84.5515239,29.9506531 84.5515239,30.7808418 C84.5515239,31.6110305 83.8490566,32.3134978 83.0188679,32.3134978 Z" id="Shape"></path>
                <path d="M7.47169811,64.754717 C6.06676343,64.754717 4.98113208,65.904209 4.98113208,67.245283 C4.98113208,68.6502177 6.13062409,69.7358491 7.47169811,69.7358491 C8.8766328,69.7358491 9.96226415,68.586357 9.96226415,67.245283 C9.96226415,65.8403483 8.8766328,64.754717 7.47169811,64.754717 Z M7.47169811,68.777939 C6.64150943,68.777939 5.93904209,68.0754717 5.93904209,67.245283 C5.93904209,66.4150943 6.64150943,65.712627 7.47169811,65.712627 C8.30188679,65.712627 9.00435414,66.4150943 9.00435414,67.245283 C9.00435414,68.0754717 8.30188679,68.777939 7.47169811,68.777939 Z" id="Shape"></path>
                <path d="M64.754717,5.39622642 C64.754717,5.60377358 64.9545772,5.81132075 65.2876776,5.81132075 L75.0142092,5.81132075 C75.2806895,5.81132075 75.5471698,5.65566038 75.5471698,5.39622642 C75.5471698,5.18867925 75.3473096,4.98113208 75.0142092,4.98113208 L65.2210575,4.98113208 C64.9545772,4.98113208 64.754717,5.18867925 64.754717,5.39622642 Z" id="Shape"></path>
                <path d="M58.6403115,5.81132075 L61.737047,5.81132075 C62.000599,5.81132075 62.2641509,5.65566038 62.2641509,5.39622642 C62.2641509,5.18867925 62.066487,4.98113208 61.737047,4.98113208 L58.6403115,4.98113208 C58.3767595,4.98113208 58.1132075,5.13679245 58.1132075,5.39622642 C58.1132075,5.65566038 58.3108715,5.81132075 58.6403115,5.81132075 Z" id="Shape"></path>
                <path d="M58.6808579,2.49056604 L65.847444,2.49056604 C66.1312692,2.49056604 66.4150943,2.33490566 66.4150943,2.0754717 C66.4150943,1.86792453 66.2022254,1.66037736 65.847444,1.66037736 L58.6808579,1.66037736 C58.3970327,1.66037736 58.1132075,1.81603774 58.1132075,2.0754717 C58.1132075,2.33490566 58.3260764,2.49056604 58.6808579,2.49056604 Z" id="Shape"></path>
                <path d="M68.6176357,2.49056604 L70.8540624,2.49056604 C71.1251444,2.49056604 71.3962264,2.33490566 71.3962264,2.0754717 C71.3962264,1.86792453 71.1929149,1.66037736 70.8540624,1.66037736 L68.6176357,1.66037736 C68.3465537,1.66037736 68.0754717,1.81603774 68.0754717,2.0754717 C68.0754717,2.33490566 68.3465537,2.49056604 68.6176357,2.49056604 Z" id="Shape"></path>
                <path d="M24.9056604,80.1132075 C24.9056604,80.3207547 25.1055206,80.5283019 25.438621,80.5283019 L35.1651526,80.5283019 C35.4316329,80.5283019 35.6981132,80.3726415 35.6981132,80.1132075 C35.6981132,79.9056604 35.498253,79.6981132 35.1651526,79.6981132 L25.438621,79.6981132 C25.1721407,79.75 24.9056604,79.9056604 24.9056604,80.1132075 Z" id="Shape"></path>
                <path d="M22.7181791,79.6981132 L19.6214435,79.6981132 C19.3578916,79.6981132 19.0943396,79.8537736 19.0943396,80.1132075 C19.0943396,80.3207547 19.2920036,80.5283019 19.6214435,80.5283019 L22.7181791,80.5283019 C22.9817311,80.5283019 23.245283,80.3726415 23.245283,80.1132075 C23.179395,79.8537736 22.9817311,79.6981132 22.7181791,79.6981132 Z" id="Shape"></path>
                <path d="M19.6571794,76.3773585 L26.8333866,76.3773585 C27.1148065,76.3773585 27.3962264,76.2216981 27.3962264,75.9622642 C27.3962264,75.754717 27.1851615,75.5471698 26.8333866,75.5471698 L19.6571794,75.5471698 C19.3757595,75.5471698 19.0943396,75.7028302 19.0943396,75.9622642 C19.0943396,76.2216981 19.3757595,76.3773585 19.6571794,76.3773585 Z" id="Shape"></path>
                <path d="M28.2264151,75.9622642 C28.2264151,76.1698113 28.4297266,76.3773585 28.7685791,76.3773585 L31.0050058,76.3773585 C31.2760878,76.3773585 31.5471698,76.2216981 31.5471698,75.9622642 C31.5471698,75.754717 31.3438583,75.5471698 31.0050058,75.5471698 L28.7685791,75.5471698 C28.4974971,75.5990566 28.2264151,75.754717 28.2264151,75.9622642 Z" id="Shape"></path>
                <path d="M79.9074949,21.5849057 C79.9074949,21.5849057 79.9074949,21.5849057 79.9074949,21.5849057 C80.1045204,21.5849057 80.3015459,21.5176344 80.367221,21.3158206 L81.6807242,19.0285972 L84.2420553,18.7595121 C84.4390808,18.7595121 84.5704311,18.6249696 84.6361063,18.4231558 C84.7017814,18.221342 84.7017814,18.0195281 84.5704311,17.8849856 L82.862877,15.9341186 L83.4539534,13.3105389 C83.5196286,13.1087251 83.4539534,12.9069113 83.256928,12.83964 C83.1255776,12.7050975 82.9285522,12.7050975 82.7315267,12.7723687 L80.367221,13.8487091 L78.1342656,12.5032836 C78.0029153,12.4360124 77.7402147,12.4360124 77.6088644,12.5032836 C77.4775141,12.6378262 77.3461638,12.7723687 77.4118389,12.9741826 L77.6745395,15.5977623 L75.7042848,17.3468154 C75.5729345,17.4813579 75.5072593,17.6831718 75.5729345,17.8849856 C75.6386097,18.0867994 75.76996,18.221342 75.9669854,18.221342 L78.5283166,18.7595121 L79.5791191,21.181278 C79.5791191,21.4503631 79.7104694,21.5849057 79.9074949,21.5849057 Z M78.9223675,17.9522569 L77.0834631,17.5486292 L78.4626414,16.270475 C78.5939918,16.1359325 78.6596669,16.0013899 78.6596669,15.8668474 L78.4626414,13.9832517 L80.0388452,14.9923208 C80.1701955,15.0595921 80.367221,15.0595921 80.4985713,14.9923208 L82.2061254,14.2523368 L81.8120745,16.1359325 C81.7463993,16.270475 81.8120745,16.4722888 81.9434248,16.6068314 L83.1912528,18.0195281 L81.3523484,18.221342 C81.2209981,18.221342 81.0239726,18.3558845 80.9582974,18.490427 L80.0388452,20.1722089 L79.3164185,18.4231558 C79.1850682,18.0867994 79.0537179,17.9522569 78.9223675,17.9522569 Z" id="Shape"></path>
                <path d="M70.5698512,26.805827 C69.6844491,28.4708824 69.1532079,30.1359378 68.9171006,31.8009932 C68.8580738,32.0571555 69.0351543,32.3133179 69.2712615,32.3773585 C69.2712615,32.3773585 69.3302883,32.3773585 69.3302883,32.3773585 C69.5663955,32.3773585 69.7434759,32.1852367 69.7434759,31.9931149 C69.9795831,30.4561408 70.5108244,28.9191666 71.3371996,27.3181518 C71.4552532,27.0619894 71.3962264,26.805827 71.1601192,26.6777459 C70.924012,26.4856241 70.6879048,26.5496647 70.5698512,26.805827 Z" id="Shape"></path>
                <path d="M72.3541751,24.0283606 C72.1425805,24.2308144 72.213112,24.5682374 72.4247066,24.7706912 C72.4952381,24.8381758 72.6363012,24.9056604 72.7773642,24.9056604 C72.9184273,24.9056604 73.0594903,24.8381758 73.2005534,24.7032066 C75.1049045,22.3412455 77.0092557,20.9240689 77.0092557,20.8565843 C77.2208502,20.6541305 77.2913818,20.3841921 77.0797872,20.1142537 C76.8681926,19.9117999 76.5860665,19.8443153 76.3039404,20.0467691 C76.3039404,20.1142537 74.3290577,21.5989149 72.3541751,24.0283606 Z" id="Shape"></path>
                <path d="M6.01014108,16.9714783 L8.61453555,17.1704965 C8.81487358,17.1704965 9.01521162,17.1041571 9.08199096,16.9051389 C9.14877031,16.77246 9.14877031,16.5071024 9.08199096,16.3744235 L7.74640406,14.1852228 L8.74809424,11.7306643 C8.81487358,11.5316461 8.81487358,11.3326278 8.68131489,11.199949 C8.5477562,11.0672702 8.34741816,11.0009307 8.14708013,11.0672702 L5.60946501,11.7306643 L3.60608465,10.0721789 C3.47252596,9.93950006 3.27218792,9.93950006 3.07184988,10.0058395 C2.87151185,10.0721789 2.8047325,10.2711971 2.73795316,10.403876 L2.53761512,12.9911132 L0.267117381,14.384241 C0.133558691,14.5169198 0,14.6495987 0,14.8486169 C0,15.0476352 0.133558691,15.180314 0.333896727,15.2466534 L2.8047325,16.1754053 L3.47252596,18.6963031 C3.5393053,18.8953214 3.67286399,19.0280002 3.87320203,19.0943396 C3.93998137,19.0943396 3.93998137,19.0943396 4.00676072,19.0943396 C4.14031941,19.0943396 4.2738781,19.0280002 4.40743679,18.8953214 L6.01014108,16.9714783 Z M3.73964334,15.7773688 C3.67286399,15.6446899 3.60608465,15.5120111 3.40574661,15.4456717 L1.60270429,14.7822775 L3.20540858,13.7871863 C3.33896727,13.7208468 3.40574661,13.5218286 3.47252596,13.3891498 L3.60608465,11.5316461 L5.07523024,12.6594162 C5.20878893,12.792095 5.34234763,12.792095 5.54268566,12.792095 L7.41250733,12.3277191 L6.67793453,14.0525439 C6.61115519,14.1852228 6.61115519,14.384241 6.74471388,14.5169198 L7.74640406,16.1090659 L5.87658239,15.976387 C5.7430237,15.976387 5.54268566,16.0427264 5.47590632,16.1754053 L4.2738781,17.6348724 L3.73964334,15.7773688 Z" id="Shape"></path>
                <path d="M10.8069526,27.3388923 C11.1062031,28.6507093 11.3306409,29.8934832 11.3306409,31.0672142 C11.3306409,31.6195582 11.3306409,32.1028592 11.2558283,32.6552032 C11.1810157,32.9313752 11.4054536,33.2075472 11.7795166,33.2075472 C11.7795166,33.2075472 11.8543293,33.2075472 11.8543293,33.2075472 C12.1535797,33.2075472 12.3780176,33.0004182 12.3780176,32.7242462 C12.4528302,32.1719022 12.4528302,31.6195582 12.4528302,30.9981712 C12.4528302,29.7553972 12.303205,28.3745373 11.9291419,26.9936773 C11.8543293,26.7175053 11.5550788,26.5103763 11.2558283,26.5794193 C10.9565779,26.7865483 10.73214,27.0627203 10.8069526,27.3388923 Z" id="Shape"></path>
                <path d="M7.66652283,19.1880993 C7.47429437,19.3226302 7.41021822,19.6589573 7.53837052,19.928019 C7.53837052,19.928019 8.81989354,21.8114509 9.84511195,24.5693333 C9.9091881,24.7711295 10.1014166,24.9056604 10.293645,24.9056604 C10.3577212,24.9056604 10.4217973,24.9056604 10.4858735,24.838395 C10.7421781,24.7038641 10.8703304,24.4348024 10.7421781,24.1657407 C9.6528835,21.2733275 8.37136048,19.3226302 8.30728433,19.2553648 C8.17913203,19.0535685 7.85875128,19.0535685 7.66652283,19.1880993 Z" id="Shape"></path>
                <path d="M77.1672091,38.5627021 C77.0997628,38.3602575 76.8974239,38.292776 76.6950849,38.292776 L59.900953,38.292776 C59.7660603,38.292776 59.5637214,38.3602575 59.4962751,38.4952206 L55.9216205,43.4888535 L48.9746502,43.4888535 L45.5348882,38.6301836 C46.4116903,36.2008487 47.423385,33.8389953 48.704865,31.6795864 C48.8397576,31.4771419 48.9072039,31.3421788 49.0420965,31.0722527 C50.3235765,28.8453623 50.9305933,26.2810643 50.7957007,23.6492848 C50.4584691,16.7661691 44.9953177,11.3001655 38.1832401,10.8277948 C34.4062466,10.5578687 30.7641456,11.8400177 27.9988468,14.4717973 C25.233548,17.0360952 23.6822828,20.6126161 23.6822828,24.3915816 C23.6822828,26.4835089 24.154407,28.5079547 25.0986553,30.3974374 C25.0986553,30.3974374 25.0986553,30.464919 25.1661017,30.464919 C25.5033332,31.0047712 25.9080111,31.6121049 26.2452427,32.2194386 C26.2452427,32.2194386 26.2452427,32.2194386 26.2452427,32.2869202 C27.3243837,34.1764029 28.2011857,36.2008487 28.9430952,38.292776 L7.15793602,38.292776 C6.95559708,38.292776 6.82070446,38.427739 6.68581183,38.5627021 C6.61836552,38.7651467 6.61836552,38.9675913 6.75325814,39.1025543 L14.1723526,49.3597463 L14.1723526,83.5728801 C14.1723526,85.1249552 15.4538325,86.3396226 16.9376514,86.3396226 L66.9153695,86.3396226 C68.4666347,86.3396226 69.6806684,85.0574736 69.6806684,83.5728801 L69.6806684,49.3597463 L77.0323165,39.1025543 C77.2346554,38.9675913 77.2346554,38.7651467 77.1672091,38.5627021 Z M27.0545984,31.747068 C27.0545984,31.747068 27.0545984,31.747068 27.0545984,31.747068 C26.6499205,31.1397342 26.312689,30.5324005 25.9754574,29.9925483 C25.0986553,28.2380286 24.6939775,26.4160274 24.6939775,24.4590631 C24.6939775,21.0175053 26.1777963,17.643429 28.6733099,15.2815756 C31.2362698,12.8522406 34.6085855,11.7050547 38.1157938,11.9074993 C44.4557472,12.3123884 49.4467744,17.4409844 49.784006,23.7842479 C49.9188986,26.2135828 49.3793281,28.5754362 48.2327408,30.599882 C48.2327408,30.599882 48.1652945,30.6673635 48.1652945,30.6673635 C48.0304018,30.8698081 47.9629555,31.0047712 47.8280629,31.2072157 C46.5465829,33.4341061 45.4674419,35.7959595 44.5906399,38.292776 L29.9547899,38.292776 C29.1454341,35.9984041 28.2011857,33.8389953 27.0545984,31.747068 Z M14.914262,48.684931 L8.16963072,39.3049989 L44.7255325,39.3049989 L51.4701638,48.684931 L14.914262,48.684931 Z M51.942288,85.3273997 L16.9376514,85.3273997 C15.9259567,85.3273997 15.1840473,84.5176214 15.1840473,83.5728801 L15.1840473,49.6971539 L51.942288,49.6971539 L51.942288,85.3273997 Z M49.7165597,44.5010764 L55.179711,44.5010764 L52.4818585,48.2800419 L49.7165597,44.5010764 Z M68.6689737,83.5728801 C68.6689737,84.585103 67.8596179,85.3273997 66.9153695,85.3273997 L52.9539827,85.3273997 L52.9539827,49.6971539 L68.73642,49.6971539 L68.73642,83.5728801 L68.6689737,83.5728801 Z M68.9387589,48.684931 L53.4261069,48.684931 L60.1707382,39.3049989 L75.6833902,39.3049989 L68.9387589,48.684931 Z" id="Shape"></path>
                <path d="M17.9311783,69.7358491 C18.2091306,69.7358491 18.4870828,69.5344062 18.4870828,69.1986681 L18.4870828,53.2846837 C18.4870828,52.881798 18.8345231,52.5460599 19.2514515,52.5460599 L30.1610767,52.5460599 C30.4390289,52.5460599 30.7169811,52.3446171 30.7169811,52.008879 C30.7169811,51.7402886 30.508517,51.4716981 30.1610767,51.4716981 L19.2514515,51.4716981 C18.2091306,51.4716981 17.4447619,52.2774695 17.4447619,53.2175361 L17.4447619,69.1315205 C17.3752739,69.4672586 17.6532261,69.7358491 17.9311783,69.7358491 Z" id="Shape"></path>
                <path d="M48.5660377,81.3584906 C48.7735849,81.3584906 48.9811321,81.1541863 48.9811321,80.8136792 L48.9811321,64.4693396 C48.9811321,64.196934 48.8254717,63.9245283 48.5660377,63.9245283 C48.3584906,63.9245283 48.1509434,64.1288325 48.1509434,64.4693396 L48.1509434,80.8136792 C48.2028302,81.1541863 48.3584906,81.3584906 48.5660377,81.3584906 Z" id="Shape"></path>
                <path d="M45.245283,81.3584906 C45.4528302,81.3584906 45.6603774,81.1570477 45.6603774,80.8213097 L45.6603774,72.763596 C45.6603774,72.4950055 45.504717,72.2264151 45.245283,72.2264151 C45.0377358,72.2264151 44.8301887,72.4278579 44.8301887,72.763596 L44.8301887,80.8213097 C44.8301887,81.1570477 45.0377358,81.3584906 45.245283,81.3584906 Z" id="Shape"></path>
            </g>
        </g>
    </g>
</svg>