<?xml version="1.0" encoding="UTF-8"?>
<svg width="100px" height="85px" viewBox="0 0 100 85" version="1.1" xmlns="http://www.w3.org/2000/svg" xmlns:xlink="http://www.w3.org/1999/xlink">
    <!-- Generator: Sketch 48.2 (47327) - http://www.bohemiancoding.com/sketch -->
    <title>customer-4</title>
    <desc>Created with Sketch.</desc>
    <defs></defs>
    <g id="Artboard-5-Copy" stroke="none" stroke-width="1" fill="none" fill-rule="evenodd" transform="translate(-1165.000000, -1785.000000)">
        <g id="customer-4" transform="translate(1165.000000, 1785.000000)">
            <rect id="Rectangle-3" fill="#21ce99" transform="translate(58.333333, 47.395833) rotate(-3.000000) translate(-58.333333, -47.395833) " x="34.375" y="32.2916667" width="47.9166667" height="30.2083333"></rect>
            <g id="Group" fill="#000000" fill-rule="nonzero">
                <path d="M15.859375,12.65625 L16.953125,13.75 C17.03125,13.828125 17.1875,13.90625 17.34375,13.90625 C17.5,13.90625 17.65625,13.828125 17.734375,13.75 C17.96875,13.515625 17.96875,13.125 17.734375,12.890625 L16.640625,11.796875 C16.40625,11.5625 16.015625,11.5625 15.78125,11.796875 C15.625,12.03125 15.625,12.421875 15.859375,12.65625 Z" id="Shape"></path>
                <path d="M20.390625,17.1875 C20.46875,17.265625 20.625,17.34375 20.78125,17.34375 C20.9375,17.34375 21.09375,17.265625 21.171875,17.1875 C21.40625,16.953125 21.40625,16.5625 21.171875,16.328125 L20.078125,15.234375 C19.84375,15 19.453125,15 19.21875,15.234375 C18.984375,15.46875 18.984375,15.859375 19.21875,16.09375 L20.390625,17.1875 Z" id="Shape"></path>
                <path d="M16.953125,15.234375 L15.859375,16.328125 C15.625,16.5625 15.625,16.953125 15.859375,17.1875 C15.9375,17.265625 16.09375,17.34375 16.25,17.34375 C16.40625,17.34375 16.5625,17.265625 16.640625,17.1875 L17.734375,16.09375 C17.96875,15.859375 17.96875,15.46875 17.734375,15.234375 C17.578125,15 17.1875,15 16.953125,15.234375 Z" id="Shape"></path>
                <path d="M19.765625,13.90625 C19.921875,13.90625 20.078125,13.828125 20.15625,13.75 L21.25,12.65625 C21.484375,12.421875 21.484375,12.03125 21.25,11.796875 C21.015625,11.5625 20.625,11.5625 20.390625,11.796875 L19.296875,12.890625 C19.0625,13.125 19.0625,13.515625 19.296875,13.75 C19.453125,13.828125 19.609375,13.90625 19.765625,13.90625 Z" id="Shape"></path>
                <path d="M12.34375,7.5 C14.375,7.5 15.9375,5.859375 15.9375,3.90625 C15.9375,1.875 14.296875,0.3125 12.34375,0.3125 C10.3125,0.3125 8.75,1.953125 8.75,3.90625 C8.75,5.9375 10.390625,7.5 12.34375,7.5 Z M12.34375,1.484375 C13.671875,1.484375 14.765625,2.578125 14.765625,3.90625 C14.765625,5.234375 13.671875,6.328125 12.34375,6.328125 C11.015625,6.328125 9.921875,5.234375 9.921875,3.90625 C9.921875,2.578125 11.015625,1.484375 12.34375,1.484375 Z" id="Shape"></path>
                <path d="M10,63.984375 C8.28125,63.984375 6.953125,65.390625 6.953125,67.03125 C6.953125,68.671875 8.359375,70.078125 10,70.078125 C11.71875,70.078125 13.046875,68.671875 13.046875,67.03125 C13.046875,65.390625 11.71875,63.984375 10,63.984375 Z M10,68.90625 C8.984375,68.90625 8.125,68.046875 8.125,67.03125 C8.125,66.015625 8.984375,65.15625 10,65.15625 C11.015625,65.15625 11.875,66.015625 11.875,67.03125 C11.875,68.046875 11.09375,68.90625 10,68.90625 Z" id="Shape"></path>
                <path d="M54.765625,15.78125 L42.1875,15.78125 C41.875,15.78125 41.5625,16.015625 41.5625,16.40625 C41.5625,16.71875 41.796875,17.03125 42.1875,17.03125 L54.765625,17.03125 C55.078125,17.03125 55.390625,16.796875 55.390625,16.40625 C55.3125,16.015625 55.078125,15.78125 54.765625,15.78125 Z" id="Shape"></path>
                <path d="M82.34375,58.90625 L82.34375,37.03125 C82.34375,35.234375 80.859375,33.828125 79.140625,33.828125 L70.3125,33.828125 L70.3125,15.078125 C70.3125,13.203125 68.828125,11.71875 66.953125,11.71875 L30.390625,11.71875 C28.59375,11.71875 27.03125,13.203125 27.03125,15.078125 L27.03125,78.671875 C27.03125,80.46875 28.515625,82.03125 30.390625,82.03125 L67.03125,82.03125 C68.828125,82.03125 70.390625,80.546875 70.390625,78.671875 L70.390625,62.109375 L79.21875,62.109375 C80.9375,62.109375 82.34375,60.703125 82.34375,58.90625 Z M28.203125,15.078125 C28.203125,13.90625 29.140625,12.890625 30.390625,12.890625 L67.03125,12.890625 C68.203125,12.890625 69.21875,13.828125 69.21875,15.078125 L69.21875,19.6875 L28.203125,19.6875 L28.203125,15.078125 Z M69.140625,78.59375 C69.140625,79.765625 68.203125,80.78125 66.953125,80.78125 L30.390625,80.78125 C29.21875,80.78125 28.203125,79.84375 28.203125,78.59375 L28.203125,74.453125 L69.140625,74.453125 L69.140625,78.59375 Z M69.140625,73.28125 L28.203125,73.28125 L28.203125,20.859375 L69.140625,20.859375 L69.140625,33.828125 L37.96875,33.828125 C36.171875,33.828125 34.765625,35.3125 34.765625,37.03125 L34.765625,58.90625 C34.765625,60.703125 36.25,62.109375 37.96875,62.109375 L69.140625,62.109375 L69.140625,73.28125 Z M37.96875,60.9375 C36.875,60.9375 35.9375,60 35.9375,58.90625 L35.9375,37.03125 C35.9375,35.9375 36.875,35 37.96875,35 L70.3125,35 L79.140625,35 C80.234375,35 81.171875,35.9375 81.171875,37.03125 L81.171875,58.90625 C81.171875,60 80.234375,60.9375 79.140625,60.9375 L37.96875,60.9375 Z" id="Shape"></path>
                <path d="M58.59375,40.46875 C54.453125,40.46875 51.09375,43.828125 51.09375,47.96875 C51.09375,52.109375 54.453125,55.46875 58.59375,55.46875 C62.734375,55.46875 66.09375,52.109375 66.09375,47.96875 C66.09375,43.828125 62.734375,40.46875 58.59375,40.46875 Z M58.59375,54.296875 C55.078125,54.296875 52.265625,51.484375 52.265625,47.96875 C52.265625,44.453125 55.078125,41.640625 58.59375,41.640625 C62.109375,41.640625 64.921875,44.453125 64.921875,47.96875 C64.921875,51.40625 62.03125,54.296875 58.59375,54.296875 Z" id="Shape"></path>
                <path d="M12.34375,21.875 C9.21875,21.796875 6.25,22.96875 3.984375,25.15625 C1.71875,27.34375 0.46875,30.234375 0.390625,33.4375 C0.3125,36.5625 1.484375,39.53125 3.671875,41.796875 C5.859375,44.0625 8.75,45.3125 11.953125,45.390625 C12.03125,45.390625 12.109375,45.390625 12.1875,45.390625 C15.234375,45.390625 18.125,44.21875 20.3125,42.109375 C22.578125,39.921875 23.828125,37.03125 23.90625,33.828125 C23.984375,30.703125 22.8125,27.734375 20.625,25.46875 C18.4375,23.203125 15.46875,21.953125 12.34375,21.875 Z M22.734375,33.828125 C22.65625,36.640625 21.5625,39.296875 19.53125,41.25 C17.5,43.203125 14.84375,44.296875 12.03125,44.21875 C9.21875,44.140625 6.5625,43.046875 4.609375,41.015625 C2.65625,38.984375 1.5625,36.328125 1.640625,33.515625 C1.71875,30.703125 2.8125,28.046875 4.84375,26.09375 C6.796875,24.140625 9.453125,23.125 12.1875,23.125 C12.265625,23.125 12.34375,23.125 12.34375,23.125 C15.15625,23.203125 17.8125,24.296875 19.765625,26.328125 C21.71875,28.359375 22.734375,31.015625 22.734375,33.828125 Z" id="Shape"></path>
                <path d="M95.9375,7.34375 C93.515625,4.921875 90.3125,3.59375 86.953125,3.515625 C86.953125,3.515625 86.875,3.515625 86.875,3.515625 C79.84375,3.515625 74.140625,9.21875 74.0625,16.25 C74.0625,19.6875 75.390625,22.890625 77.734375,25.3125 C80.15625,27.734375 83.359375,29.0625 86.71875,29.140625 C86.71875,29.140625 86.796875,29.140625 86.796875,29.140625 C90.15625,29.140625 93.359375,27.8125 95.78125,25.46875 C98.203125,23.046875 99.53125,19.84375 99.609375,16.484375 C99.609375,12.96875 98.28125,9.765625 95.9375,7.34375 Z M95,24.609375 C92.8125,26.796875 89.921875,27.96875 86.875,27.96875 C86.875,27.96875 86.796875,27.96875 86.796875,27.96875 C83.671875,27.96875 80.78125,26.71875 78.59375,24.53125 C76.40625,22.34375 75.234375,19.375 75.234375,16.328125 C75.234375,9.921875 80.46875,4.765625 86.796875,4.765625 C86.796875,4.765625 86.875,4.765625 86.875,4.765625 C90,4.765625 92.890625,6.015625 95.078125,8.203125 C97.265625,10.390625 98.4375,13.359375 98.4375,16.40625 C98.4375,19.53125 97.1875,22.421875 95,24.609375 Z" id="Shape"></path>
                <path d="M93.515625,9.609375 L91.09375,10.625 C90.9375,10.703125 90.78125,10.859375 90.78125,11.015625 L88.671875,18.203125 L82.03125,18.203125 L81.484375,16.40625 L85.859375,16.40625 C86.171875,16.40625 86.484375,16.171875 86.484375,15.78125 C86.484375,15.46875 86.25,15.15625 85.859375,15.15625 C85.859375,15.15625 85.859375,15.15625 85.859375,15.15625 L81.171875,15.15625 C81.171875,15.15625 81.171875,15.15625 81.171875,15.15625 L80.625,13.359375 L88.4375,13.359375 C88.75,13.359375 89.0625,13.125 89.0625,12.734375 C89.0625,12.421875 88.828125,12.109375 88.4375,12.109375 C88.4375,12.109375 88.4375,12.109375 88.4375,12.109375 L79.84375,12.109375 C79.6875,12.109375 79.453125,12.1875 79.375,12.34375 C79.296875,12.5 79.21875,12.65625 79.296875,12.890625 L81.015625,18.828125 C81.09375,19.0625 81.328125,19.21875 81.5625,19.21875 C81.5625,19.21875 81.5625,19.21875 81.5625,19.21875 L89.0625,19.21875 C89.296875,19.21875 89.53125,19.0625 89.609375,18.828125 L91.71875,11.484375 L93.828125,10.546875 C94.140625,10.390625 94.296875,10.078125 94.140625,9.765625 C94.21875,9.6875 93.828125,9.53125 93.515625,9.609375 Z" id="Shape"></path>
                <path d="M88.203125,19.921875 C87.34375,19.921875 86.484375,20.703125 86.484375,21.5625 C86.484375,22.5 87.265625,23.28125 88.125,23.28125 C88.125,23.28125 88.125,23.28125 88.125,23.28125 C88.59375,23.28125 88.984375,23.125 89.296875,22.8125 C89.609375,22.5 89.765625,22.109375 89.765625,21.640625 C89.84375,20.703125 89.140625,19.921875 88.203125,19.921875 Z M88.515625,21.953125 C88.4375,22.03125 88.28125,22.109375 88.125,22.109375 C87.8125,22.109375 87.65625,21.875 87.65625,21.5625 C87.65625,21.25 87.890625,21.09375 88.125,21.09375 C88.125,21.09375 88.125,21.09375 88.125,21.09375 C88.4375,21.09375 88.59375,21.328125 88.59375,21.640625 C88.671875,21.71875 88.59375,21.875 88.515625,21.953125 Z" id="Shape"></path>
                <path d="M82.890625,19.84375 C82.890625,19.84375 82.890625,19.84375 82.890625,19.84375 C81.953125,19.84375 81.171875,20.625 81.171875,21.484375 C81.171875,21.953125 81.328125,22.34375 81.640625,22.65625 C81.953125,22.96875 82.34375,23.125 82.8125,23.125 C82.8125,23.125 82.8125,23.125 82.8125,23.125 C83.28125,23.125 83.671875,22.96875 83.984375,22.65625 C84.296875,22.34375 84.453125,21.953125 84.453125,21.484375 C84.453125,21.015625 84.296875,20.625 83.984375,20.3125 C83.75,20.078125 83.359375,19.84375 82.890625,19.84375 Z M83.203125,21.953125 C83.125,22.03125 82.96875,22.109375 82.8125,22.109375 C82.65625,22.109375 82.578125,22.03125 82.421875,21.953125 C82.34375,21.875 82.265625,21.71875 82.265625,21.5625 C82.265625,21.25 82.5,21.09375 82.734375,21.09375 C82.890625,21.09375 82.96875,21.171875 83.125,21.25 C83.203125,21.328125 83.28125,21.484375 83.28125,21.640625 C83.359375,21.71875 83.359375,21.796875 83.203125,21.953125 Z" id="Shape"></path>
                <path d="M67.96875,3.203125 C68.046875,3.28125 68.203125,3.359375 68.359375,3.359375 C68.515625,3.359375 68.671875,3.28125 68.75,3.203125 C68.984375,2.96875 68.984375,2.578125 68.75,2.34375 L67.734375,1.328125 C67.5,1.09375 67.109375,1.09375 66.875,1.328125 C66.640625,1.5625 66.640625,1.953125 66.875,2.1875 L67.96875,3.203125 Z" id="Shape"></path>
                <path d="M71.25,6.40625 C71.328125,6.484375 71.484375,6.5625 71.640625,6.5625 C71.796875,6.5625 71.953125,6.484375 72.03125,6.40625 C72.265625,6.171875 72.265625,5.78125 72.03125,5.546875 L71.09375,4.609375 C70.859375,4.375 70.46875,4.375 70.234375,4.609375 C70,4.84375 70,5.234375 70.234375,5.46875 L71.25,6.40625 Z" id="Shape"></path>
                <path d="M67.421875,6.640625 C67.578125,6.640625 67.734375,6.5625 67.8125,6.484375 L68.828125,5.46875 C69.0625,5.234375 69.0625,4.84375 68.828125,4.609375 C68.59375,4.375 68.203125,4.375 67.96875,4.609375 L66.953125,5.625 C66.71875,5.859375 66.71875,6.25 66.953125,6.484375 C67.109375,6.5625 67.265625,6.640625 67.421875,6.640625 Z" id="Shape"></path>
                <path d="M70.625,3.359375 C70.78125,3.359375 70.9375,3.28125 71.015625,3.203125 L72.03125,2.1875 C72.265625,1.953125 72.265625,1.5625 72.03125,1.328125 C71.796875,1.09375 71.40625,1.09375 71.171875,1.328125 L70.234375,2.34375 C70,2.578125 70,2.96875 70.234375,3.203125 C70.3125,3.28125 70.46875,3.359375 70.625,3.359375 Z" id="Shape"></path>
                <path d="M73.671875,75.078125 C73.4375,74.84375 73.046875,74.84375 72.8125,75.078125 C72.578125,75.3125 72.578125,75.703125 72.8125,75.9375 L73.828125,76.953125 C73.90625,77.03125 74.0625,77.109375 74.21875,77.109375 C74.375,77.109375 74.53125,77.03125 74.609375,76.953125 C74.84375,76.71875 74.84375,76.328125 74.609375,76.09375 L73.671875,75.078125 Z" id="Shape"></path>
                <path d="M76.953125,78.359375 C76.71875,78.125 76.328125,78.125 76.09375,78.359375 C75.859375,78.59375 75.859375,78.984375 76.09375,79.21875 L77.109375,80.234375 C77.1875,80.3125 77.34375,80.390625 77.5,80.390625 C77.65625,80.390625 77.8125,80.3125 77.890625,80.234375 C78.125,80 78.125,79.609375 77.890625,79.375 L76.953125,78.359375 Z" id="Shape"></path>
                <path d="M73.90625,78.359375 L72.890625,79.375 C72.65625,79.609375 72.65625,80 72.890625,80.234375 C72.96875,80.3125 73.125,80.390625 73.28125,80.390625 C73.4375,80.390625 73.59375,80.3125 73.671875,80.234375 L74.6875,79.21875 C74.921875,78.984375 74.921875,78.59375 74.6875,78.359375 C74.453125,78.125 74.140625,78.125 73.90625,78.359375 Z" id="Shape"></path>
                <path d="M77.109375,75.078125 L76.09375,76.09375 C75.859375,76.328125 75.859375,76.71875 76.09375,76.953125 C76.171875,77.03125 76.328125,77.109375 76.484375,77.109375 C76.640625,77.109375 76.796875,77.03125 76.875,76.953125 L77.890625,75.9375 C78.125,75.703125 78.125,75.3125 77.890625,75.078125 C77.734375,74.84375 77.34375,74.84375 77.109375,75.078125 Z" id="Shape"></path>
                <path d="M17.96875,78.828125 C17.734375,78.59375 17.34375,78.59375 17.109375,78.828125 C16.875,79.0625 16.875,79.453125 17.109375,79.6875 L18.125,80.703125 C18.203125,80.78125 18.359375,80.859375 18.515625,80.859375 C18.671875,80.859375 18.828125,80.78125 18.90625,80.703125 C19.140625,80.46875 19.140625,80.078125 18.90625,79.84375 L17.96875,78.828125 Z" id="Shape"></path>
                <path d="M21.25,82.109375 C21.015625,81.875 20.625,81.875 20.390625,82.109375 C20.15625,82.34375 20.15625,82.734375 20.390625,82.96875 L21.40625,83.984375 C21.484375,84.0625 21.640625,84.140625 21.796875,84.140625 C21.953125,84.140625 22.109375,84.0625 22.1875,83.984375 C22.421875,83.75 22.421875,83.359375 22.1875,83.125 L21.25,82.109375 Z" id="Shape"></path>
                <path d="M18.125,82.109375 L17.109375,83.125 C16.875,83.359375 16.875,83.75 17.109375,83.984375 C17.1875,84.0625 17.34375,84.140625 17.5,84.140625 C17.65625,84.140625 17.8125,84.0625 17.890625,83.984375 L18.90625,82.96875 C19.140625,82.734375 19.140625,82.34375 18.90625,82.109375 C18.75,81.875 18.359375,81.875 18.125,82.109375 Z" id="Shape"></path>
                <path d="M21.40625,78.828125 L20.390625,79.84375 C20.15625,80.078125 20.15625,80.46875 20.390625,80.703125 C20.46875,80.78125 20.625,80.859375 20.78125,80.859375 C20.9375,80.859375 21.09375,80.78125 21.171875,80.703125 L22.1875,79.6875 C22.421875,79.453125 22.421875,79.0625 22.1875,78.828125 C22.03125,78.59375 21.640625,78.59375 21.40625,78.828125 Z" id="Shape"></path>
                <path d="M30,8.28125 C31.25,8.28125 32.265625,7.265625 32.265625,6.015625 C32.265625,4.765625 31.25,3.75 30,3.75 C28.75,3.75 27.734375,4.765625 27.734375,6.015625 C27.734375,7.265625 28.75,8.28125 30,8.28125 Z M30,4.921875 C30.625,4.921875 31.09375,5.390625 31.09375,6.015625 C31.09375,6.640625 30.625,7.109375 30,7.109375 C29.375,7.109375 28.90625,6.640625 28.90625,6.015625 C28.90625,5.390625 29.375,4.921875 30,4.921875 Z" id="Shape"></path>
                <path d="M89.296875,79.21875 C88.046875,79.21875 87.03125,80.234375 87.03125,81.484375 C87.03125,82.734375 88.046875,83.75 89.296875,83.75 C90.546875,83.75 91.5625,82.734375 91.5625,81.484375 C91.5625,80.234375 90.546875,79.21875 89.296875,79.21875 Z M89.296875,82.578125 C88.671875,82.578125 88.203125,82.109375 88.203125,81.484375 C88.203125,80.859375 88.671875,80.390625 89.296875,80.390625 C89.921875,80.390625 90.390625,80.859375 90.390625,81.484375 C90.390625,82.03125 89.84375,82.578125 89.296875,82.578125 Z" id="Shape"></path>
                <path d="M90,35.703125 C90,34.296875 88.90625,33.203125 87.5,33.203125 C86.09375,33.203125 85,34.296875 85,35.703125 C85,37.109375 86.09375,38.203125 87.5,38.203125 C88.90625,38.203125 90,37.03125 90,35.703125 Z M86.171875,35.703125 C86.171875,35 86.796875,34.375 87.5,34.375 C88.203125,34.375 88.828125,35 88.828125,35.703125 C88.828125,36.40625 88.203125,37.03125 87.5,37.03125 C86.796875,36.953125 86.171875,36.40625 86.171875,35.703125 Z" id="Shape"></path>
                <path d="M21.796875,55.234375 C21.484375,55.234375 21.171875,55.46875 21.171875,55.859375 L21.171875,62.734375 C21.171875,63.046875 21.40625,63.359375 21.796875,63.359375 C22.109375,63.359375 22.421875,63.125 22.421875,62.734375 L22.421875,55.859375 C22.421875,55.46875 22.109375,55.234375 21.796875,55.234375 Z" id="Shape"></path>
                <path d="M21.796875,64.375 C21.484375,64.375 21.171875,64.609375 21.171875,65 L21.171875,67.265625 C21.171875,67.578125 21.40625,67.890625 21.796875,67.890625 C22.109375,67.890625 22.421875,67.65625 22.421875,67.265625 L22.421875,65 C22.421875,64.6875 22.109375,64.375 21.796875,64.375 Z" id="Shape"></path>
                <path d="M90.3125,57.265625 C90.3125,57.578125 90.546875,57.890625 90.9375,57.890625 C91.25,57.890625 91.5625,57.65625 91.5625,57.265625 L91.5625,50.390625 C91.5625,50.078125 91.328125,49.765625 90.9375,49.765625 C90.625,49.765625 90.3125,50 90.3125,50.390625 L90.3125,57.265625 Z" id="Shape"></path>
                <path d="M90.9375,48.671875 C91.25,48.671875 91.5625,48.4375 91.5625,48.046875 L91.5625,45.78125 C91.5625,45.46875 91.328125,45.15625 90.9375,45.15625 C90.625,45.15625 90.3125,45.390625 90.3125,45.78125 L90.3125,48.046875 C90.3125,48.4375 90.625,48.671875 90.9375,48.671875 Z" id="Shape"></path>
                <path d="M49.0625,5.390625 L55.9375,5.390625 C56.25,5.390625 56.5625,5.15625 56.5625,4.765625 C56.5625,4.453125 56.328125,4.140625 55.9375,4.140625 L49.0625,4.140625 C48.75,4.140625 48.4375,4.375 48.4375,4.765625 C48.4375,5.15625 48.75,5.390625 49.0625,5.390625 Z" id="Shape"></path>
                <path d="M58.203125,5.390625 L60.46875,5.390625 C60.78125,5.390625 61.09375,5.15625 61.09375,4.765625 C61.09375,4.453125 60.859375,4.140625 60.46875,4.140625 L58.203125,4.140625 C57.890625,4.140625 57.578125,4.375 57.578125,4.765625 C57.65625,5.15625 57.890625,5.390625 58.203125,5.390625 Z" id="Shape"></path>
                <path d="M60.46875,6.640625 L55.625,6.640625 C55.3125,6.640625 55,6.875 55,7.265625 C55,7.578125 55.234375,7.890625 55.625,7.890625 L60.46875,7.890625 C60.78125,7.890625 61.09375,7.65625 61.09375,7.265625 C61.015625,6.875 60.78125,6.640625 60.46875,6.640625 Z" id="Shape"></path>
                <path d="M52.03125,6.640625 C51.71875,6.640625 51.40625,6.875 51.40625,7.265625 C51.40625,7.578125 51.640625,7.890625 52.03125,7.890625 L53.59375,7.890625 C53.90625,7.890625 54.21875,7.65625 54.21875,7.265625 C54.21875,6.953125 53.984375,6.640625 53.59375,6.640625 L52.03125,6.640625 Z" id="Shape"></path>
                <path d="M82.890625,67.578125 C82.890625,67.265625 82.65625,66.953125 82.265625,66.953125 L75.390625,66.953125 C75.078125,66.953125 74.765625,67.1875 74.765625,67.578125 C74.765625,67.96875 75,68.203125 75.390625,68.203125 L82.265625,68.203125 C82.65625,68.125 82.890625,67.890625 82.890625,67.578125 Z" id="Shape"></path>
                <path d="M83.984375,67.578125 C83.984375,67.890625 84.21875,68.203125 84.609375,68.203125 L86.875,68.203125 C87.1875,68.203125 87.5,67.96875 87.5,67.578125 C87.5,67.1875 87.265625,66.953125 86.875,66.953125 L84.609375,66.953125 C84.296875,66.953125 83.984375,67.265625 83.984375,67.578125 Z" id="Shape"></path>
                <path d="M87.421875,69.921875 C87.421875,69.609375 87.1875,69.296875 86.796875,69.296875 L82.03125,69.296875 C81.71875,69.296875 81.40625,69.53125 81.40625,69.921875 C81.40625,70.234375 81.640625,70.546875 82.03125,70.546875 L86.875,70.546875 C87.1875,70.546875 87.421875,70.234375 87.421875,69.921875 Z" id="Shape"></path>
                <path d="M79.921875,69.375 L78.359375,69.375 C78.046875,69.375 77.734375,69.609375 77.734375,70 C77.734375,70.3125 77.96875,70.625 78.359375,70.625 L79.921875,70.625 C80.234375,70.625 80.546875,70.390625 80.546875,70 C80.546875,69.609375 80.234375,69.375 79.921875,69.375 Z" id="Shape"></path>
                <path d="M58.828125,47.421875 L58.828125,45 C59.375,45.078125 59.6875,45.390625 59.765625,46.015625 L60.703125,46.015625 C60.625,44.921875 60,44.375 58.828125,44.296875 L58.828125,43.59375 L58.28125,43.59375 L58.28125,44.296875 C57.65625,44.375 57.1875,44.53125 56.875,44.921875 C56.5625,45.234375 56.328125,45.703125 56.328125,46.25 C56.328125,47.265625 56.953125,47.890625 58.28125,48.125 L58.28125,50.78125 C57.578125,50.625 57.1875,50.234375 57.109375,49.453125 L56.25,49.453125 C56.328125,50.703125 57.03125,51.40625 58.359375,51.5625 L58.359375,52.265625 L58.90625,52.265625 L58.90625,51.5625 C59.53125,51.5625 60,51.328125 60.390625,50.859375 C60.78125,50.46875 60.9375,50 60.9375,49.375 C60.9375,48.828125 60.78125,48.4375 60.546875,48.125 C60.15625,47.890625 59.609375,47.65625 58.828125,47.421875 Z M58.359375,47.34375 C58.046875,47.265625 57.8125,47.1875 57.65625,46.953125 C57.5,46.796875 57.34375,46.5625 57.34375,46.171875 C57.34375,45.546875 57.65625,45.15625 58.359375,45 L58.359375,47.34375 Z M58.828125,50.859375 L58.828125,48.28125 C59.296875,48.359375 59.53125,48.515625 59.6875,48.75 C59.84375,48.984375 59.921875,49.21875 59.921875,49.53125 C59.921875,50.3125 59.609375,50.78125 58.828125,50.859375 Z" id="Shape"></path>
                <path d="M16.015625,29.765625 L14.375,29.765625 L14.375,27.734375 C14.375,26.484375 13.359375,25.46875 12.109375,25.46875 C10.859375,25.46875 9.84375,26.484375 9.84375,27.734375 L9.84375,29.765625 L8.203125,29.765625 C7.890625,29.765625 7.65625,30 7.65625,30.234375 L6.40625,39.375 C6.40625,39.53125 6.40625,39.6875 6.5625,39.84375 C6.640625,40 6.875,40.078125 7.03125,40.078125 L17.34375,40.078125 C17.5,40.078125 17.65625,40 17.8125,39.84375 C17.890625,39.6875 17.96875,39.53125 17.96875,39.375 L16.71875,30.234375 C16.5625,29.921875 16.328125,29.765625 16.015625,29.765625 Z M11.09375,27.734375 C11.09375,27.1875 11.5625,26.71875 12.109375,26.71875 C12.65625,26.71875 13.125,27.1875 13.125,27.734375 L13.125,29.765625 L11.015625,29.765625 L11.015625,27.734375 L11.09375,27.734375 Z M7.65625,38.828125 L8.75,30.859375 L9.921875,30.859375 L9.921875,32.1875 C9.921875,32.5 10.15625,32.8125 10.546875,32.8125 C10.9375,32.8125 11.171875,32.578125 11.171875,32.1875 L11.171875,30.859375 L13.28125,30.859375 L13.28125,32.1875 C13.28125,32.5 13.515625,32.8125 13.90625,32.8125 C14.296875,32.8125 14.53125,32.578125 14.53125,32.1875 L14.53125,30.859375 L15.703125,30.859375 L16.796875,38.828125 L7.65625,38.828125 Z" id="Shape"></path>
                <path d="M42.03125,79.140625 L54.84375,79.140625 C55.703125,79.140625 56.40625,78.4375 56.40625,77.578125 C56.40625,76.71875 55.703125,76.015625 54.84375,76.015625 L42.03125,76.015625 C41.171875,76.015625 40.46875,76.71875 40.46875,77.578125 C40.46875,78.4375 41.171875,79.140625 42.03125,79.140625 Z M42.03125,77.1875 L54.84375,77.1875 C55.078125,77.1875 55.234375,77.34375 55.234375,77.578125 C55.234375,77.8125 55.078125,77.96875 54.84375,77.96875 L42.03125,77.96875 C41.796875,77.96875 41.640625,77.8125 41.640625,77.578125 C41.640625,77.34375 41.796875,77.1875 42.03125,77.1875 Z" id="Shape"></path>
            </g>
        </g>
    </g>
</svg>