
<svg width="90px" height="87px" viewBox="0 0 90 87" version="1.1" xmlns="http://www.w3.org/2000/svg" xmlns:xlink="http://www.w3.org/1999/xlink">
    <!-- Generator: Sketch 51.3 (57544) - http://www.bohemiancoding.com/sketch -->
    <desc>Created with Sketch.</desc>
    <defs></defs>
    <g id="website-icons" stroke="none" stroke-width="1" fill="none" fill-rule="evenodd">
        <g id="icons" transform="translate(-899.000000, -1896.000000)" fill-rule="nonzero">
            <g id="Group-4" transform="translate(899.000000, 1896.000000)">
                <path d="M8,39.7188161 C8,35.6215645 11.215625,32.2473573 15.1203125,32.2473573 C15.1203125,32.2473573 20.6072917,32.3009161 31.58125,32.4080338 C31.6578125,32.4080338 31.734375,32.4080338 31.8109375,32.3276956 L51.334375,21.8033827 L52.0234375,21.4016913 C52.559375,21.0803383 53.171875,21 53.7078125,21 L56.846875,21 C55.2390625,24.8562368 54.24375,31.845666 54.1671875,39.4778013 C54.090625,47.7526427 55.1625,55.1437632 57,58.9196617 L53.63125,59 C53.01875,59 52.40625,58.8393235 51.946875,58.5179704 L31.8109375,47.3509514 C31.734375,47.2706131 31.6578125,47.2706131 31.58125,47.2706131 L27.2171875,47.2706131 C27.2171875,47.2706131 24.7161458,47.2706131 19.7140625,47.2706131 L15.2734375,47.2706131 C11.215625,47.1902748 8,43.8160677 8,39.7188161 Z" id="Path" fill="#3BD59A" transform="translate(32.500000, 40.000000) rotate(-2.000000) translate(-32.500000, -40.000000) "></path>
                <g id="Group-Copy-5" fill="#000000">
                    <path d="M3.09375,28.4487758 C3.09375,28.1684923 2.8828125,27.8882088 2.53125,27.8882088 C2.1796875,27.8882088 1.96875,28.0984214 1.96875,28.4487758 L1.96875,37.1375644 C1.96875,37.4178479 2.1796875,37.6981314 2.53125,37.6981314 C2.8828125,37.6981314 3.09375,37.4879188 3.09375,37.1375644 L3.09375,28.4487758 Z" id="Shape"></path>
                    <path d="M2.6015625,40.6411082 C2.3203125,40.6411082 2.0390625,40.8513209 2.0390625,41.2016753 L2.0390625,44.2847938 C2.0390625,44.5650773 2.25,44.8453608 2.6015625,44.8453608 C2.953125,44.8453608 3.1640625,44.6351482 3.1640625,44.2847938 L3.1640625,41.2016753 C3.09375,40.8513209 2.8828125,40.6411082 2.6015625,40.6411082 Z" id="Shape"></path>
                    <path d="M60.1171875,63.9046392 C60.1171875,65.2359858 61.2421875,66.3571198 62.578125,66.3571198 C63.9140625,66.3571198 65.0390625,65.2359858 65.0390625,63.9046392 C65.0390625,62.5732925 63.9140625,61.4521585 62.578125,61.4521585 C61.171875,61.4521585 60.1171875,62.5732925 60.1171875,63.9046392 Z M63.984375,63.9046392 C63.984375,64.6754188 63.3515625,65.3060567 62.578125,65.3060567 C61.8046875,65.3060567 61.171875,64.6754188 61.171875,63.9046392 C61.171875,63.1338595 61.8046875,62.5032216 62.578125,62.5032216 C63.3515625,62.5032216 63.984375,63.1338595 63.984375,63.9046392 Z" id="Shape"></path>
                    <path d="M35.015625,81.2822165 C33.6796875,81.2822165 32.5546875,82.4033505 32.5546875,83.7346972 C32.5546875,85.0660438 33.6796875,86.1871778 35.015625,86.1871778 C36.3515625,86.1871778 37.4765625,85.0660438 37.4765625,83.7346972 C37.4765625,82.4033505 36.3515625,81.2822165 35.015625,81.2822165 Z M35.015625,85.2061856 C34.2421875,85.2061856 33.609375,84.5755477 33.609375,83.804768 C33.609375,83.0339884 34.2421875,82.4033505 35.015625,82.4033505 C35.7890625,82.4033505 36.421875,83.0339884 36.421875,83.804768 C36.421875,84.5755477 35.7890625,85.2061856 35.015625,85.2061856 Z" id="Shape"></path>
                    <path d="M52.734375,7.77786727 C54.0703125,7.77786727 55.1953125,6.65673325 55.1953125,5.3253866 C55.1953125,3.99403995 54.0703125,2.87290593 52.734375,2.87290593 C51.3984375,2.87290593 50.2734375,3.99403995 50.2734375,5.3253866 C50.2734375,6.65673325 51.328125,7.77786727 52.734375,7.77786727 Z M52.734375,3.92396907 C53.5078125,3.92396907 54.140625,4.55460696 54.140625,5.3253866 C54.140625,6.09616624 53.5078125,6.72680412 52.734375,6.72680412 C51.9609375,6.72680412 51.328125,6.09616624 51.328125,5.3253866 C51.328125,4.55460696 51.9609375,3.92396907 52.734375,3.92396907 Z" id="Shape"></path>
                    <path d="M83.0390625,35.105509 C83.0390625,34.8252255 82.828125,34.544942 82.4765625,34.544942 L72.3515625,34.544942 C72.0703125,34.544942 71.7890625,34.7551546 71.7890625,35.105509 C71.7890625,35.4558634 72,35.666076 72.3515625,35.666076 L82.4765625,35.666076 C82.828125,35.666076 83.0390625,35.3857925 83.0390625,35.105509 Z" id="Shape"></path>
                    <path d="M85.8515625,34.6150129 C85.5703125,34.6150129 85.2890625,34.8252255 85.2890625,35.1755799 C85.2890625,35.5259343 85.5,35.7361469 85.8515625,35.7361469 L89.15625,35.7361469 C89.4375,35.7361469 89.71875,35.5259343 89.71875,35.1755799 C89.71875,34.8252255 89.5078125,34.6150129 89.15625,34.6150129 L85.8515625,34.6150129 Z" id="Shape"></path>
                    <path d="M89.0859375,38.0484858 L81.984375,38.0484858 C81.703125,38.0484858 81.421875,38.2586985 81.421875,38.6090528 C81.421875,38.8893363 81.6328125,39.1696198 81.984375,39.1696198 L89.0859375,39.1696198 C89.3671875,39.1696198 89.6484375,38.9594072 89.6484375,38.6090528 C89.6484375,38.3287693 89.4375,38.0484858 89.0859375,38.0484858 Z" id="Shape"></path>
                    <path d="M76.7109375,38.0484858 C76.4296875,38.0484858 76.1484375,38.2586985 76.1484375,38.6090528 C76.1484375,38.8893363 76.359375,39.1696198 76.7109375,39.1696198 L79.03125,39.1696198 C79.3125,39.1696198 79.59375,38.9594072 79.59375,38.6090528 C79.59375,38.3287693 79.3828125,38.0484858 79.03125,38.0484858 L76.7109375,38.0484858 Z" id="Shape"></path>
                    <path d="M19.6875,84.2251933 L9.5625,84.2251933 C9.28125,84.2251933 9,84.4354059 9,84.7857603 C9,85.0660438 9.2109375,85.3463273 9.5625,85.3463273 L19.6875,85.3463273 C19.96875,85.3463273 20.25,85.1361147 20.25,84.7857603 C20.25,84.5054768 19.96875,84.2251933 19.6875,84.2251933 Z" id="Shape"></path>
                    <path d="M6.1875,84.2251933 L2.953125,84.2251933 C2.671875,84.2251933 2.390625,84.4354059 2.390625,84.7857603 C2.390625,85.0660438 2.6015625,85.3463273 2.953125,85.3463273 L6.2578125,85.3463273 C6.5390625,85.3463273 6.8203125,85.1361147 6.8203125,84.7857603 C6.75,84.5054768 6.5390625,84.2251933 6.1875,84.2251933 Z" id="Shape"></path>
                    <path d="M2.953125,81.8427835 L10.0546875,81.8427835 C10.3359375,81.8427835 10.6171875,81.6325709 10.6171875,81.2822165 C10.6171875,81.001933 10.40625,80.7216495 10.0546875,80.7216495 L2.953125,80.7216495 C2.671875,80.7216495 2.390625,80.9318621 2.390625,81.2822165 C2.390625,81.6325709 2.671875,81.8427835 2.953125,81.8427835 Z" id="Shape"></path>
                    <path d="M15.328125,81.8427835 C15.609375,81.8427835 15.890625,81.6325709 15.890625,81.2822165 C15.890625,81.001933 15.6796875,80.7216495 15.328125,80.7216495 L13.0078125,80.7216495 C12.7265625,80.7216495 12.4453125,80.9318621 12.4453125,81.2822165 C12.4453125,81.5625 12.65625,81.8427835 13.0078125,81.8427835 L15.328125,81.8427835 Z" id="Shape"></path>
                    <path d="M43.171875,67.7585374 C42.9609375,67.5483247 42.609375,67.5483247 42.3984375,67.7585374 C42.1875,67.96875 42.1875,68.3191044 42.3984375,68.529317 L43.453125,69.5803802 C43.5234375,69.650451 43.6640625,69.7205219 43.8046875,69.7205219 C43.9453125,69.7205219 44.0859375,69.650451 44.15625,69.5803802 C44.3671875,69.3701675 44.3671875,69.0198131 44.15625,68.8096005 L43.171875,67.7585374 Z" id="Shape"></path>
                    <path d="M47.671875,72.9437822 C47.8828125,72.7335696 47.8828125,72.3832152 47.671875,72.1730026 L46.6171875,71.1219394 C46.40625,70.9117268 46.0546875,70.9117268 45.84375,71.1219394 C45.6328125,71.3321521 45.6328125,71.6825064 45.84375,71.8927191 L46.8984375,72.9437822 C46.96875,73.0138531 47.109375,73.083924 47.25,73.083924 C47.390625,73.083924 47.53125,73.0138531 47.671875,72.9437822 Z" id="Shape"></path>
                    <path d="M43.5234375,71.1219394 L42.46875,72.1730026 C42.2578125,72.3832152 42.2578125,72.7335696 42.46875,72.9437822 C42.5390625,73.0138531 42.6796875,73.083924 42.8203125,73.083924 C42.9609375,73.083924 43.1015625,73.0138531 43.171875,72.9437822 L44.2265625,71.8927191 C44.4375,71.6825064 44.4375,71.3321521 44.2265625,71.1219394 C44.015625,70.9117268 43.734375,70.9117268 43.5234375,71.1219394 Z" id="Shape"></path>
                    <path d="M46.8984375,67.7585374 L45.84375,68.8096005 C45.6328125,69.0198131 45.6328125,69.3701675 45.84375,69.5803802 C45.9140625,69.650451 46.0546875,69.7205219 46.1953125,69.7205219 C46.3359375,69.7205219 46.4765625,69.650451 46.546875,69.5803802 L47.6015625,68.529317 C47.8125,68.3191044 47.8125,67.96875 47.6015625,67.7585374 C47.4609375,67.5483247 47.109375,67.5483247 46.8984375,67.7585374 Z" id="Shape"></path>
                    <path d="M54.140625,12.1222616 C53.9296875,12.3324742 53.9296875,12.6828286 54.140625,12.8930412 L55.1953125,13.9441044 C55.265625,14.0141753 55.40625,14.0842461 55.546875,14.0842461 C55.6875,14.0842461 55.828125,14.0141753 55.8984375,13.9441044 C56.109375,13.7338918 56.109375,13.3835374 55.8984375,13.1733247 L54.84375,12.1222616 C54.703125,11.912049 54.3515625,11.912049 54.140625,12.1222616 Z" id="Shape"></path>
                    <path d="M58.5703125,17.3075064 C58.640625,17.3775773 58.78125,17.4476482 58.921875,17.4476482 C59.0625,17.4476482 59.203125,17.3775773 59.2734375,17.3075064 C59.484375,17.0972938 59.484375,16.7469394 59.2734375,16.5367268 L58.21875,15.4856637 C58.0078125,15.275451 57.65625,15.275451 57.4453125,15.4856637 C57.234375,15.6958763 57.234375,16.0462307 57.4453125,16.2564433 L58.5703125,17.3075064 Z" id="Shape"></path>
                    <path d="M55.1953125,15.4856637 L54.140625,16.5367268 C53.9296875,16.7469394 53.9296875,17.0972938 54.140625,17.3075064 C54.2109375,17.3775773 54.3515625,17.4476482 54.4921875,17.4476482 C54.6328125,17.4476482 54.7734375,17.3775773 54.84375,17.3075064 L55.8984375,16.2564433 C56.109375,16.0462307 56.109375,15.6958763 55.8984375,15.4856637 C55.7578125,15.275451 55.40625,15.275451 55.1953125,15.4856637 Z" id="Shape"></path>
                    <path d="M57.9375,14.0842461 C58.078125,14.0842461 58.21875,14.0141753 58.2890625,13.9441044 L59.34375,12.8930412 C59.5546875,12.6828286 59.5546875,12.3324742 59.34375,12.1222616 C59.1328125,11.912049 58.78125,11.912049 58.5703125,12.1222616 L57.515625,13.1733247 C57.3046875,13.3835374 57.3046875,13.7338918 57.515625,13.9441044 C57.65625,14.0141753 57.796875,14.0842461 57.9375,14.0842461 Z" id="Shape"></path>
                    <path d="M13.078125,2.59262242 C13.1484375,2.6626933 13.2890625,2.73276418 13.4296875,2.73276418 C13.5703125,2.73276418 13.7109375,2.6626933 13.78125,2.59262242 C13.9921875,2.38240979 13.9921875,2.03205541 13.78125,1.82184278 L12.7265625,0.770779639 C12.515625,0.56056701 12.1640625,0.56056701 11.953125,0.770779639 C11.7421875,0.980992268 11.7421875,1.33134665 11.953125,1.54155928 L13.078125,2.59262242 Z" id="Shape"></path>
                    <path d="M16.5234375,5.95602448 C16.59375,6.02609536 16.734375,6.09616624 16.875,6.09616624 C17.015625,6.09616624 17.15625,6.02609536 17.2265625,5.95602448 C17.4375,5.74581186 17.4375,5.39545747 17.2265625,5.18524485 L16.171875,4.20425258 C15.9609375,3.99403995 15.609375,3.99403995 15.3984375,4.20425258 C15.1875,4.41446521 15.1875,4.76481959 15.3984375,4.97503222 L16.5234375,5.95602448 Z" id="Shape"></path>
                    <path d="M12.4453125,6.09616624 C12.5859375,6.09616624 12.7265625,6.02609536 12.796875,5.95602448 L13.8515625,4.90496134 C14.0625,4.69474871 14.0625,4.41446521 13.8515625,4.20425258 C13.640625,3.99403995 13.2890625,3.99403995 13.078125,4.20425258 L12.0234375,5.25531572 C11.8125,5.46552835 11.8125,5.81588273 12.0234375,6.02609536 C12.1640625,6.09616624 12.3046875,6.09616624 12.4453125,6.09616624 Z" id="Shape"></path>
                    <path d="M15.8203125,2.73276418 C15.9609375,2.73276418 16.1015625,2.6626933 16.171875,2.59262242 L17.2265625,1.54155928 C17.4375,1.33134665 17.4375,0.980992268 17.2265625,0.770779639 C17.015625,0.56056701 16.6640625,0.56056701 16.453125,0.770779639 L15.46875,1.82184278 C15.2578125,2.03205541 15.2578125,2.38240979 15.46875,2.59262242 C15.5390625,2.6626933 15.6796875,2.73276418 15.8203125,2.73276418 Z" id="Shape"></path>
                    <path d="M33.6796875,75.1159794 C33.6796875,74.4853415 33.46875,73.9247745 33.1171875,73.4342784 C33.75,73.3642075 34.3125,73.083924 34.8046875,72.6634987 C35.296875,72.1730026 35.6484375,71.4722938 35.6484375,70.7015142 C35.6484375,70.0708763 35.4375,69.4402384 35.015625,68.9497423 C35.6484375,68.8796714 36.2109375,68.5993879 36.703125,68.1789626 C37.1953125,67.6884665 37.546875,66.9877577 37.546875,66.2169781 C37.546875,64.6754188 36.3515625,63.4842139 34.8046875,63.414143 C35.2265625,62.9236469 35.4375,62.3630799 35.4375,61.732442 C35.4375,60.1908827 34.171875,58.929607 32.6953125,58.929607 L28.6171875,58.929607 C29.0390625,58.4391108 29.25,57.8785438 29.25,57.2479059 C29.25,56.056701 28.546875,55.0757088 27.4921875,54.6552835 L27.4921875,47.578125 L30.9375,47.578125 L48.7265625,56.9676224 L49.21875,57.2479059 C49.8515625,57.5982603 50.5546875,57.7384021 51.2578125,57.7384021 L54.9140625,57.7384021 C55.0546875,57.7384021 55.1953125,57.6683312 55.265625,57.5982603 C55.3359375,57.5281894 55.40625,57.3880477 55.40625,57.2479059 L55.40625,56.4771263 C55.40625,56.4070554 55.40625,56.3369845 55.3359375,56.1968428 C53.6484375,53.253866 52.6640625,46.7372745 52.734375,39.7301869 C52.8046875,33.0033827 53.7890625,26.8371456 55.3359375,23.6839562 C55.3359375,23.6138853 55.40625,23.5438144 55.40625,23.4737436 L55.40625,23.1233892 C55.40625,22.9832474 55.3359375,22.8431057 55.265625,22.7730348 C55.1953125,22.7029639 55.0546875,22.632893 54.9140625,22.632893 L51.3984375,22.632893 C50.6953125,22.632893 49.9921875,22.7730348 49.359375,23.1233892 L30.796875,32.5128866 L15.8203125,32.4428157 C15.8203125,32.4428157 15.8203125,32.4428157 15.75,32.4428157 C11.6015625,32.4428157 8.2265625,35.8062178 8.15625,40.0104704 C8.15625,44.1446521 11.53125,47.578125 15.6796875,47.578125 L19.265625,47.578125 L19.265625,54.5151418 C17.4375,54.7253544 15.75,55.7063466 14.6953125,57.2479059 C13.921875,58.2989691 12.7265625,58.929607 11.4609375,58.929607 C11.4609375,58.929607 11.4609375,58.929607 11.4609375,58.929607 L10.1953125,58.929607 C10.125,58.8595361 10.0546875,58.7193943 9.9140625,58.6493235 C9.4921875,58.2288982 8.859375,58.0186856 8.15625,58.0887564 C6.609375,58.1588273 4.921875,58.2288982 3.234375,58.2288982 C2.953125,58.2288982 2.7421875,58.4391108 2.7421875,58.7894652 C2.7421875,59.0697487 3.0234375,59.2799613 3.3046875,59.2799613 C4.9921875,59.2799613 6.75,59.2098905 8.4375,59.0697487 C8.7890625,59.0697487 9.140625,59.1398196 9.421875,59.3500322 C9.5625,59.490174 9.703125,59.6303157 9.703125,59.9806701 L9.703125,73.5744201 C9.703125,73.8547036 9.5625,74.0649162 9.421875,74.205058 C9.2109375,74.4152706 8.859375,74.5554124 8.4375,74.4853415 C5.90625,74.3451997 3.4453125,74.2751289 0.984375,74.2751289 C0.703125,74.2751289 0.421875,74.4853415 0.421875,74.8356959 C0.421875,75.1159794 0.6328125,75.3962629 0.984375,75.3962629 C0.984375,75.3962629 0.984375,75.3962629 0.984375,75.3962629 C3.4453125,75.3962629 5.90625,75.4663338 8.3671875,75.6064755 C8.4375,75.6064755 8.5078125,75.6064755 8.5078125,75.6064755 C9.0703125,75.6064755 9.6328125,75.3962629 10.0546875,75.0459085 C10.125,75.0459085 10.125,75.0459085 10.1953125,75.0459085 C10.1953125,75.0459085 11.8125,75.1159794 12.796875,75.6064755 C13.0078125,75.7466173 13.21875,75.8166881 13.4296875,75.9568299 C14.4140625,76.5173969 15.5390625,77.2181057 17.71875,77.7086018 C18.6328125,77.9188144 20.7421875,77.9888853 22.9921875,77.9888853 C26.6484375,77.9888853 30.7265625,77.7786727 30.9375,77.7786727 C30.9375,77.7786727 30.9375,77.7786727 30.9375,77.7786727 C31.7109375,77.7786727 32.34375,77.4983892 32.90625,76.9378222 C33.3984375,76.5173969 33.6796875,75.8166881 33.6796875,75.1159794 Z M9.28125,39.9403995 C9.28125,36.3667848 12.234375,33.423808 15.8203125,33.423808 C15.8203125,33.423808 15.8203125,33.423808 15.8203125,33.423808 L30.9375,33.5639497 C31.0078125,33.5639497 31.078125,33.5639497 31.1484375,33.4938789 L49.078125,24.3145941 L49.7109375,23.9642397 C50.203125,23.6839562 50.765625,23.6138853 51.2578125,23.6138853 L54.140625,23.6138853 C52.6640625,26.9772874 51.75,33.0734536 51.6796875,39.7301869 C51.609375,46.9474871 52.59375,53.3940077 54.28125,56.6873389 L54.28125,56.7574098 L51.1875,56.7574098 C50.625,56.7574098 50.0625,56.617268 49.640625,56.3369845 L31.1484375,46.5971327 C31.078125,46.5270619 31.0078125,46.5270619 30.9375,46.5270619 L26.9296875,46.5270619 C26.9296875,46.5270619 26.859375,46.5270619 26.859375,46.5270619 L20.0390625,46.5270619 C20.0390625,46.5270619 20.0390625,46.5270619 20.0390625,46.5270619 L15.9609375,46.5270619 C12.234375,46.456991 9.28125,43.5140142 9.28125,39.9403995 Z M26.2265625,47.578125 L26.2265625,54.4450709 L20.4609375,54.4450709 L20.4609375,47.578125 L26.2265625,47.578125 Z M32.0625,76.3071843 C31.7109375,76.6575387 31.2890625,76.7976804 30.796875,76.7976804 C30.65625,76.7976804 20.109375,77.2881765 17.7890625,76.7276095 C15.75,76.2371134 14.765625,75.6765464 13.78125,75.1159794 C13.5703125,74.9758376 13.359375,74.8356959 13.1484375,74.765625 C12.3046875,74.2751289 11.1796875,74.1349871 10.546875,74.0649162 C10.546875,73.9247745 10.6171875,73.7846327 10.6171875,73.644491 L10.6171875,60.050741 C10.6171875,60.050741 10.6171875,60.050741 10.6171875,60.050741 L11.53125,60.050741 C11.53125,60.050741 11.53125,60.050741 11.53125,60.050741 C13.1484375,60.050741 14.6953125,59.2799613 15.609375,57.9486147 C16.6640625,56.4771263 18.3515625,55.5662049 20.109375,55.5662049 C20.109375,55.5662049 20.109375,55.5662049 20.109375,55.5662049 L26.015625,55.5662049 C26.015625,55.5662049 26.015625,55.5662049 26.015625,55.5662049 L26.15625,55.5662049 C27.0703125,55.5662049 27.84375,56.3369845 27.84375,57.3179768 C27.84375,57.8084729 27.6328125,58.2288982 27.3515625,58.5091817 C27,58.8595361 26.578125,58.9996778 26.15625,58.9996778 C26.15625,58.9996778 26.15625,58.9996778 26.15625,58.9996778 L22.7109375,58.9996778 C22.7109375,58.9996778 22.7109375,58.9996778 22.7109375,58.9996778 C22.4296875,58.9996778 22.1484375,59.2098905 22.1484375,59.5602448 C22.1484375,59.8405284 22.359375,60.1208119 22.7109375,60.1208119 L26.15625,60.1208119 C26.15625,60.1208119 26.15625,60.1208119 26.15625,60.1208119 C26.296875,60.1208119 26.3671875,60.1208119 26.5078125,60.1208119 C26.578125,60.1208119 26.6484375,60.1208119 26.6484375,60.1208119 L32.4140625,60.1208119 C33.328125,60.1208119 34.1015625,60.8915915 34.1015625,61.8725838 C34.1015625,62.3630799 33.890625,62.7835052 33.609375,63.0637887 C33.2578125,63.414143 32.8359375,63.5542848 32.4140625,63.5542848 C32.4140625,63.5542848 32.4140625,63.5542848 32.4140625,63.5542848 L26.6484375,63.5542848 C26.3671875,63.5542848 26.0859375,63.7644974 26.0859375,64.1148518 C26.0859375,64.3951353 26.296875,64.6754188 26.6484375,64.6754188 C26.6484375,64.6754188 26.6484375,64.6754188 26.6484375,64.6754188 L28.7578125,64.6754188 C28.7578125,64.6754188 28.7578125,64.6754188 28.828125,64.6754188 L34.59375,64.6754188 C35.5078125,64.6754188 36.28125,65.4461985 36.28125,66.4271907 C36.28125,66.9176869 36.0703125,67.3381121 35.7890625,67.6183956 C35.4375,67.96875 35.015625,68.1088918 34.59375,68.1088918 C34.59375,68.1088918 34.59375,68.1088918 34.59375,68.1088918 L32.8359375,68.1088918 C32.8359375,68.1088918 32.765625,68.1088918 32.765625,68.1088918 L27,68.1088918 C26.71875,68.1088918 26.4375,68.3191044 26.4375,68.6694588 C26.4375,68.9497423 26.6484375,69.2300258 27,69.2300258 C27,69.2300258 27,69.2300258 27,69.2300258 L28.828125,69.2300258 C28.828125,69.2300258 28.828125,69.2300258 28.8984375,69.2300258 L32.90625,69.2300258 C33.328125,69.2300258 33.75,69.4402384 34.03125,69.7205219 C34.3828125,70.0708763 34.5234375,70.4913015 34.5234375,70.9117268 C34.5234375,71.4022229 34.3125,71.8226482 34.03125,72.1029317 C33.6796875,72.4532861 33.2578125,72.5934278 32.8359375,72.5934278 C32.8359375,72.5934278 32.8359375,72.5934278 32.8359375,72.5934278 L31.0078125,72.5934278 C31.0078125,72.5934278 31.0078125,72.5934278 31.0078125,72.5934278 L25.6640625,72.5934278 C25.3828125,72.5934278 25.1015625,72.8036405 25.1015625,73.1539948 C25.1015625,73.4342784 25.3125,73.7145619 25.6640625,73.7145619 L27.0703125,73.7145619 C27.0703125,73.7145619 27.0703125,73.7145619 27.0703125,73.7145619 L31.0078125,73.7145619 C31.9921875,73.7145619 32.6953125,74.4152706 32.6953125,75.3962629 C32.625,75.5364046 32.4140625,75.9568299 32.0625,76.3071843 Z" id="Shape"></path>
                    <path d="M58.359375,26.5568621 L65.8828125,26.5568621 C65.8828125,26.5568621 65.8828125,26.5568621 65.8828125,26.5568621 C66.1640625,26.5568621 66.4453125,26.3466495 66.4453125,25.9962951 C66.4453125,25.7160116 66.234375,25.4357281 65.8828125,25.4357281 L58.359375,25.4357281 C58.359375,25.4357281 58.359375,25.4357281 58.359375,25.4357281 C58.078125,25.4357281 57.796875,25.6459407 57.796875,25.9962951 C57.8671875,26.3466495 58.078125,26.5568621 58.359375,26.5568621 Z" id="Shape"></path>
                    <path d="M58.359375,33.6340206 L68.765625,33.6340206 C68.765625,33.6340206 68.765625,33.6340206 68.765625,33.6340206 C69.046875,33.6340206 69.328125,33.423808 69.328125,33.0734536 C69.328125,32.7931701 69.1171875,32.5128866 68.765625,32.5128866 L58.359375,32.5128866 C58.078125,32.5128866 57.796875,32.7230992 57.796875,33.0734536 C57.796875,33.423808 58.078125,33.6340206 58.359375,33.6340206 Z" id="Shape"></path>
                    <path d="M69.609375,40.7111791 C69.890625,40.7111791 70.171875,40.5009665 70.171875,40.1506121 C70.171875,39.8703286 69.9609375,39.5900451 69.609375,39.5900451 L58.359375,39.5900451 C58.078125,39.5900451 57.796875,39.8002577 57.796875,40.1506121 C57.796875,40.4308956 58.0078125,40.7111791 58.359375,40.7111791 L69.609375,40.7111791 Z" id="Shape"></path>
                    <path d="M68.765625,47.7883376 C69.046875,47.7883376 69.328125,47.578125 69.328125,47.2277706 C69.328125,46.9474871 69.1171875,46.6672036 68.765625,46.6672036 L58.359375,46.6672036 C58.078125,46.6672036 57.796875,46.8774162 57.796875,47.2277706 C57.796875,47.5080541 58.0078125,47.7883376 58.359375,47.7883376 L68.765625,47.7883376 C68.765625,47.7883376 68.765625,47.7883376 68.765625,47.7883376 Z" id="Shape"></path>
                    <path d="M65.8828125,54.8654961 C66.1640625,54.8654961 66.4453125,54.6552835 66.4453125,54.3049291 C66.4453125,54.0246456 66.234375,53.7443621 65.8828125,53.7443621 L58.359375,53.7443621 C58.078125,53.7443621 57.796875,53.9545747 57.796875,54.3049291 C57.796875,54.5852126 58.0078125,54.8654961 58.359375,54.8654961 L65.8828125,54.8654961 C65.8828125,54.8654961 65.8828125,54.8654961 65.8828125,54.8654961 Z" id="Shape"></path>
                    <path d="M36.140625,35.666076 C36.2109375,35.666076 36.28125,35.666076 36.3515625,35.5960052 L48.1640625,29.5699098 C48.4453125,29.429768 48.515625,29.1494845 48.375,28.869201 C48.234375,28.5889175 47.953125,28.5188466 47.671875,28.6589884 L35.859375,34.6850838 C35.578125,34.8252255 35.5078125,35.105509 35.6484375,35.3857925 C35.7890625,35.5259343 35.9296875,35.666076 36.140625,35.666076 Z" id="Shape"></path>
                    <path d="M6.75,72.1029317 C7.03125,72.1029317 7.3125,71.8927191 7.3125,71.5423647 L7.3125,69.1599549 C7.3125,68.8796714 7.1015625,68.5993879 6.75,68.5993879 C6.75,68.5993879 6.75,68.5993879 6.75,68.5993879 C6.46875,68.5993879 6.1875,68.8096005 6.1875,69.1599549 L6.1875,71.5423647 C6.2578125,71.8226482 6.46875,72.1029317 6.75,72.1029317 Z" id="Shape"></path>
                    <path d="M75.1640625,18.9892075 C74.671875,18.5687822 74.390625,18.0082152 74.390625,17.4476482 C74.390625,17.1673647 74.1796875,16.8870812 73.828125,16.8870812 C73.546875,16.8870812 73.265625,17.0972938 73.265625,17.4476482 C73.265625,18.3585696 73.6875,19.1994201 74.390625,19.7599871 C74.953125,20.2504832 75.65625,20.5307668 76.4296875,20.6709085 L76.4296875,22.1423969 C76.4296875,22.4226804 76.640625,22.7029639 76.9921875,22.7029639 C77.2734375,22.7029639 77.5546875,22.4927513 77.5546875,22.1423969 L77.5546875,20.6709085 C78.328125,20.6008376 79.03125,20.2504832 79.59375,19.7599871 C80.296875,19.1293492 80.71875,18.2884987 80.71875,17.4476482 C80.71875,16.5367268 80.296875,15.6958763 79.59375,15.1353093 C79.03125,14.6448131 78.328125,14.3645296 77.5546875,14.2243879 L77.5546875,9.80992268 C78.046875,9.87999356 78.5390625,10.0902062 78.9609375,10.4405606 C79.453125,10.8609858 79.734375,11.4215528 79.734375,11.9821198 C79.734375,12.2624034 79.9453125,12.5426869 80.296875,12.5426869 C80.578125,12.5426869 80.859375,12.3324742 80.859375,11.9821198 C80.859375,11.0711985 80.4375,10.2303479 79.734375,9.66978093 C79.171875,9.17928479 78.46875,8.89900129 77.6953125,8.75885954 L77.6953125,7.28737113 C77.6953125,7.00708763 77.484375,6.72680412 77.1328125,6.72680412 C76.8515625,6.72680412 76.5703125,6.93701675 76.5703125,7.28737113 L76.5703125,8.75885954 C75.796875,8.82893041 75.09375,9.17928479 74.53125,9.66978093 C73.828125,10.3004188 73.40625,11.1412693 73.40625,11.9821198 C73.40625,12.8930412 73.828125,13.7338918 74.53125,14.2944588 C75.09375,14.7849549 75.796875,15.0652384 76.5703125,15.2053802 L76.5703125,19.6198454 C76.0078125,19.4797036 75.515625,19.3395619 75.1640625,18.9892075 Z M78.9609375,15.9060889 C79.453125,16.3265142 79.734375,16.8870812 79.734375,17.4476482 C79.734375,18.0082152 79.453125,18.5687822 78.9609375,18.9892075 C78.609375,19.3395619 78.1171875,19.5497745 77.5546875,19.6198454 L77.5546875,15.275451 C78.1171875,15.3455219 78.609375,15.5557345 78.9609375,15.9060889 Z M75.1640625,13.5236791 C74.671875,13.1032539 74.390625,12.5426869 74.390625,11.9821198 C74.390625,11.4215528 74.671875,10.8609858 75.1640625,10.4405606 C75.515625,10.0902062 76.0078125,9.87999356 76.5703125,9.80992268 L76.5703125,14.154317 C76.0078125,14.0141753 75.515625,13.8039626 75.1640625,13.5236791 Z" id="Shape"></path>
                    <path d="M71.0859375,25.2255155 C71.0859375,25.5758698 70.734375,26.7670747 70.3125,27.748067 C70.2421875,27.8882088 70.2421875,28.0283505 70.3125,28.1684923 C70.3828125,28.308634 70.453125,28.3787049 70.59375,28.4487758 C70.6640625,28.4487758 70.734375,28.5188466 70.875,28.5188466 C71.296875,28.5188466 71.9296875,28.1684923 73.1953125,27.4677835 C73.7578125,27.1875 74.53125,26.6970039 74.8125,26.626933 C80.578125,27.8181379 86.484375,24.4547358 88.453125,18.9191366 C90.703125,12.6828286 87.46875,5.81588273 81.2109375,3.57361469 C74.953125,1.33134665 68.0625,4.55460696 65.8125,10.7909149 C63.84375,16.2564433 66.0234375,22.2825387 71.0859375,25.2255155 Z M66.796875,11.1412693 C68.4140625,6.65673325 72.6328125,3.92396907 77.1328125,3.92396907 C78.328125,3.92396907 79.59375,4.1341817 80.859375,4.55460696 C86.5546875,6.58666237 89.5078125,12.8930412 87.46875,18.5687822 C85.640625,23.6839562 80.2265625,26.6970039 74.953125,25.5758698 C74.53125,25.505799 74.0390625,25.7860825 72.6328125,26.5568621 C72.3515625,26.6970039 72,26.9072165 71.71875,27.1174291 C72.4921875,24.8751611 71.9296875,24.5248067 71.71875,24.3846649 C67.078125,21.7219716 64.96875,16.1863724 66.796875,11.1412693 Z" id="Shape"></path>
                    <path d="M7.1015625,25.0153028 C8.0859375,25.4357281 9.140625,25.5758698 10.125,25.5758698 C11.1796875,25.5758698 12.234375,25.3656572 13.2890625,24.945232 C15.2578125,24.1043814 16.8046875,22.5628222 17.6484375,20.5307668 C18.4921875,18.5687822 18.421875,16.3265142 17.578125,14.3645296 C16.734375,12.4025451 15.1875,10.8609858 13.1484375,10.0201353 C11.1796875,9.17928479 8.9296875,9.24935567 6.9609375,10.0902062 C4.9921875,10.9310567 3.4453125,12.472616 2.6015625,14.5046714 C1.7578125,16.4666559 1.828125,18.708924 2.671875,20.6709085 C3.515625,22.632893 5.1328125,24.1744523 7.1015625,25.0153028 Z M3.65625,14.9250966 C4.359375,13.1733247 5.6953125,11.8419781 7.453125,11.1412693 C8.296875,10.7909149 9.28125,10.5807023 10.1953125,10.5807023 C11.109375,10.5807023 11.953125,10.7208441 12.796875,11.0711985 C14.5546875,11.7719072 15.890625,13.1032539 16.59375,14.8550258 C17.296875,16.6067977 17.3671875,18.4987113 16.6640625,20.1804124 C15.9609375,21.9321843 14.625,23.2635309 12.8671875,23.9642397 C11.109375,24.6649485 9.2109375,24.7350193 7.5234375,24.0343106 C5.765625,23.3336018 4.4296875,22.0022552 3.7265625,20.2504832 C2.953125,18.5687822 2.953125,16.6768686 3.65625,14.9250966 Z" id="Shape"></path>
                    <path d="M5.765625,19.3395619 C5.6953125,19.4797036 5.6953125,19.6198454 5.765625,19.7599871 C6.5390625,21.6519008 8.3671875,22.7730348 10.265625,22.7730348 C10.8984375,22.7730348 11.53125,22.632893 12.1640625,22.3526095 C14.6953125,21.3015464 15.8203125,18.4286405 14.765625,15.9060889 C14.6953125,15.7659472 14.625,15.6958763 14.484375,15.6258054 C14.34375,15.5557345 14.203125,15.5557345 14.0625,15.6258054 L6.046875,19.0592784 C5.90625,19.1293492 5.765625,19.1994201 5.765625,19.3395619 Z M13.9921875,16.8870812 C14.203125,17.6578608 14.1328125,18.5687822 13.8515625,19.3395619 C13.4296875,20.3205541 12.7265625,21.0212629 11.8125,21.4416881 C9.984375,22.2124678 7.9453125,21.511759 7.03125,19.9001289 L13.9921875,16.8870812 Z" id="Shape"></path>
                    <path d="M9.9140625,14.7849549 C9.984375,14.7849549 10.0546875,14.8550258 10.125,14.8550258 C10.3359375,14.8550258 10.546875,14.714884 10.6171875,14.5046714 C11.109375,13.3835374 12.1640625,13.6638209 12.375,13.7338918 C12.65625,13.8039626 12.9375,13.7338918 13.078125,13.4536082 C13.1484375,13.1733247 13.078125,12.8930412 12.796875,12.7528995 C12.0234375,12.472616 10.40625,12.3324742 9.703125,14.0842461 C9.4921875,14.3645296 9.6328125,14.714884 9.9140625,14.7849549 Z" id="Shape"></path>
                    <path d="M5.203125,16.7469394 C5.2734375,16.8170103 5.34375,16.8170103 5.4140625,16.8170103 C5.625,16.8170103 5.8359375,16.6768686 5.90625,16.4666559 C6.3984375,15.3455219 7.453125,15.6258054 7.6640625,15.6958763 C7.9453125,15.7659472 8.2265625,15.6958763 8.3671875,15.4155928 C8.4375,15.1353093 8.3671875,14.8550258 8.0859375,14.714884 C7.2421875,14.5046714 5.625,14.3645296 4.921875,16.1163015 C4.78125,16.3265142 4.921875,16.6768686 5.203125,16.7469394 Z" id="Shape"></path>
                    <path d="M80.6484375,48.5591173 C80.5078125,48.4189755 80.3671875,48.3489046 80.2265625,48.3489046 C80.0859375,48.3489046 79.875,48.4890464 79.8046875,48.6291881 C79.03125,49.8904639 78.3984375,50.9415271 77.6953125,51.9925902 C77.0625,52.9035116 76.5,53.8845039 75.796875,55.0056379 C75.65625,55.2859214 75.7265625,55.5662049 75.9375,55.7063466 C76.0078125,55.7764175 76.1484375,55.7764175 76.21875,55.7764175 C76.4296875,55.7764175 76.5703125,55.7063466 76.640625,55.496134 C77.34375,54.375 77.9765625,53.3940077 78.5390625,52.4830863 C79.03125,51.7823776 79.453125,51.0115979 79.9453125,50.3108892 C80.4375,53.1837951 80.15625,56.3369845 79.03125,59.5602448 C79.03125,59.5602448 79.03125,59.5602448 79.03125,59.5602448 C78.46875,61.3120168 77.625,63.0637887 76.640625,64.7454897 C76.640625,64.7454897 76.640625,64.7454897 76.640625,64.7454897 C76.640625,64.7454897 76.640625,64.7454897 76.640625,64.7454897 C75.09375,67.2680412 73.1953125,69.5803802 70.9453125,71.6825064 C70.9453125,71.6825064 70.9453125,71.6825064 70.9453125,71.6825064 C70.9453125,71.6825064 70.9453125,71.6825064 70.9453125,71.6825064 C69.1875,73.2941366 67.2890625,74.6955541 65.25,75.8166881 C65.25,75.8166881 65.25,75.8166881 65.25,75.8166881 C63.4921875,76.8677513 61.5234375,77.7086018 59.484375,78.4093106 C59.1328125,78.5494523 58.78125,78.6195232 58.4296875,78.7596649 C58.4296875,78.7596649 58.4296875,78.7596649 58.4296875,78.7596649 C56.953125,79.2501611 55.3359375,79.6005155 53.7890625,79.880799 C53.7890625,79.880799 53.7890625,79.880799 53.7890625,79.880799 C51.8203125,80.2311534 49.78125,80.441366 47.7421875,80.441366 C47.4609375,80.441366 47.25,80.6515786 47.25,81.001933 C47.25,81.2822165 47.4609375,81.4924291 47.8125,81.4924291 C47.8125,81.4924291 47.8125,81.4924291 47.8125,81.4924291 C49.7109375,81.4924291 51.5390625,81.2822165 53.3671875,81.001933 L53.3671875,85.2061856 C53.3671875,85.4864691 53.578125,85.7667526 53.9296875,85.7667526 L59.765625,85.7667526 C59.8359375,85.7667526 59.8359375,85.7667526 59.90625,85.7667526 L65.6015625,85.7667526 C65.6015625,85.7667526 65.6015625,85.7667526 65.6015625,85.7667526 C65.6015625,85.7667526 65.6015625,85.7667526 65.6015625,85.7667526 L71.296875,85.7667526 C71.3671875,85.7667526 71.3671875,85.7667526 71.4375,85.7667526 L77.2734375,85.7667526 C77.2734375,85.7667526 77.34375,85.7667526 77.34375,85.7667526 L83.109375,85.7667526 C83.390625,85.7667526 83.671875,85.5565399 83.671875,85.2061856 L83.671875,59.8405284 C83.671875,59.5602448 83.4609375,59.2799613 83.109375,59.2799613 L80.4375,59.2799613 C81.3515625,56.3369845 81.6328125,53.4640786 81.28125,50.8714562 C82.265625,52.132732 83.390625,53.6742912 84.5859375,55.6362758 C84.7265625,55.9165593 85.078125,55.9866302 85.2890625,55.7764175 C85.5703125,55.6362758 85.640625,55.2859214 85.4296875,55.0757088 C83.53125,52.2028028 81.984375,50.1707474 80.6484375,48.5591173 Z M54.3515625,81.001933 C55.828125,80.7216495 57.3046875,80.3712951 58.7109375,79.9508698 C58.7109375,79.9508698 58.7109375,79.9508698 58.7109375,79.9508698 C58.8515625,79.880799 58.9921875,79.880799 59.1328125,79.8107281 L59.1328125,84.9259021 L54.3515625,84.9259021 L54.3515625,81.001933 Z M64.96875,84.7857603 L60.1875,84.7857603 L60.1875,79.3903028 C61.875,78.7596649 63.421875,78.0589562 64.96875,77.2881765 L64.96875,84.7857603 Z M66.0234375,76.6575387 C67.7109375,75.6765464 69.328125,74.5554124 70.8046875,73.2941366 L70.8046875,84.7857603 L66.0234375,84.7857603 L66.0234375,76.6575387 Z M71.859375,72.3832152 C73.6875,70.7015142 75.234375,68.8796714 76.640625,66.9176869 L76.640625,84.8558312 L71.859375,84.8558312 L71.859375,72.3832152 Z M82.40625,84.7857603 L77.625,84.7857603 L77.625,65.1659149 C78.5390625,63.5542848 79.3125,61.9426546 79.9453125,60.2609536 L82.40625,60.2609536 L82.40625,84.7857603 Z" id="Shape"></path>
                    <path d="M23.6953125,19.0592784 C25.1015625,19.0592784 26.578125,19.1293492 27.984375,19.1994201 C28.0546875,19.1994201 28.0546875,19.1994201 28.125,19.1994201 C28.4765625,19.1994201 28.828125,19.0592784 29.0390625,18.9191366 C29.0390625,18.9191366 29.0390625,18.9191366 29.0390625,18.9191366 C29.3203125,18.9191366 30.0234375,18.9892075 30.4453125,19.1994201 C30.5859375,19.269491 30.65625,19.3395619 30.796875,19.4096327 C31.359375,19.7599871 32.0625,20.1804124 33.3984375,20.4606959 C33.9609375,20.6008376 35.2265625,20.6008376 36.5625,20.6008376 C38.6015625,20.6008376 40.921875,20.5307668 41.2734375,20.4606959 C41.2734375,20.4606959 41.2734375,20.4606959 41.2734375,20.4606959 C42.2578125,20.4606959 43.1015625,19.6198454 43.1015625,18.6388531 C43.1015625,18.3585696 43.03125,18.148357 42.9609375,17.8680735 C43.875,17.7980026 44.6484375,17.0272229 44.6484375,16.0462307 C44.6484375,15.6258054 44.5078125,15.275451 44.296875,14.9951675 C44.4375,14.9250966 44.5078125,14.8550258 44.578125,14.714884 C44.9296875,14.3645296 45.140625,13.8740335 45.140625,13.3835374 C45.140625,12.8930412 44.9296875,12.472616 44.6484375,12.1923325 C44.71875,12.1222616 44.71875,12.1222616 44.7890625,12.0521907 C45.140625,11.7018363 45.3515625,11.2113402 45.3515625,10.7909149 C45.3515625,10.3004188 45.140625,9.80992268 44.7890625,9.4595683 C44.4375,9.10921392 43.9453125,8.89900129 43.453125,8.89900129 L38.953125,8.89900129 C38.8828125,8.75885954 38.6015625,8.05815077 39.1640625,5.46552835 C39.4453125,4.27432345 39.3046875,3.29333119 38.7421875,2.52255155 C38.0390625,1.4714884 36.7734375,1.26127577 36.0703125,1.12113402 C35.7890625,1.12113402 35.4375,1.1912049 35.2265625,1.4714884 C35.015625,1.75177191 34.9453125,2.03205541 35.0859375,2.38240979 C35.296875,2.9429768 35.4375,5.46552835 34.875,6.51659149 C33.8203125,6.37644974 32.1328125,6.51659149 31.4296875,7.9880799 C31.0078125,8.54864691 30.4453125,8.82893041 29.7421875,8.82893041 C29.7421875,8.82893041 29.7421875,8.82893041 29.7421875,8.82893041 L29.109375,8.82893041 C29.109375,8.75885954 29.0390625,8.75885954 29.0390625,8.68878866 C28.7578125,8.40850515 28.3359375,8.2683634 27.84375,8.2683634 C26.859375,8.33843428 25.875,8.33843428 24.890625,8.40850515 C24.609375,8.40850515 24.3984375,8.61871778 24.3984375,8.96907216 C24.3984375,9.24935567 24.609375,9.4595683 24.9609375,9.4595683 C24.9609375,9.4595683 24.9609375,9.4595683 24.9609375,9.4595683 C25.9453125,9.4595683 27,9.38949742 27.984375,9.31942655 C28.125,9.31942655 28.265625,9.31942655 28.40625,9.4595683 C28.4765625,9.52963918 28.4765625,9.59971005 28.4765625,9.66978093 L28.4765625,17.5877899 C28.4765625,17.6578608 28.4765625,17.7279317 28.40625,17.7980026 C28.3359375,17.8680735 28.1953125,17.9381443 27.984375,17.9381443 C26.578125,17.8680735 25.1015625,17.7980026 23.6953125,17.7980026 C23.4140625,17.7980026 23.1328125,18.0082152 23.1328125,18.3585696 C23.203125,18.8490657 23.4140625,19.0592784 23.6953125,19.0592784 Z M29.953125,10.0902062 C31.0078125,10.0902062 31.921875,9.59971005 32.5546875,8.75885954 C32.5546875,8.75885954 32.625,8.68878866 32.625,8.68878866 C33.2578125,7.35744201 35.15625,7.77786727 35.2265625,7.84793814 C35.4375,7.91800902 35.6484375,7.84793814 35.7890625,7.70779639 C36.84375,6.44652062 36.6328125,3.43347294 36.421875,2.45248067 C36.9140625,2.52255155 37.6875,2.73276418 38.1796875,3.36340206 C38.53125,3.8538982 38.6015625,4.55460696 38.390625,5.39545747 C37.8984375,7.63772552 37.8984375,9.10921392 38.390625,9.7398518 C38.4609375,9.95006443 38.671875,10.1602771 38.8828125,10.1602771 L43.6640625,10.1602771 C43.875,10.1602771 44.0859375,10.2303479 44.2265625,10.3704897 C44.3671875,10.5106314 44.4375,10.7208441 44.4375,10.9310567 C44.4375,11.1412693 44.3671875,11.351482 44.2265625,11.4916237 C44.0859375,11.6317655 43.875,11.7018363 43.6640625,11.7018363 C43.6640625,11.7018363 43.6640625,11.7018363 43.6640625,11.7018363 L38.8828125,11.7018363 C38.6015625,11.7018363 38.3203125,11.912049 38.3203125,12.2624034 C38.3203125,12.5426869 38.53125,12.8229704 38.8828125,12.8229704 L40.078125,12.8229704 C40.078125,12.8229704 40.078125,12.8229704 40.078125,12.8229704 L43.453125,12.8229704 C43.875,12.8229704 44.2265625,13.1733247 44.2265625,13.59375 C44.2265625,13.8039626 44.15625,14.0141753 44.015625,14.154317 C43.875,14.2944588 43.6640625,14.3645296 43.453125,14.3645296 C43.453125,14.3645296 43.453125,14.3645296 43.453125,14.3645296 L42.9609375,14.3645296 C42.9609375,14.3645296 42.9609375,14.3645296 42.9609375,14.3645296 L39.0234375,14.3645296 C38.7421875,14.3645296 38.4609375,14.5747423 38.4609375,14.9250966 C38.4609375,15.2053802 38.671875,15.4856637 39.0234375,15.4856637 C39.0234375,15.4856637 39.0234375,15.4856637 39.0234375,15.4856637 L40.078125,15.4856637 C40.078125,15.4856637 40.078125,15.4856637 40.078125,15.4856637 C40.078125,15.4856637 40.078125,15.4856637 40.078125,15.4856637 L42.9609375,15.4856637 C43.171875,15.4856637 43.3828125,15.5557345 43.5234375,15.6958763 C43.6640625,15.836018 43.734375,16.0462307 43.734375,16.2564433 C43.734375,16.6768686 43.3828125,17.0272229 42.9609375,17.0272229 L41.484375,17.0272229 C41.484375,17.0272229 41.484375,17.0272229 41.484375,17.0272229 L38.25,17.0272229 C37.96875,17.0272229 37.6875,17.2374356 37.6875,17.5877899 C37.6875,17.8680735 37.8984375,18.148357 38.25,18.148357 L39.09375,18.148357 C39.09375,18.148357 39.09375,18.148357 39.09375,18.148357 L41.5546875,18.148357 C41.765625,18.148357 41.9765625,18.2184278 42.1171875,18.3585696 C42.2578125,18.4987113 42.328125,18.708924 42.328125,18.9191366 C42.328125,19.3395619 41.9765625,19.6899162 41.5546875,19.6899162 C39.796875,19.7599871 35.015625,19.9001289 33.890625,19.6899162 C32.6953125,19.4096327 32.1328125,19.0592784 31.640625,18.7789948 C31.5,18.708924 31.359375,18.6388531 31.2890625,18.5687822 C30.8671875,18.3585696 30.3046875,18.2184278 29.8828125,18.148357 C29.8828125,18.148357 29.8828125,18.148357 29.8828125,18.0782861 L29.8828125,10.3704897 L29.953125,10.0902062 C29.953125,10.0902062 29.953125,10.0902062 29.953125,10.0902062 Z" id="Shape"></path>
                </g>
            </g>
        </g>
    </g>
</svg>