
<svg width="92px" height="92px" viewBox="0 0 92 92" version="1.1" xmlns="http://www.w3.org/2000/svg" xmlns:xlink="http://www.w3.org/1999/xlink">
    <!-- Generator: Sketch 51.3 (57544) - http://www.bohemiancoding.com/sketch -->
    <desc>Created with Sketch.</desc>
    <defs></defs>
    <g id="website-icons" stroke="none" stroke-width="1" fill="none" fill-rule="evenodd">
        <g id="icons" transform="translate(-751.000000, -1893.000000)">
            <g id="customer-3" transform="translate(751.000000, 1893.000000)">
                <circle id="Oval-2-Copy" fill="#21ce99" transform="translate(50.000000, 50.000000) scale(-1, 1) translate(-50.000000, -50.000000) " cx="50" cy="50" r="11"></circle>
                <g id="Group-Copy-6" fill="#000000" fill-rule="nonzero">
                    <g id="Group" transform="translate(7.906250, 8.625000)">
                        <g transform="translate(30.187500, 9.343750)" id="Shape">
                            <g>
                                <path d="M2.084375,2.44375 C1.940625,2.44375 1.796875,2.371875 1.725,2.3 L0.790625,1.4375 C0.575,1.221875 0.575,0.8625 0.790625,0.646875 C1.00625,0.43125 1.365625,0.43125 1.58125,0.646875 L2.44375,1.509375 C2.659375,1.725 2.659375,2.084375 2.44375,2.3 C2.3,2.44375 2.228125,2.44375 2.084375,2.44375 Z"></path>
                                <path d="M4.815625,5.246875 C4.671875,5.246875 4.528125,5.175 4.45625,5.103125 L3.59375,4.240625 C3.378125,4.025 3.378125,3.665625 3.59375,3.45 C3.809375,3.234375 4.16875,3.234375 4.384375,3.45 L5.246875,4.3125 C5.4625,4.528125 5.4625,4.8875 5.246875,5.103125 C5.103125,5.175 4.959375,5.246875 4.815625,5.246875 Z"></path>
                            </g>
                            <g>
                                <path d="M1.221875,5.246875 C1.078125,5.246875 0.934375,5.175 0.8625,5.103125 C0.646875,4.8875 0.646875,4.528125 0.8625,4.3125 L1.725,3.45 C1.940625,3.234375 2.3,3.234375 2.515625,3.45 C2.73125,3.665625 2.73125,4.025 2.515625,4.240625 L1.653125,5.103125 C1.509375,5.175 1.365625,5.246875 1.221875,5.246875 Z"></path>
                                <path d="M3.953125,2.44375 C3.809375,2.44375 3.665625,2.371875 3.59375,2.3 C3.378125,2.084375 3.378125,1.725 3.59375,1.509375 L4.45625,0.646875 C4.671875,0.43125 5.03125,0.43125 5.246875,0.646875 C5.4625,0.8625 5.4625,1.221875 5.246875,1.4375 L4.3125,2.3 C4.240625,2.44375 4.096875,2.44375 3.953125,2.44375 Z"></path>
                            </g>
                        </g>
                        <g transform="translate(65.406250, 2.156250)" id="Shape">
                            <g>
                                <path d="M1.509375,2.084375 C1.365625,2.084375 1.221875,2.0125 1.15,1.940625 L0.2875,1.078125 C0.071875,0.8625 0.071875,0.503125 0.2875,0.2875 C0.503125,0.071875 0.8625,0.071875 1.078125,0.2875 L1.940625,1.15 C2.15625,1.365625 2.15625,1.725 1.940625,1.940625 C1.796875,2.0125 1.653125,2.084375 1.509375,2.084375 Z"></path>
                                <path d="M4.3125,4.815625 C4.16875,4.815625 4.025,4.74375 3.953125,4.671875 L3.090625,3.809375 C2.875,3.59375 2.875,3.234375 3.090625,3.01875 C3.30625,2.803125 3.665625,2.803125 3.88125,3.01875 L4.74375,3.88125 C4.959375,4.096875 4.959375,4.45625 4.74375,4.671875 C4.6,4.815625 4.45625,4.815625 4.3125,4.815625 Z"></path>
                            </g>
                            <g>
                                <path d="M0.71875,4.815625 C0.575,4.815625 0.43125,4.74375 0.359375,4.671875 C0.14375,4.45625 0.14375,4.096875 0.359375,3.88125 L1.221875,3.01875 C1.4375,2.803125 1.796875,2.803125 2.0125,3.01875 C2.228125,3.234375 2.228125,3.59375 2.0125,3.809375 L1.15,4.671875 C0.934375,4.815625 0.790625,4.815625 0.71875,4.815625 Z"></path>
                                <path d="M3.45,2.084375 C3.30625,2.084375 3.1625,2.0125 3.090625,1.940625 C2.875,1.725 2.875,1.365625 3.090625,1.15 L3.953125,0.2875 C4.16875,0.071875 4.528125,0.071875 4.74375,0.2875 C4.959375,0.503125 4.959375,0.8625 4.74375,1.078125 L3.88125,1.940625 C3.7375,2.0125 3.59375,2.084375 3.45,2.084375 Z"></path>
                            </g>
                        </g>
                        <g transform="translate(53.187500, 34.500000)" id="Shape">
                            <g>
                                <path d="M1.58125,2.371875 C1.4375,2.371875 1.29375,2.3 1.221875,2.228125 L0.359375,1.365625 C0.14375,1.15 0.14375,0.790625 0.359375,0.575 C0.575,0.359375 0.934375,0.359375 1.15,0.575 L2.0125,1.4375 C2.228125,1.653125 2.228125,2.0125 2.0125,2.228125 C1.86875,2.3 1.725,2.371875 1.58125,2.371875 Z"></path>
                                <path d="M4.3125,5.103125 C4.16875,5.103125 4.025,5.03125 3.953125,4.959375 L3.090625,4.096875 C2.875,3.88125 2.875,3.521875 3.090625,3.30625 C3.30625,3.090625 3.665625,3.090625 3.88125,3.30625 L4.74375,4.16875 C4.959375,4.384375 4.959375,4.74375 4.74375,4.959375 C4.6,5.103125 4.45625,5.103125 4.3125,5.103125 Z"></path>
                            </g>
                            <g>
                                <path d="M0.71875,5.103125 C0.575,5.103125 0.43125,5.03125 0.359375,4.959375 C0.14375,4.74375 0.14375,4.384375 0.359375,4.16875 L1.221875,3.30625 C1.4375,3.090625 1.796875,3.090625 2.0125,3.30625 C2.228125,3.521875 2.228125,3.88125 2.0125,4.096875 L1.15,4.959375 C1.00625,5.103125 0.8625,5.103125 0.71875,5.103125 Z"></path>
                                <path d="M3.45,2.371875 C3.30625,2.371875 3.1625,2.3 3.090625,2.228125 C2.875,2.0125 2.875,1.653125 3.090625,1.4375 L3.953125,0.575 C4.16875,0.359375 4.528125,0.359375 4.74375,0.575 C4.959375,0.790625 4.959375,1.15 4.74375,1.365625 L3.88125,2.228125 C3.7375,2.3 3.59375,2.371875 3.45,2.371875 Z"></path>
                            </g>
                        </g>
                        <g transform="translate(68.281250, 48.156250)" id="Shape">
                            <g>
                                <path d="M1.725,2.5875 C1.58125,2.5875 1.4375,2.515625 1.365625,2.44375 L0.503125,1.58125 C0.2875,1.365625 0.2875,1.00625 0.503125,0.790625 C0.71875,0.575 1.078125,0.575 1.29375,0.790625 L2.15625,1.653125 C2.371875,1.86875 2.371875,2.228125 2.15625,2.44375 C2.0125,2.515625 1.86875,2.5875 1.725,2.5875 Z"></path>
                                <path d="M4.528125,5.31875 C4.384375,5.31875 4.240625,5.246875 4.16875,5.175 L3.30625,4.3125 C3.090625,4.096875 3.090625,3.7375 3.30625,3.521875 C3.521875,3.30625 3.88125,3.30625 4.096875,3.521875 L4.959375,4.384375 C5.175,4.6 5.175,4.959375 4.959375,5.175 C4.74375,5.246875 4.6,5.31875 4.528125,5.31875 Z"></path>
                            </g>
                            <g>
                                <path d="M0.8625,5.31875 C0.71875,5.31875 0.575,5.246875 0.503125,5.175 C0.2875,4.959375 0.2875,4.6 0.503125,4.384375 L1.365625,3.521875 C1.58125,3.30625 1.940625,3.30625 2.15625,3.521875 C2.371875,3.7375 2.371875,4.096875 2.15625,4.3125 L1.29375,5.175 C1.15,5.246875 1.00625,5.31875 0.8625,5.31875 Z"></path>
                                <path d="M3.665625,2.5875 C3.521875,2.5875 3.378125,2.515625 3.30625,2.44375 C3.090625,2.228125 3.090625,1.86875 3.30625,1.653125 L4.16875,0.790625 C4.384375,0.575 4.74375,0.575 4.959375,0.790625 C5.175,1.00625 5.175,1.365625 4.959375,1.58125 L4.096875,2.44375 C3.953125,2.515625 3.809375,2.5875 3.665625,2.5875 Z"></path>
                            </g>
                        </g>
                        <g transform="translate(35.218750, 51.750000)" id="Shape">
                            <g>
                                <path d="M2.084375,2.44375 C1.940625,2.44375 1.796875,2.371875 1.725,2.3 L0.8625,1.4375 C0.646875,1.221875 0.646875,0.8625 0.8625,0.646875 C1.078125,0.43125 1.4375,0.43125 1.653125,0.646875 L2.515625,1.509375 C2.73125,1.725 2.73125,2.084375 2.515625,2.3 C2.371875,2.371875 2.228125,2.44375 2.084375,2.44375 Z"></path>
                                <path d="M4.815625,5.175 C4.671875,5.175 4.528125,5.103125 4.45625,5.03125 L3.59375,4.16875 C3.378125,3.953125 3.378125,3.59375 3.59375,3.378125 C3.809375,3.1625 4.16875,3.1625 4.384375,3.378125 L5.246875,4.240625 C5.4625,4.45625 5.4625,4.815625 5.246875,5.03125 C5.103125,5.175 4.959375,5.175 4.815625,5.175 Z"></path>
                            </g>
                            <g>
                                <path d="M1.221875,5.175 C1.078125,5.175 0.934375,5.103125 0.8625,5.03125 C0.646875,4.815625 0.646875,4.45625 0.8625,4.240625 L1.725,3.378125 C1.940625,3.1625 2.3,3.1625 2.515625,3.378125 C2.73125,3.59375 2.73125,3.953125 2.515625,4.16875 L1.58125,5.03125 C1.509375,5.175 1.365625,5.175 1.221875,5.175 Z"></path>
                                <path d="M3.953125,2.44375 C3.809375,2.44375 3.665625,2.371875 3.59375,2.3 C3.378125,2.084375 3.378125,1.725 3.59375,1.509375 L4.45625,0.646875 C4.671875,0.43125 5.03125,0.43125 5.246875,0.646875 C5.4625,0.8625 5.4625,1.221875 5.246875,1.4375 L4.384375,2.3 C4.240625,2.371875 4.096875,2.44375 3.953125,2.44375 Z"></path>
                            </g>
                        </g>
                        <g transform="translate(19.406250, 36.656250)" id="Shape">
                            <g>
                                <path d="M1.58125,2.0125 C1.4375,2.0125 1.29375,1.940625 1.221875,1.86875 L0.359375,1.00625 C0.14375,0.790625 0.14375,0.43125 0.359375,0.215625 C0.575,-4.01761957e-15 0.934375,-4.01761957e-15 1.15,0.215625 L2.0125,1.078125 C2.228125,1.29375 2.228125,1.653125 2.0125,1.86875 C1.86875,1.940625 1.725,2.0125 1.58125,2.0125 Z"></path>
                                <path d="M4.384375,4.815625 C4.240625,4.815625 4.096875,4.74375 4.025,4.671875 L3.1625,3.809375 C2.946875,3.59375 2.946875,3.234375 3.1625,3.01875 C3.378125,2.803125 3.7375,2.803125 3.953125,3.01875 L4.815625,3.88125 C5.03125,4.096875 5.03125,4.45625 4.815625,4.671875 C4.671875,4.74375 4.528125,4.815625 4.384375,4.815625 Z"></path>
                            </g>
                            <g>
                                <path d="M0.71875,4.815625 C0.575,4.815625 0.43125,4.74375 0.359375,4.671875 C0.14375,4.45625 0.14375,4.096875 0.359375,3.88125 L1.221875,3.01875 C1.4375,2.803125 1.796875,2.803125 2.0125,3.01875 C2.228125,3.234375 2.228125,3.59375 2.0125,3.809375 L1.15,4.671875 C1.00625,4.74375 0.8625,4.815625 0.71875,4.815625 Z"></path>
                                <path d="M3.521875,2.0125 C3.378125,2.0125 3.234375,1.940625 3.1625,1.86875 C2.946875,1.653125 2.946875,1.29375 3.1625,1.078125 L4.025,0.215625 C4.240625,-1.05471187e-15 4.6,-1.05471187e-15 4.815625,0.215625 C5.03125,0.43125 5.03125,0.790625 4.815625,1.00625 L3.953125,1.86875 C3.809375,1.940625 3.665625,2.0125 3.521875,2.0125 Z"></path>
                            </g>
                        </g>
                        <g transform="translate(0.000000, 16.531250)" id="Shape">
                            <g>
                                <path d="M1.58125,2.15625 C1.4375,2.15625 1.29375,2.084375 1.221875,2.0125 L0.359375,1.15 C0.14375,0.934375 0.14375,0.575 0.359375,0.359375 C0.575,0.14375 0.934375,0.14375 1.15,0.359375 L2.0125,1.221875 C2.228125,1.4375 2.228125,1.796875 2.0125,2.0125 C1.86875,2.084375 1.725,2.15625 1.58125,2.15625 Z"></path>
                                <path d="M4.384375,4.8875 C4.240625,4.8875 4.096875,4.815625 4.025,4.74375 L3.1625,3.88125 C2.946875,3.665625 2.946875,3.30625 3.1625,3.090625 C3.378125,2.875 3.7375,2.875 3.953125,3.090625 L4.815625,3.953125 C5.03125,4.16875 5.03125,4.528125 4.815625,4.74375 C4.671875,4.8875 4.528125,4.8875 4.384375,4.8875 Z"></path>
                            </g>
                            <g>
                                <path d="M0.71875,4.8875 C0.575,4.8875 0.43125,4.815625 0.359375,4.74375 C0.14375,4.528125 0.14375,4.16875 0.359375,3.953125 L1.221875,3.090625 C1.4375,2.875 1.796875,2.875 2.0125,3.090625 C2.228125,3.30625 2.228125,3.665625 2.0125,3.88125 L1.15,4.74375 C1.00625,4.8875 0.8625,4.8875 0.71875,4.8875 Z"></path>
                                <path d="M3.521875,2.15625 C3.378125,2.15625 3.234375,2.084375 3.1625,2.0125 C2.946875,1.796875 2.946875,1.4375 3.1625,1.221875 L4.025,0.359375 C4.240625,0.14375 4.6,0.14375 4.815625,0.359375 C5.03125,0.575 5.03125,0.934375 4.815625,1.15 L3.953125,2.0125 C3.809375,2.084375 3.665625,2.15625 3.521875,2.15625 Z"></path>
                            </g>
                        </g>
                        <g transform="translate(10.781250, 39.531250)" id="Shape">
                            <path d="M0.790625,6.0375 C0.503125,6.0375 0.215625,5.821875 0.215625,5.4625 L0.215625,0.71875 C0.215625,0.43125 0.43125,0.14375 0.790625,0.14375 C1.078125,0.14375 1.365625,0.359375 1.365625,0.71875 L1.365625,5.4625 C1.365625,5.821875 1.15,6.0375 0.790625,6.0375 Z"></path>
                            <path d="M0.790625,10.996875 C0.503125,10.996875 0.215625,10.78125 0.215625,10.421875 L0.215625,8.121875 C0.215625,7.834375 0.43125,7.546875 0.790625,7.546875 C1.078125,7.546875 1.365625,7.7625 1.365625,8.121875 L1.365625,10.421875 C1.365625,10.78125 1.15,10.996875 0.790625,10.996875 Z"></path>
                        </g>
                        <g transform="translate(66.125000, 33.062500)" id="Shape">
                            <path d="M0.934375,6.325 C0.646875,6.325 0.359375,6.109375 0.359375,5.75 L0.359375,1.00625 C0.359375,0.71875 0.575,0.43125 0.934375,0.43125 C1.221875,0.43125 1.509375,0.646875 1.509375,1.00625 L1.509375,5.75 C1.509375,6.0375 1.29375,6.325 0.934375,6.325 Z"></path>
                            <path d="M0.934375,11.284375 C0.646875,11.284375 0.359375,11.06875 0.359375,10.709375 L0.359375,8.409375 C0.359375,8.121875 0.575,7.834375 0.934375,7.834375 C1.221875,7.834375 1.509375,8.05 1.509375,8.409375 L1.509375,10.709375 C1.509375,10.996875 1.29375,11.284375 0.934375,11.284375 Z"></path>
                        </g>
                        <path d="M14.878125,30.04375 C13.65625,30.04375 12.721875,29.109375 12.721875,27.8875 C12.721875,26.665625 13.65625,25.73125 14.878125,25.73125 C16.1,25.73125 17.034375,26.665625 17.034375,27.8875 C17.034375,29.0375 16.028125,30.04375 14.878125,30.04375 Z M14.878125,26.809375 C14.303125,26.809375 13.8,27.3125 13.8,27.8875 C13.8,28.4625 14.303125,28.965625 14.878125,28.965625 C15.453125,28.965625 15.95625,28.4625 15.95625,27.8875 C15.95625,27.240625 15.453125,26.809375 14.878125,26.809375 Z" id="Shape"></path>
                        <path d="M45.784375,24.940625 C44.5625,24.940625 43.628125,24.00625 43.628125,22.784375 C43.628125,21.5625 44.5625,20.628125 45.784375,20.628125 C47.00625,20.628125 47.940625,21.5625 47.940625,22.784375 C47.940625,24.00625 47.00625,24.940625 45.784375,24.940625 Z M45.784375,21.70625 C45.209375,21.70625 44.70625,22.209375 44.70625,22.784375 C44.70625,23.359375 45.209375,23.8625 45.784375,23.8625 C46.359375,23.8625 46.8625,23.359375 46.8625,22.784375 C46.8625,22.209375 46.43125,21.70625 45.784375,21.70625 Z" id="Shape"></path>
                        <path d="M44.203125,71.73125 C42.98125,71.73125 42.046875,70.796875 42.046875,69.575 C42.046875,68.353125 42.98125,67.41875 44.203125,67.41875 C45.425,67.41875 46.359375,68.353125 46.359375,69.575 C46.359375,70.725 45.353125,71.73125 44.203125,71.73125 Z M44.203125,68.425 C43.628125,68.425 43.125,68.928125 43.125,69.503125 C43.125,70.078125 43.628125,70.58125 44.203125,70.58125 C44.778125,70.58125 45.28125,70.078125 45.28125,69.503125 C45.28125,68.928125 44.778125,68.425 44.203125,68.425 Z" id="Shape"></path>
                        <g transform="translate(48.875000, 6.468750)" id="Shape">
                            <path d="M6.828125,1.509375 L0.934375,1.509375 C0.646875,1.509375 0.359375,1.29375 0.359375,0.934375 C0.359375,0.646875 0.575,0.359375 0.934375,0.359375 L6.828125,0.359375 C7.115625,0.359375 7.403125,0.575 7.403125,0.934375 C7.403125,1.29375 7.115625,1.509375 6.828125,1.509375 Z"></path>
                            <path d="M10.6375,1.509375 L8.76875,1.509375 C8.48125,1.509375 8.19375,1.29375 8.19375,0.934375 C8.19375,0.646875 8.409375,0.359375 8.76875,0.359375 L10.6375,0.359375 C10.925,0.359375 11.2125,0.575 11.2125,0.934375 C11.2125,1.29375 10.925,1.509375 10.6375,1.509375 Z"></path>
                            <path d="M10.6375,3.521875 L6.540625,3.521875 C6.253125,3.521875 5.965625,3.30625 5.965625,2.946875 C5.965625,2.659375 6.18125,2.371875 6.540625,2.371875 L10.6375,2.371875 C10.925,2.371875 11.2125,2.5875 11.2125,2.946875 C11.2125,3.30625 10.925,3.521875 10.6375,3.521875 Z"></path>
                            <path d="M4.815625,3.521875 L3.521875,3.521875 C3.234375,3.521875 2.946875,3.30625 2.946875,2.946875 C2.946875,2.659375 3.1625,2.371875 3.521875,2.371875 L4.815625,2.371875 C5.103125,2.371875 5.390625,2.5875 5.390625,2.946875 C5.31875,3.30625 5.103125,3.521875 4.815625,3.521875 Z"></path>
                        </g>
                        <g transform="translate(20.843750, 63.250000)" id="Shape">
                            <path d="M10.925,1.58125 L5.03125,1.58125 C4.74375,1.58125 4.45625,1.365625 4.45625,1.00625 C4.45625,0.646875 4.671875,0.43125 5.03125,0.43125 L10.925,0.43125 C11.2125,0.43125 11.5,0.646875 11.5,1.00625 C11.5,1.365625 11.2125,1.58125 10.925,1.58125 Z"></path>
                            <path d="M3.1625,1.58125 L1.29375,1.58125 C1.00625,1.58125 0.71875,1.365625 0.71875,1.00625 C0.71875,0.646875 0.934375,0.43125 1.29375,0.43125 L3.1625,0.43125 C3.45,0.43125 3.7375,0.646875 3.7375,1.00625 C3.7375,1.365625 3.45,1.58125 3.1625,1.58125 Z"></path>
                            <path d="M5.31875,3.59375 L1.221875,3.59375 C0.934375,3.59375 0.646875,3.378125 0.646875,3.01875 C0.646875,2.659375 0.8625,2.44375 1.221875,2.44375 L5.31875,2.44375 C5.60625,2.44375 5.89375,2.659375 5.89375,3.01875 C5.89375,3.378125 5.60625,3.59375 5.31875,3.59375 Z"></path>
                            <path d="M8.409375,3.59375 L7.115625,3.59375 C6.828125,3.59375 6.540625,3.378125 6.540625,3.01875 C6.540625,2.659375 6.75625,2.44375 7.115625,2.44375 L8.409375,2.44375 C8.696875,2.44375 8.984375,2.659375 8.984375,3.01875 C8.984375,3.378125 8.696875,3.59375 8.409375,3.59375 Z"></path>
                        </g>
                        <g transform="translate(5.031250, 0.000000)" id="Shape">
                            <path d="M8.19375,16.315625 C3.809375,16.315625 0.2875,12.79375 0.2875,8.409375 C0.2875,4.025 3.809375,0.503125 8.19375,0.503125 C12.578125,0.503125 16.1,4.025 16.1,8.409375 C16.1,12.79375 12.578125,16.315625 8.19375,16.315625 Z M8.19375,1.653125 C4.45625,1.653125 1.365625,4.74375 1.365625,8.48125 C1.365625,12.21875 4.45625,15.309375 8.19375,15.309375 C11.93125,15.309375 15.021875,12.21875 15.021875,8.48125 C15.021875,4.74375 11.93125,1.653125 8.19375,1.653125 Z"></path>
                            <path d="M8.19375,12.79375 C5.821875,12.79375 3.88125,10.853125 3.88125,8.48125 C3.88125,6.109375 5.821875,4.16875 8.19375,4.16875 C10.565625,4.16875 12.50625,6.109375 12.50625,8.48125 C12.50625,10.853125 10.565625,12.79375 8.19375,12.79375 Z M8.19375,5.175 C6.396875,5.175 4.959375,6.6125 4.959375,8.409375 C4.959375,10.20625 6.396875,11.64375 8.19375,11.64375 C9.990625,11.64375 11.428125,10.20625 11.428125,8.409375 C11.428125,6.6125 9.990625,5.175 8.19375,5.175 Z"></path>
                        </g>
                        <g transform="translate(59.656250, 12.937500)" id="Shape">
                            <path d="M8.409375,16.028125 C4.025,16.028125 0.503125,12.50625 0.503125,8.121875 C0.503125,3.7375 4.025,0.215625 8.409375,0.215625 C12.79375,0.215625 16.315625,3.7375 16.315625,8.121875 C16.315625,12.50625 12.79375,16.028125 8.409375,16.028125 Z M8.409375,1.29375 C4.671875,1.29375 1.58125,4.384375 1.58125,8.121875 C1.58125,11.859375 4.671875,14.95 8.409375,14.95 C12.146875,14.95 15.2375,11.859375 15.2375,8.121875 C15.2375,4.384375 12.146875,1.29375 8.409375,1.29375 Z"></path>
                            <path d="M8.409375,12.434375 C6.0375,12.434375 4.096875,10.49375 4.096875,8.121875 C4.096875,5.75 6.0375,3.809375 8.409375,3.809375 C10.78125,3.809375 12.721875,5.75 12.721875,8.121875 C12.721875,10.49375 10.78125,12.434375 8.409375,12.434375 Z M8.409375,4.8875 C6.6125,4.8875 5.175,6.325 5.175,8.121875 C5.175,9.91875 6.6125,11.35625 8.409375,11.35625 C10.20625,11.35625 11.64375,9.91875 11.64375,8.121875 C11.64375,6.325 10.20625,4.8875 8.409375,4.8875 Z"></path>
                        </g>
                        <g transform="translate(0.000000, 58.218750)" id="Shape">
                            <path d="M8.121875,15.95625 C3.7375,15.95625 0.215625,12.434375 0.215625,8.05 C0.215625,3.665625 3.7375,0.14375 8.121875,0.14375 C12.50625,0.14375 16.028125,3.665625 16.028125,8.05 C16.028125,12.434375 12.50625,15.95625 8.121875,15.95625 Z M8.121875,1.29375 C4.384375,1.29375 1.29375,4.384375 1.29375,8.121875 C1.29375,11.859375 4.384375,14.95 8.121875,14.95 C11.859375,14.95 14.95,11.859375 14.95,8.121875 C14.95,4.384375 11.859375,1.29375 8.121875,1.29375 Z"></path>
                            <path d="M8.121875,12.434375 C5.75,12.434375 3.809375,10.49375 3.809375,8.121875 C3.809375,5.75 5.75,3.809375 8.121875,3.809375 C10.49375,3.809375 12.434375,5.75 12.434375,8.121875 C12.434375,10.49375 10.49375,12.434375 8.121875,12.434375 Z M8.121875,4.815625 C6.325,4.815625 4.8875,6.253125 4.8875,8.05 C4.8875,9.846875 6.325,11.284375 8.121875,11.284375 C9.91875,11.284375 11.35625,9.846875 11.35625,8.05 C11.35625,6.253125 9.91875,4.815625 8.121875,4.815625 Z"></path>
                        </g>
                        <g transform="translate(49.593750, 54.625000)" id="Shape">
                            <path d="M8.265625,15.8125 C3.88125,15.8125 0.359375,12.290625 0.359375,7.90625 C0.359375,3.521875 3.88125,0 8.265625,0 C12.65,0 16.171875,3.521875 16.171875,7.90625 C16.171875,12.21875 12.578125,15.8125 8.265625,15.8125 Z M8.265625,1.078125 C4.528125,1.078125 1.4375,4.16875 1.4375,7.90625 C1.4375,11.64375 4.528125,14.734375 8.265625,14.734375 C12.003125,14.734375 15.09375,11.64375 15.09375,7.90625 C15.09375,4.096875 12.003125,1.078125 8.265625,1.078125 Z"></path>
                            <path d="M8.265625,12.21875 C5.89375,12.21875 3.953125,10.278125 3.953125,7.90625 C3.953125,5.534375 5.89375,3.59375 8.265625,3.59375 C10.6375,3.59375 12.578125,5.534375 12.578125,7.90625 C12.578125,10.278125 10.6375,12.21875 8.265625,12.21875 Z M8.265625,4.671875 C6.46875,4.671875 5.03125,6.109375 5.03125,7.90625 C5.03125,9.703125 6.46875,11.140625 8.265625,11.140625 C10.0625,11.140625 11.5,9.703125 11.5,7.90625 C11.5,6.109375 10.0625,4.671875 8.265625,4.671875 Z"></path>
                        </g>
                        <g transform="translate(45.281250, 46.718750)" id="Shape">
                            <path d="M6.971875,8.409375 C6.828125,8.409375 6.684375,8.3375 6.540625,8.19375 L6.325,7.90625 C6.109375,7.690625 6.18125,7.33125 6.396875,7.115625 C6.6125,6.9 6.971875,6.971875 7.1875,7.1875 L7.403125,7.475 C7.61875,7.690625 7.546875,8.05 7.33125,8.265625 C7.1875,8.3375 7.04375,8.409375 6.971875,8.409375 Z"></path>
                            <path d="M5.246875,6.396875 C5.103125,6.396875 4.959375,6.325 4.815625,6.18125 L4.3125,5.60625 C4.096875,5.390625 4.16875,5.03125 4.384375,4.815625 C4.6,4.6 4.959375,4.671875 5.175,4.8875 L5.678125,5.4625 C5.89375,5.678125 5.821875,6.0375 5.60625,6.253125 C5.534375,6.325 5.390625,6.396875 5.246875,6.396875 Z M3.30625,4.096875 C3.1625,4.096875 3.01875,4.025 2.875,3.88125 L2.371875,3.30625 C2.15625,3.090625 2.228125,2.73125 2.44375,2.515625 C2.659375,2.3 3.01875,2.371875 3.234375,2.5875 L3.7375,3.1625 C3.953125,3.378125 3.88125,3.7375 3.665625,3.953125 C3.521875,4.025 3.45,4.096875 3.30625,4.096875 Z"></path>
                            <path d="M1.365625,1.796875 C1.221875,1.796875 1.078125,1.725 0.934375,1.58125 L0.71875,1.29375 C0.503125,1.078125 0.575,0.71875 0.790625,0.503125 C1.00625,0.2875 1.365625,0.359375 1.58125,0.575 L1.796875,0.8625 C2.0125,1.078125 1.940625,1.4375 1.725,1.653125 C1.58125,1.725 1.509375,1.796875 1.365625,1.796875 Z"></path>
                        </g>
                        <g transform="translate(17.968750, 15.812500)" id="Shape">
                            <path d="M15.2375,17.178125 C15.09375,17.178125 14.95,17.10625 14.80625,16.9625 L14.590625,16.675 C14.375,16.459375 14.446875,16.1 14.6625,15.884375 C14.878125,15.66875 15.2375,15.740625 15.453125,15.95625 L15.66875,16.24375 C15.884375,16.459375 15.8125,16.81875 15.596875,17.034375 C15.453125,17.178125 15.38125,17.178125 15.2375,17.178125 Z"></path>
                            <path d="M13.440625,15.2375 C13.296875,15.2375 13.153125,15.165625 13.009375,15.021875 L12.50625,14.446875 C12.290625,14.23125 12.3625,13.871875 12.578125,13.65625 C12.79375,13.440625 13.153125,13.5125 13.36875,13.728125 L13.871875,14.303125 C14.0875,14.51875 14.015625,14.878125 13.8,15.09375 C13.728125,15.165625 13.584375,15.2375 13.440625,15.2375 Z M11.428125,12.9375 C11.284375,12.9375 11.140625,12.865625 10.996875,12.721875 L10.49375,12.146875 C10.278125,11.93125 10.35,11.571875 10.565625,11.35625 C10.78125,11.140625 11.140625,11.2125 11.35625,11.428125 L11.859375,12.003125 C12.075,12.21875 12.003125,12.578125 11.7875,12.79375 C11.715625,12.865625 11.571875,12.9375 11.428125,12.9375 Z M9.415625,10.565625 C9.271875,10.565625 9.128125,10.49375 8.984375,10.35 L8.48125,9.775 C8.265625,9.559375 8.3375,9.2 8.553125,8.984375 C8.76875,8.76875 9.128125,8.840625 9.34375,9.05625 L9.846875,9.63125 C10.0625,9.846875 9.990625,10.20625 9.775,10.421875 C9.703125,10.565625 9.559375,10.565625 9.415625,10.565625 Z M7.403125,8.265625 C7.259375,8.265625 7.115625,8.19375 6.971875,8.05 L6.46875,7.546875 C6.253125,7.33125 6.325,6.971875 6.540625,6.75625 C6.75625,6.540625 7.115625,6.6125 7.33125,6.828125 L7.834375,7.403125 C8.05,7.61875 7.978125,7.978125 7.7625,8.19375 C7.690625,8.265625 7.546875,8.265625 7.403125,8.265625 Z M5.390625,5.965625 C5.246875,5.965625 5.103125,5.89375 4.959375,5.75 L4.45625,5.175 C4.240625,4.959375 4.3125,4.6 4.528125,4.384375 C4.74375,4.16875 5.103125,4.240625 5.31875,4.45625 L5.821875,5.03125 C6.0375,5.246875 5.965625,5.60625 5.75,5.821875 C5.60625,5.965625 5.534375,5.965625 5.390625,5.965625 Z M3.378125,3.665625 C3.234375,3.665625 3.090625,3.59375 2.946875,3.45 L2.44375,2.875 C2.228125,2.659375 2.3,2.3 2.515625,2.084375 C2.73125,1.86875 3.090625,1.940625 3.30625,2.15625 L3.809375,2.73125 C4.025,2.946875 3.953125,3.30625 3.7375,3.521875 C3.59375,3.665625 3.45,3.665625 3.378125,3.665625 Z"></path>
                            <path d="M1.365625,1.365625 C1.221875,1.365625 1.078125,1.29375 0.934375,1.15 L0.71875,0.934375 C0.503125,0.71875 0.575,0.359375 0.790625,0.14375 C1.00625,-0.071875 1.365625,-5.74366943e-15 1.58125,0.215625 L1.796875,0.503125 C2.0125,0.71875 1.940625,1.078125 1.725,1.29375 C1.58125,1.365625 1.4375,1.365625 1.365625,1.365625 Z"></path>
                        </g>
                        <path d="M40.034375,48.228125 C37.51875,48.228125 35.21875,47.078125 33.78125,45.065625 C32.703125,43.7 32.128125,42.046875 32.128125,40.321875 C32.128125,38.021875 33.134375,35.865625 34.859375,34.35625 C36.296875,33.0625 38.165625,32.415625 40.034375,32.415625 C42.478125,32.415625 44.70625,33.49375 46.215625,35.434375 C47.29375,36.8 47.940625,38.525 47.940625,40.321875 C47.940625,42.621875 46.934375,44.778125 45.28125,46.215625 C43.84375,47.509375 41.975,48.228125 40.034375,48.228125 Z M40.034375,33.49375 C38.38125,33.49375 36.8,34.06875 35.578125,35.21875 C34.06875,36.5125 33.20625,38.38125 33.20625,40.39375 C33.20625,41.903125 33.709375,43.340625 34.64375,44.490625 C35.9375,46.215625 37.878125,47.221875 40.10625,47.221875 C41.759375,47.221875 43.340625,46.575 44.634375,45.496875 C46.14375,44.203125 46.934375,42.334375 46.934375,40.39375 C46.934375,38.884375 46.43125,37.375 45.496875,36.153125 C44.13125,34.428125 42.190625,33.49375 40.034375,33.49375 Z" id="Shape"></path>
                        <g transform="translate(14.375000, 45.281250)" id="Shape">
                            <path d="M17.39375,1.86875 C17.25,1.86875 17.10625,1.796875 16.9625,1.653125 C16.746875,1.4375 16.81875,1.078125 17.034375,0.8625 L17.321875,0.646875 C17.5375,0.43125 17.896875,0.503125 18.1125,0.71875 C18.328125,0.934375 18.25625,1.29375 18.040625,1.509375 L17.753125,1.725 C17.609375,1.86875 17.5375,1.86875 17.39375,1.86875 Z"></path>
                            <path d="M3.1625,12.9375 C3.01875,12.9375 2.875,12.865625 2.73125,12.721875 C2.515625,12.50625 2.5875,12.146875 2.803125,11.93125 L3.378125,11.5 C3.59375,11.284375 3.953125,11.35625 4.16875,11.571875 C4.384375,11.7875 4.3125,12.146875 4.096875,12.3625 L3.521875,12.79375 C3.378125,12.865625 3.30625,12.9375 3.1625,12.9375 Z M5.534375,11.06875 C5.390625,11.06875 5.246875,10.996875 5.103125,10.853125 C4.8875,10.6375 4.959375,10.278125 5.175,10.0625 L5.75,9.63125 C5.965625,9.415625 6.325,9.4875 6.540625,9.703125 C6.75625,9.91875 6.684375,10.278125 6.46875,10.49375 L5.89375,10.925 C5.75,11.06875 5.678125,11.06875 5.534375,11.06875 Z M7.90625,9.271875 C7.7625,9.271875 7.61875,9.2 7.475,9.05625 C7.259375,8.840625 7.33125,8.48125 7.546875,8.265625 L8.121875,7.834375 C8.3375,7.61875 8.696875,7.690625 8.9125,7.90625 C9.128125,8.121875 9.05625,8.48125 8.840625,8.696875 L8.265625,9.128125 C8.121875,9.2 8.05,9.271875 7.90625,9.271875 Z M10.278125,7.403125 C10.134375,7.403125 9.990625,7.33125 9.846875,7.1875 C9.63125,6.971875 9.703125,6.6125 9.91875,6.396875 L10.49375,5.965625 C10.709375,5.75 11.06875,5.821875 11.284375,6.0375 C11.5,6.253125 11.428125,6.6125 11.2125,6.828125 L10.6375,7.259375 C10.49375,7.403125 10.421875,7.403125 10.278125,7.403125 Z M12.65,5.60625 C12.50625,5.60625 12.3625,5.534375 12.21875,5.390625 C12.003125,5.175 12.075,4.815625 12.290625,4.6 L12.865625,4.16875 C13.08125,3.953125 13.440625,4.025 13.65625,4.240625 C13.871875,4.45625 13.8,4.815625 13.584375,5.03125 L13.009375,5.4625 C12.865625,5.534375 12.79375,5.60625 12.65,5.60625 Z M15.021875,3.7375 C14.878125,3.7375 14.734375,3.665625 14.590625,3.521875 C14.375,3.30625 14.446875,2.946875 14.6625,2.73125 L15.2375,2.3 C15.453125,2.084375 15.8125,2.15625 16.028125,2.371875 C16.24375,2.5875 16.171875,2.946875 15.95625,3.1625 L15.38125,3.59375 C15.2375,3.665625 15.165625,3.7375 15.021875,3.7375 Z"></path>
                            <path d="M1.078125,14.51875 C0.934375,14.51875 0.790625,14.446875 0.646875,14.303125 C0.43125,14.0875 0.503125,13.728125 0.71875,13.5125 L1.00625,13.296875 C1.221875,13.08125 1.58125,13.153125 1.796875,13.36875 C2.0125,13.584375 1.940625,13.94375 1.725,14.159375 L1.4375,14.446875 C1.365625,14.51875 1.221875,14.51875 1.078125,14.51875 Z"></path>
                        </g>
                        <g transform="translate(46.718750, 23.718750)" id="Shape">
                            <path d="M12.865625,1.940625 C12.721875,1.940625 12.578125,1.86875 12.434375,1.725 C12.21875,1.509375 12.290625,1.15 12.50625,0.934375 L12.79375,0.71875 C13.009375,0.503125 13.36875,0.575 13.584375,0.790625 C13.8,1.00625 13.728125,1.365625 13.5125,1.58125 L13.225,1.796875 C13.153125,1.86875 13.009375,1.940625 12.865625,1.940625 Z"></path>
                            <path d="M3.30625,9.271875 C3.1625,9.271875 3.01875,9.2 2.875,9.05625 C2.659375,8.840625 2.73125,8.48125 2.946875,8.265625 L3.59375,7.90625 C3.809375,7.690625 4.16875,7.7625 4.384375,7.978125 C4.6,8.19375 4.528125,8.553125 4.3125,8.76875 L3.7375,9.2 C3.521875,9.271875 3.45,9.271875 3.30625,9.271875 Z M5.678125,7.475 C5.534375,7.475 5.390625,7.403125 5.246875,7.259375 C5.03125,7.04375 5.103125,6.684375 5.31875,6.46875 L5.89375,6.0375 C6.109375,5.821875 6.46875,5.89375 6.684375,6.109375 C6.9,6.325 6.828125,6.684375 6.6125,6.9 L6.0375,7.33125 C5.965625,7.403125 5.821875,7.475 5.678125,7.475 Z M8.121875,5.60625 C7.978125,5.60625 7.834375,5.534375 7.690625,5.390625 C7.475,5.175 7.546875,4.815625 7.7625,4.6 L8.3375,4.16875 C8.553125,3.953125 8.9125,4.025 9.128125,4.240625 C9.34375,4.45625 9.271875,4.815625 9.05625,5.03125 L8.48125,5.4625 C8.3375,5.60625 8.19375,5.60625 8.121875,5.60625 Z M10.49375,3.7375 C10.35,3.7375 10.20625,3.665625 10.0625,3.521875 C9.846875,3.30625 9.91875,2.946875 10.134375,2.73125 L10.709375,2.3 C10.925,2.084375 11.284375,2.15625 11.5,2.371875 C11.715625,2.5875 11.64375,2.946875 11.428125,3.1625 L10.853125,3.59375 C10.709375,3.7375 10.6375,3.7375 10.49375,3.7375 Z"></path>
                            <path d="M1.221875,10.925 C1.078125,10.925 0.934375,10.853125 0.790625,10.709375 C0.575,10.49375 0.646875,10.134375 0.8625,9.91875 L1.15,9.703125 C1.365625,9.4875 1.725,9.559375 1.940625,9.775 C2.15625,9.990625 2.084375,10.35 1.86875,10.565625 L1.58125,10.78125 C1.4375,10.853125 1.365625,10.925 1.221875,10.925 Z"></path>
                        </g>
                    </g>
                    <path d="M1.078125,46.575 C0.790625,46.575 0.575,46.359375 0.575,46 L0.575,40.25 C0.575,39.9625 0.790625,39.675 1.078125,39.675 C1.365625,39.675 1.653125,39.890625 1.653125,40.25 L1.653125,46 C1.653125,46.2875 1.365625,46.575 1.078125,46.575 Z M1.078125,35.075 C0.790625,35.075 0.575,34.859375 0.575,34.5 L0.575,28.75 C0.575,28.4625 0.790625,28.175 1.078125,28.175 C1.365625,28.175 1.653125,28.390625 1.653125,28.75 L1.653125,34.5 C1.653125,34.7875 1.365625,35.075 1.078125,35.075 Z M1.078125,23.575 C0.790625,23.575 0.575,23.359375 0.575,23 L0.575,17.25 C0.575,16.9625 0.790625,16.675 1.078125,16.675 C1.365625,16.675 1.653125,16.890625 1.653125,17.25 L1.653125,23 C1.653125,23.2875 1.365625,23.575 1.078125,23.575 Z M1.078125,12.075 C0.790625,12.075 0.575,11.859375 0.575,11.5 L0.575,11.140625 C0.575,9.2 1.078125,7.33125 2.084375,5.678125 C2.228125,5.390625 2.5875,5.31875 2.803125,5.4625 C3.090625,5.60625 3.1625,5.965625 3.01875,6.18125 C2.15625,7.61875 1.653125,9.34375 1.653125,11.06875 L1.653125,11.5 C1.653125,11.7875 1.365625,12.075 1.078125,12.075 Z M6.6125,2.659375 C6.46875,2.659375 6.253125,2.5875 6.18125,2.371875 C6.0375,2.084375 6.18125,1.796875 6.396875,1.653125 C7.90625,0.934375 9.4875,0.503125 11.140625,0.503125 L12.21875,0.503125 C12.50625,0.503125 12.79375,0.71875 12.79375,1.078125 C12.79375,1.4375 12.50625,1.653125 12.21875,1.653125 L11.140625,1.653125 C9.63125,1.653125 8.19375,2.0125 6.9,2.659375 C6.828125,2.659375 6.75625,2.659375 6.6125,2.659375 Z M46,1.653125 L40.96875,1.653125 C40.68125,1.653125 40.39375,1.4375 40.39375,1.078125 C40.39375,0.71875 40.609375,0.503125 40.96875,0.503125 L46,0.503125 C46.2875,0.503125 46.575,0.71875 46.575,1.078125 C46.575,1.4375 46.2875,1.653125 46,1.653125 Z M35.21875,1.653125 L29.46875,1.653125 C29.18125,1.653125 28.89375,1.4375 28.89375,1.078125 C28.89375,0.71875 29.109375,0.503125 29.46875,0.503125 L35.21875,0.503125 C35.50625,0.503125 35.79375,0.71875 35.79375,1.078125 C35.79375,1.4375 35.50625,1.653125 35.21875,1.653125 Z M23.71875,1.653125 L17.96875,1.653125 C17.68125,1.653125 17.39375,1.4375 17.39375,1.078125 C17.39375,0.71875 17.609375,0.503125 17.96875,0.503125 L23.71875,0.503125 C24.00625,0.503125 24.29375,0.71875 24.29375,1.078125 C24.29375,1.4375 24.00625,1.653125 23.71875,1.653125 Z" id="Shape"></path>
                    <path d="M80.859375,91.496875 L79.78125,91.496875 C79.49375,91.496875 79.20625,91.28125 79.20625,90.921875 C79.20625,90.5625 79.421875,90.346875 79.78125,90.346875 L80.859375,90.346875 C82.36875,90.346875 83.80625,89.9875 85.1,89.340625 C85.3875,89.196875 85.675,89.340625 85.81875,89.55625 C85.9625,89.84375 85.81875,90.13125 85.603125,90.275 C84.09375,91.065625 82.5125,91.496875 80.859375,91.496875 Z M74.03125,91.496875 L68.28125,91.496875 C67.99375,91.496875 67.70625,91.28125 67.70625,90.921875 C67.70625,90.5625 67.921875,90.346875 68.28125,90.346875 L74.03125,90.346875 C74.31875,90.346875 74.60625,90.5625 74.60625,90.921875 C74.60625,91.28125 74.31875,91.496875 74.03125,91.496875 Z M62.53125,91.496875 L56.78125,91.496875 C56.49375,91.496875 56.20625,91.28125 56.20625,90.921875 C56.20625,90.5625 56.421875,90.346875 56.78125,90.346875 L62.53125,90.346875 C62.81875,90.346875 63.10625,90.5625 63.10625,90.921875 C63.10625,91.28125 62.81875,91.496875 62.53125,91.496875 Z M51.03125,91.496875 L46,91.496875 C45.7125,91.496875 45.425,91.28125 45.425,90.921875 C45.425,90.5625 45.640625,90.346875 46,90.346875 L51.03125,90.346875 C51.31875,90.346875 51.60625,90.5625 51.60625,90.921875 C51.60625,91.28125 51.31875,91.496875 51.03125,91.496875 Z M89.484375,86.5375 C89.4125,86.5375 89.26875,86.5375 89.196875,86.465625 C88.909375,86.321875 88.8375,85.9625 88.98125,85.746875 C89.84375,84.309375 90.346875,82.584375 90.346875,80.859375 L90.346875,80.5 C90.346875,80.2125 90.5625,79.925 90.921875,79.925 C91.209375,79.925 91.496875,80.140625 91.496875,80.5 L91.496875,80.859375 C91.496875,82.8 90.99375,84.66875 89.9875,86.321875 C89.84375,86.465625 89.7,86.5375 89.484375,86.5375 Z M90.921875,75.325 C90.634375,75.325 90.346875,75.109375 90.346875,74.75 L90.346875,69 C90.346875,68.7125 90.5625,68.425 90.921875,68.425 C91.209375,68.425 91.496875,68.640625 91.496875,69 L91.496875,74.75 C91.496875,75.0375 91.209375,75.325 90.921875,75.325 Z M90.921875,63.825 C90.634375,63.825 90.346875,63.609375 90.346875,63.25 L90.346875,57.5 C90.346875,57.2125 90.5625,56.925 90.921875,56.925 C91.209375,56.925 91.496875,57.140625 91.496875,57.5 L91.496875,63.25 C91.496875,63.5375 91.209375,63.825 90.921875,63.825 Z M90.921875,52.325 C90.634375,52.325 90.346875,52.109375 90.346875,51.75 L90.346875,46 C90.346875,45.7125 90.5625,45.425 90.921875,45.425 C91.209375,45.425 91.496875,45.640625 91.496875,46 L91.496875,51.75 C91.496875,52.0375 91.209375,52.325 90.921875,52.325 Z" id="Shape"></path>
                </g>
            </g>
        </g>
    </g>
</svg>