<?xml version="1.0" encoding="UTF-8"?>
<svg width="316px" height="316px" viewBox="0 0 316 316" version="1.1" xmlns="http://www.w3.org/2000/svg" xmlns:xlink="http://www.w3.org/1999/xlink">
    <!-- Generator: Sketch 48.2 (47327) - http://www.bohemiancoding.com/sketch -->
    <title>growing-program</title>
    <desc>Created with Sketch.</desc>
    <defs></defs>
    <g id="Page-1" stroke="none" stroke-width="1" fill="none" fill-rule="evenodd">
        <g id="growing-program">
            <circle id="Oval" fill="#FFFFFF" cx="158" cy="158" r="158"></circle>
            <circle id="Oval-Copy" stroke="#21ce99" stroke-width="4" stroke-linecap="round" stroke-linejoin="round" stroke-dasharray="1,2,1,12" cx="159" cy="159" r="144"></circle>
            <g id="Group-Copy-3" transform="translate(46.000000, 38.000000)" fill="#21ce99" fill-rule="nonzero">
                <path d="M46.5,67 C47.25,67 48,66.424 48,65.464 L48,44.536 C48,43.768 47.4375,43 46.5,43 C45.5625,43 45,43.576 45,44.536 L45,65.656 C45.1875,66.424 45.75,67 46.5,67 Z" id="Shape"></path>
                <path d="M46.5,80 C47.25,80 48,79.4230769 48,78.4615385 L48,71.5384615 C48,70.7692308 47.4375,70 46.5,70 C45.5625,70 45,70.5769231 45,71.5384615 L45,78.4615385 C45.1875,79.4230769 45.75,80 46.5,80 Z" id="Shape"></path>
                <path d="M218,94.5238095 L218,115.47619 C218,116.238095 218.5625,117 219.5,117 C220.25,117 221,116.428571 221,115.47619 L221,94.5238095 C221,93.7619048 220.4375,93 219.5,93 C218.75,93 218,93.5714286 218,94.5238095 Z" id="Shape"></path>
                <path d="M219.5,130 C220.25,130 221,129.423077 221,128.461538 L221,121.538462 C221,120.769231 220.4375,120 219.5,120 C218.75,120 218,120.576923 218,121.538462 L218,128.461538 C218,129.423077 218.75,130 219.5,130 Z" id="Shape"></path>
                <path d="M9.66666667,34.627907 C9.85714286,34.8139535 10.2380952,35 10.6190476,35 C11,35 11.3809524,34.8139535 11.5714286,34.627907 C12.1428571,34.0697674 12.1428571,33.1395349 11.5714286,32.5813953 L8.52380952,29.4186047 C7.95238095,28.8604651 7,28.8604651 6.42857143,29.4186047 C5.85714286,29.9767442 5.85714286,30.9069767 6.42857143,31.4651163 L9.66666667,34.627907 Z" id="Shape"></path>
                <path d="M19.7384615,44.627907 C19.9230769,44.8139535 20.2923077,45 20.6615385,45 C21.0307692,45 21.4,44.8139535 21.5846154,44.627907 C22.1384615,44.0697674 22.1384615,43.1395349 21.5846154,42.5813953 L18.4461538,39.4186047 C17.8923077,38.8604651 16.9692308,38.8604651 16.4153846,39.4186047 C15.8615385,39.9767442 15.8615385,40.9069767 16.4153846,41.4651163 L19.7384615,44.627907 Z" id="Shape"></path>
                <path d="M7.52307692,45 C7.89230769,45 8.26153846,44.8139535 8.44615385,44.627907 L11.5846154,41.4651163 C12.1384615,40.9069767 12.1384615,39.9767442 11.5846154,39.4186047 C11.0307692,38.8604651 10.1076923,38.8604651 9.55384615,39.4186047 L6.41538462,42.5813953 C5.86153846,43.1395349 5.86153846,44.0697674 6.41538462,44.627907 C6.96923077,44.8139535 7.33846154,45 7.52307692,45 Z" id="Shape"></path>
                <path d="M17.5230769,35 C17.8923077,35 18.2615385,34.8139535 18.4461538,34.627907 L21.5846154,31.4651163 C22.1384615,30.9069767 22.1384615,29.9767442 21.5846154,29.4186047 C21.0307692,28.8604651 20.1076923,28.8604651 19.5538462,29.4186047 L16.4153846,32.5813953 C15.8615385,33.1395349 15.8615385,34.0697674 16.4153846,34.627907 C16.9692308,34.8139535 17.3384615,35 17.5230769,35 Z" id="Shape"></path>
                <path d="M155.738462,47.627907 C155.923077,47.8139535 156.292308,48 156.661538,48 C157.030769,48 157.4,47.8139535 157.584615,47.627907 C158.138462,47.0697674 158.138462,46.1395349 157.584615,45.5813953 L154.446154,42.4186047 C153.892308,41.8604651 152.969231,41.8604651 152.415385,42.4186047 C151.861538,42.9767442 151.861538,43.9069767 152.415385,44.4651163 L155.738462,47.627907 Z" id="Shape"></path>
                <path d="M166.738462,58.627907 C166.923077,58.8139535 167.292308,59 167.661538,59 C168.030769,59 168.4,58.8139535 168.584615,58.627907 C169.138462,58.0697674 169.138462,57.1395349 168.584615,56.5813953 L165.446154,53.4186047 C164.892308,52.8604651 163.969231,52.8604651 163.415385,53.4186047 C162.861538,53.9767442 162.861538,54.9069767 163.415385,55.4651163 L166.738462,58.627907 Z" id="Shape"></path>
                <path d="M153.523077,59 C153.892308,59 154.261538,58.8139535 154.446154,58.627907 L157.584615,55.4651163 C158.138462,54.9069767 158.138462,53.9767442 157.584615,53.4186047 C157.030769,52.8604651 156.107692,52.8604651 155.553846,53.4186047 L152.415385,56.5813953 C151.861538,57.1395349 151.861538,58.0697674 152.415385,58.627907 C152.969231,59 153.338462,59 153.523077,59 Z" id="Shape"></path>
                <path d="M164.523077,48 C164.892308,48 165.261538,47.8139535 165.446154,47.627907 L168.584615,44.4651163 C169.138462,43.9069767 169.138462,42.9767442 168.584615,42.4186047 C168.030769,41.8604651 167.107692,41.8604651 166.553846,42.4186047 L163.415385,45.5813953 C162.861538,46.1395349 162.861538,47.0697674 163.415385,47.627907 C163.969231,48 164.338462,48 164.523077,48 Z" id="Shape"></path>
                <path d="M212.603851,167.581395 L209.45458,164.418605 C208.898826,163.860465 207.972569,163.860465 207.416815,164.418605 C206.861062,164.976744 206.861062,165.906977 207.416815,166.465116 L210.566087,169.627907 C210.751339,169.813953 211.121841,170 211.492344,170 C211.862846,170 212.233349,169.813953 212.4186,169.627907 C213.159605,169.069767 213.159605,168.139535 212.603851,167.581395 Z" id="Shape"></path>
                <path d="M220.52381,174.418605 C219.952381,173.860465 219,173.860465 218.428571,174.418605 C217.857143,174.976744 217.857143,175.906977 218.428571,176.465116 L221.666667,179.627907 C221.857143,179.813953 222.238095,180 222.619048,180 C223,180 223.380952,179.813953 223.571429,179.627907 C224.142857,179.069767 224.142857,178.139535 223.571429,177.581395 L220.52381,174.418605 Z" id="Shape"></path>
                <path d="M210.666667,174.418605 L207.428571,177.581395 C206.857143,178.139535 206.857143,179.069767 207.428571,179.627907 C207.619048,179.813953 208,180 208.380952,180 C208.761905,180 209.142857,179.813953 209.333333,179.627907 L212.571429,176.465116 C213.142857,175.906977 213.142857,174.976744 212.571429,174.418605 C212.190476,173.860465 211.238095,173.860465 210.666667,174.418605 Z" id="Shape"></path>
                <path d="M218.453903,169.627907 C218.643513,169.813953 219.022734,170 219.401954,170 C219.781174,170 220.160395,169.813953 220.350005,169.627907 L223.573377,166.465116 C224.142208,165.906977 224.142208,164.976744 223.573377,164.418605 C223.004547,163.860465 222.056496,163.860465 221.487666,164.418605 L218.264293,167.581395 C217.885073,168.139535 217.885073,169.069767 218.453903,169.627907 Z" id="Shape"></path>
                <path d="M44.7384615,175.627907 C44.9230769,175.813953 45.2923077,176 45.6615385,176 C46.0307692,176 46.4,175.813953 46.5846154,175.627907 C47.1384615,175.069767 47.1384615,174.139535 46.5846154,173.581395 L43.4461538,170.418605 C42.8923077,169.860465 41.9692308,169.860465 41.4153846,170.418605 C40.8615385,170.976744 40.8615385,171.906977 41.4153846,172.465116 L44.7384615,175.627907 Z" id="Shape"></path>
                <path d="M52.4539033,183.465116 L55.6772758,186.627907 C55.8668859,186.813953 56.2461062,187 56.6253265,187 C57.0045468,187 57.383767,186.813953 57.5733772,186.627907 C58.1422076,186.069767 58.1422076,185.139535 57.5733772,184.581395 L54.3500048,181.418605 C53.7811743,180.860465 52.8331236,180.860465 52.2642932,181.418605 C51.8850729,182.162791 51.8850729,182.906977 52.4539033,183.465116 Z" id="Shape"></path>
                <path d="M41.4539033,186.627907 C41.6435135,186.813953 42.0227338,187 42.4019541,187 C42.7811743,187 43.1603946,186.813953 43.3500048,186.627907 L46.5733772,183.465116 C47.1422076,182.906977 47.1422076,181.976744 46.5733772,181.418605 C46.0045468,180.860465 45.056496,180.860465 44.4876656,181.418605 L41.2642932,184.581395 C40.8850729,185.139535 40.8850729,186.069767 41.4539033,186.627907 Z" id="Shape"></path>
                <path d="M53.3809524,176 C53.7619048,176 54.1428571,175.813953 54.3333333,175.627907 L57.5714286,172.465116 C58.1428571,171.906977 58.1428571,170.976744 57.5714286,170.418605 C57,169.860465 56.047619,169.860465 55.4761905,170.418605 L52.4285714,173.581395 C51.8571429,174.139535 51.8571429,175.069767 52.4285714,175.627907 C52.6190476,175.813953 53,176 53.3809524,176 Z" id="Shape"></path>
                <path d="M197.5,76 C201.028571,76 204,73.0285714 204,69.5 C204,65.9714286 201.028571,63 197.5,63 C193.971429,63 191,65.9714286 191,69.5 C191,73.2142857 193.971429,76 197.5,76 Z M197.5,65.9714286 C199.542857,65.9714286 201.214286,67.6428571 201.214286,69.6857143 C201.214286,71.7285714 199.542857,73.4 197.5,73.4 C195.457143,73.4 193.785714,71.7285714 193.785714,69.6857143 C193.785714,67.6428571 195.457143,65.9714286 197.5,65.9714286 Z" id="Shape"></path>
                <path d="M10.5,118 C14.0285714,118 17,115.028571 17,111.5 C17,107.971429 14.0285714,105 10.5,105 C6.97142857,105 4,107.971429 4,111.5 C4,115.028571 6.78571429,118 10.5,118 Z M10.5,107.785714 C12.5428571,107.785714 14.2142857,109.457143 14.2142857,111.5 C14.2142857,113.542857 12.5428571,115.214286 10.5,115.214286 C8.45714286,115.214286 6.78571429,113.542857 6.78571429,111.5 C6.78571429,109.457143 8.45714286,107.785714 10.5,107.785714 Z" id="Shape"></path>
                <path d="M158,178.5 C158,182.028571 160.971429,185 164.5,185 C168.028571,185 171,182.028571 171,178.5 C171,174.971429 168.028571,172 164.5,172 C160.785714,172 158,174.785714 158,178.5 Z M168.028571,178.5 C168.028571,180.542857 166.357143,182.214286 164.314286,182.214286 C162.271429,182.214286 160.6,180.542857 160.6,178.5 C160.6,176.457143 162.271429,174.785714 164.314286,174.785714 C166.357143,174.785714 168.028571,176.457143 168.028571,178.5 Z" id="Shape"></path>
                <path d="M175.481481,17 L197.518519,17 C198.259259,17 199,16.4375 199,15.5 C199,14.5625 198.444444,14 197.518519,14 L175.481481,14 C174.740741,14 174,14.5625 174,15.5 C174,16.4375 174.740741,17 175.481481,17 Z" id="Shape"></path>
                <path d="M213,22.5 C213,21.75 212.424242,21 211.464646,21 L195.535354,21 C194.767677,21 194,21.5625 194,22.5 C194,23.4375 194.575758,24 195.535354,24 L211.464646,24 C212.424242,24 213,23.25 213,22.5 Z" id="Shape"></path>
                <path d="M190,22.5 C190,21.75 189.44186,21 188.511628,21 L183.488372,21 C182.744186,21 182,21.5625 182,22.5 C182,23.4375 182.55814,24 183.488372,24 L188.511628,24 C189.255814,24 190,23.25 190,22.5 Z" id="Shape"></path>
                <path d="M189.567727,139.230956 C189.744692,139.615478 190.275589,140 190.62952,140 C190.806485,140 191.160416,140 191.337382,139.807739 C192.045244,139.423217 192.22221,138.461913 191.691313,137.88513 C190.452554,135.577999 189.03683,133.463129 187.44414,131.54052 C186.913243,130.963737 186.205381,130.771476 185.497519,131.348259 C184.966622,131.925042 184.789657,132.694086 185.320553,133.463129 C186.913243,135.193477 188.328968,137.116086 189.567727,139.230956 Z" id="Shape"></path>
                <path d="M159.707492,113.4 C160.841191,114.138462 162.163841,114.692308 163.297541,115.246154 C167.83234,117.276923 171.989239,119.861538 175.579289,122.630769 C175.768239,122.815385 176.146139,123 176.524038,123 C176.901938,123 177.279838,122.815385 177.657738,122.446154 C178.224588,121.892308 178.035638,120.969231 177.468788,120.415385 C173.500839,117.461538 169.34394,114.876923 164.620191,112.846154 C163.486491,112.292308 162.352791,111.738462 161.219091,111.184615 C160.463291,110.815385 159.707492,111 159.329592,111.738462 C158.762742,112.107692 158.951692,113.030769 159.707492,113.4 Z" id="Shape"></path>
                <path d="M148.670072,105.607085 C148.86027,105.803542 149.240667,106 149.621063,106 C150.001459,106 150.381856,105.803542 150.572054,105.607085 C151.142649,105.017711 151.142649,104.035423 150.572054,103.44605 C148.86027,101.677931 147.148487,99.7133536 145.626901,97.5523189 C145.056307,96.9629458 144.295514,96.7664881 143.534721,97.3558612 C142.964126,97.9452343 142.773928,98.7310651 143.344523,99.5168959 C145.056307,101.677931 146.76809,103.838965 148.670072,105.607085 Z" id="Shape"></path>
                <path d="M74.5662651,97.3558612 C73.9879518,96.7664881 73.0240964,96.9629458 72.4457831,97.5523189 C70.9036145,99.7133536 69.1686747,101.677931 67.4337349,103.44605 C66.8554217,104.035423 66.8554217,105.017711 67.4337349,105.607085 C67.626506,105.803542 68.0120482,106 68.3975904,106 C68.7831325,106 69.1686747,105.803542 69.3614458,105.607085 C71.0963855,103.838965 72.8313253,101.677931 74.5662651,99.5168959 C75.1445783,98.7310651 75.1445783,97.7487766 74.5662651,97.3558612 Z" id="Shape"></path>
                <path d="M56.7383508,111.191976 C55.6075261,111.745477 54.4767015,112.483479 53.3458769,112.852479 C48.6341076,115.066484 44.4877507,117.649489 40.5298645,120.416995 C39.9644522,120.970496 39.7759814,121.708497 40.3413937,122.446499 C40.5298645,122.8155 41.0952768,123 41.4722184,123 C41.8491599,123 42.0376307,122.8155 42.4145722,122.630999 C46.1839876,119.863494 50.3303446,117.280488 54.6651723,115.250984 C55.7959969,114.697483 57.1152923,114.143982 58.2461169,113.405981 C59,113.03698 59.1884708,112.114478 58.8115292,111.560977 C58.4345877,111.007476 57.4922338,110.822975 56.7383508,111.191976 Z" id="Shape"></path>
                <path d="M29.6307741,130.641161 C27.9663929,132.730871 26.486943,134.82058 25.1924243,136.91029 C24.8225619,137.670185 25.0074931,138.430079 25.5622868,138.810026 C25.7472181,139 26.1170805,139 26.3020118,139 C26.6718743,139 27.226668,138.810026 27.4115992,138.240106 C28.7061179,136.150396 30.1855678,134.060686 31.6650177,132.16095 C32.2198114,131.591029 32.0348802,130.641161 31.4800865,130.07124 C30.9252928,129.881266 30.1855678,130.07124 29.6307741,130.641161 Z" id="Shape"></path>
                <path d="M212.436271,197.02864 C210.172686,195.520286 207.343205,194.954654 204.702356,195.520286 C201.684243,196.274463 199.043394,198.159905 197.722969,200.799523 C196.779809,199.668258 195.648016,198.536993 194.13896,197.97136 C191.875375,197.02864 189.61179,197.02864 187.348205,197.97136 C183.764196,199.479714 181.689243,203.439141 181.877875,207.398568 C180.368819,206.832936 178.859762,206.644391 177.350706,206.644391 C170.182687,206.644391 164.146461,212.48926 163.580564,220.031026 C163.2033,219.842482 162.826036,219.842482 162.448772,219.653938 C159.619291,219.088305 156.978442,219.842482 154.714857,221.350835 C151.696744,223.424821 150.187687,227.00716 150.187687,230.589499 C144.90599,224.74463 136.040282,212.866348 133.210801,197.782816 C136.228914,197.02864 138.492499,194.200477 138.492499,190.806683 L138.492499,156.868735 L206.211412,156.868735 C206.588676,156.868735 206.965941,156.680191 207.343205,156.491647 C207.531837,156.114558 207.720469,155.73747 207.720469,155.360382 C207.720469,154.229117 205.268252,128.9642 181.123347,111.995227 C177.916602,109.732697 174.521225,107.658711 170.748583,105.961814 C151.130848,96.7231504 140.756084,73.3436754 137.360707,63.7279236 C134.531226,47.7016706 128.683632,31.8639618 120.006556,16.9689737 C117.742971,12.8210024 115.102122,8.67303103 112.272641,4.52505967 L109.631792,0.565632458 C109.44316,0.188544153 108.877264,0 108.5,0 C108.122736,0 107.55684,0.188544153 107.368208,0.565632458 L104.727359,4.52505967 C101.897878,8.67303103 99.2570286,12.8210024 96.9934437,16.9689737 C91.7117458,26.0190931 87.5618402,35.6348449 84.5437271,45.0620525 C82.4687743,51.2840095 80.9597178,57.3174224 79.8279253,63.7279236 C79.8279253,63.7279236 79.8279253,63.7279236 79.8279253,63.7279236 C76.4325481,73.3436754 66.2464163,96.7231504 46.4400489,105.961814 C42.6674075,107.658711 39.2720303,109.732697 36.0652851,111.995227 C36.0652851,111.995227 36.0652851,111.995227 36.0652851,111.995227 C11.9203801,128.9642 9.65679526,154.229117 9.46816319,155.360382 C9.46816319,155.73747 9.65679526,156.114558 9.84542733,156.491647 C10.0340594,156.868735 10.4113235,156.868735 10.9772198,156.868735 L78.6961329,156.868735 L78.6961329,190.806683 C78.6961329,194.200477 80.9597178,197.02864 83.9778309,197.782816 C81.1483498,212.866348 72.2826425,224.74463 67.0009446,230.589499 C67.0009446,227.00716 65.491888,223.424821 62.4737749,221.350835 C60.2101901,219.653938 57.380709,219.088305 54.73986,219.653938 C54.3625959,219.653938 53.9853317,219.842482 53.6080676,220.031026 C53.0421714,212.677804 47.1945772,206.644391 39.8379265,206.644391 C38.3288699,206.644391 36.6311813,207.02148 35.3107568,207.398568 C35.6880209,203.439141 33.6130682,199.668258 29.8404268,197.97136 C27.765474,197.02864 25.3132571,197.02864 23.0496722,197.97136 C21.5406157,198.536993 20.4088233,199.479714 19.4656629,200.799523 C17.9566063,198.159905 15.5043894,196.085919 12.4862763,195.520286 C9.84542733,194.954654 7.01594628,195.520286 4.75236144,197.02864 C2.30014453,198.725537 0.602455896,201.176611 0.0365596861,204.004773 C-0.152072384,204.75895 0.413823826,205.513126 1.16835211,205.701671 C1.92288039,205.890215 2.67740867,205.324582 2.86604074,204.570406 C3.24330488,202.307876 4.56372937,200.610979 6.261418,199.291169 C7.95910663,198.159905 9.84542733,197.782816 11.9203801,198.159905 C16.0702856,199.102625 18.7111346,203.439141 17.9566063,207.775656 C17.7679743,208.529833 18.3338705,209.28401 19.0883988,209.472554 C19.0883988,209.472554 19.2770308,209.472554 19.2770308,209.472554 C20.0315591,209.472554 20.5974553,209.095465 20.5974553,208.341289 C20.7860874,207.02148 20.7860874,205.513126 20.5974553,204.193317 C20.5974553,204.193317 20.5974553,204.193317 20.5974553,204.004773 C21.1633515,202.307876 22.483776,201.176611 23.9928326,200.422434 C25.5018892,199.856802 27.0109457,199.856802 28.5200023,200.422434 C31.7267475,201.742243 33.047172,205.513126 31.9153795,208.906921 C31.9153795,208.906921 31.9153795,208.906921 31.9153795,209.095465 C30.594955,210.038186 29.4631626,211.169451 28.5200023,212.677804 C28.1427381,213.243437 28.3313702,214.186158 28.8972664,214.563246 C29.4631626,214.940334 30.406323,214.75179 30.7835871,214.186158 C32.8585399,211.169451 36.0652851,209.28401 39.6492944,209.28401 C45.6855207,209.28401 50.5899545,214.374702 50.5899545,220.785203 C50.5899545,220.973747 50.5899545,220.973747 50.5899545,220.973747 C49.4581621,221.727924 48.5150017,222.670644 47.7604734,223.990453 C47.3832093,224.556086 47.5718414,225.498807 48.1377376,225.875895 C48.7036338,226.252983 49.6467941,226.064439 50.0240583,225.498807 C51.1558507,223.613365 53.0421714,222.4821 54.9284921,222.105012 C56.8148128,221.727924 58.8897656,222.105012 60.5874542,223.424821 C64.1714635,225.875895 64.9259918,230.966587 62.662407,234.73747 C62.2851428,235.303103 62.4737749,236.057279 62.851039,236.622912 C63.0396711,236.811456 63.4169352,237 63.7941994,237 C64.1714635,237 64.5487277,236.811456 64.7373597,236.622912 C65.491888,236.057279 82.4687743,220.596659 86.6186799,197.782816 L91.1458495,197.782816 C91.3344816,203.250597 93.0321703,223.236277 107.55684,236.622912 C107.745472,236.811456 108.122736,237 108.5,237 C108.877264,237 109.254528,236.811456 109.44316,236.622912 C124.156462,223.424821 125.665518,203.439141 125.85415,197.782816 L130.38132,197.782816 C134.531226,220.596659 151.508112,235.868735 152.26264,236.622912 C152.451272,236.811456 152.828536,237 153.205801,237 C153.583065,237 153.960329,236.811456 154.148961,236.622912 C154.714857,236.245823 154.714857,235.303103 154.337593,234.73747 C151.885376,230.966587 152.828536,225.875895 156.412546,223.424821 C158.110234,222.293556 159.996555,221.727924 162.071508,222.105012 C164.146461,222.4821 165.844149,223.613365 166.975942,225.498807 C167.353206,226.064439 168.296366,226.252983 168.862262,225.875895 C169.428159,225.498807 169.616791,224.556086 169.239527,223.990453 C168.484998,222.859189 167.541838,221.727924 166.410046,220.973747 C166.410046,220.973747 166.410046,220.785203 166.410046,220.785203 C166.410046,214.374702 171.314479,209.28401 177.350706,209.28401 C180.934715,209.28401 184.14146,211.169451 186.216413,214.186158 C186.593677,214.75179 187.536837,214.940334 188.102734,214.563246 C188.66863,214.186158 188.857262,213.243437 188.479998,212.677804 C187.536837,211.357995 186.405045,210.038186 185.08462,209.095465 C185.08462,209.095465 185.08462,209.095465 185.08462,208.906921 C183.764196,205.701671 185.273253,201.742243 188.479998,200.422434 C189.989054,199.856802 191.498111,199.856802 193.007167,200.422434 C194.516224,200.988067 195.836648,202.307876 196.402545,204.004773 C196.402545,204.004773 196.402545,204.004773 196.402545,204.193317 C196.213913,205.513126 196.213913,206.832936 196.402545,208.341289 C196.591177,209.095465 197.157073,209.472554 197.722969,209.472554 C197.722969,209.472554 197.911601,209.472554 197.911601,209.472554 C198.66613,209.28401 199.232026,208.529833 199.043394,207.775656 C198.100233,203.439141 200.929714,199.102625 205.07962,198.159905 C206.965941,197.782816 209.040893,198.159905 210.738582,199.291169 C212.624903,200.422434 213.756695,202.307876 214.133959,204.570406 C214.322591,205.324582 215.07712,205.890215 215.831648,205.701671 C216.586176,205.513126 217.152072,204.75895 216.96344,204.004773 C216.586176,201.176611 214.888488,198.725537 212.436271,197.02864 Z M135.663018,190.995227 C135.663018,193.257757 133.776697,195.331742 131.513113,195.331742 L124.345094,195.331742 C122.081509,195.331742 120.38382,193.446301 120.38382,190.995227 L120.38382,155.73747 C120.38382,155.73747 120.38382,153.537788 120.38382,149.138425 C120.38382,145.556086 120.949717,141.973747 121.892877,138.391408 C122.081509,137.825776 122.270141,137.260143 122.458773,136.694511 C123.779198,132.735084 125.665518,128.9642 128.117735,125.193317 C130.947216,129.529833 133.022169,133.866348 134.153962,138.391408 C134.153962,138.391408 134.342594,138.768496 134.342594,138.768496 C135.285754,142.162291 135.663018,145.556086 135.663018,148.949881 L135.663018,190.995227 Z M169.616791,108.789976 C173.2008,110.486874 176.596177,112.372315 179.425658,114.634845 C199.232026,128.398568 203.759195,148.761337 204.513724,154.417661 L139.435659,154.417661 L139.435659,88.6157518 C139.624292,88.4272076 139.624292,88.2386635 139.624292,88.0501193 C139.624292,83.7136038 139.435659,79.1885442 139.058395,74.8520286 C144.340093,86.353222 154.148961,101.625298 169.616791,108.789976 Z M37.3857096,114.446301 C37.3857096,114.446301 37.3857096,114.446301 37.3857096,114.446301 C37.3857096,114.446301 37.3857096,114.446301 37.3857096,114.446301 C40.4038227,112.372315 43.6105679,110.298329 47.1945772,108.601432 C62.662407,101.24821 72.4712746,86.1646778 77.9416046,74.6634845 C77.5643405,77.8687351 77.3757084,80.8854415 77.3757084,84.0906921 C77.3757084,84.2792363 77.3757084,84.2792363 77.3757084,84.4677804 L77.3757084,154.040573 L12.1090122,154.040573 C13.0521725,148.572792 17.5793422,128.398568 37.3857096,114.446301 Z M81.1483498,190.995227 L81.1483498,148.949881 C81.1483498,145.556086 81.525614,141.973747 82.4687743,138.579952 C82.4687743,138.579952 82.4687743,138.391408 82.6574064,138.202864 C82.8460385,137.637232 83.0346705,137.071599 83.2233026,136.505967 C84.5437271,132.546539 86.4300478,128.775656 88.8822647,125.004773 C91.7117458,129.341289 93.7866985,133.677804 95.107123,138.202864 C96.0502834,141.785203 96.6161796,145.367542 96.6161796,148.949881 L96.6161796,190.995227 C96.6161796,193.446301 94.7298589,195.331742 92.6549061,195.331742 C92.6549061,195.331742 92.6549061,195.331742 92.6549061,195.331742 C92.6549061,195.331742 92.6549061,195.331742 92.6549061,195.331742 L85.4868874,195.331742 C83.0346705,195.331742 81.1483498,193.446301 81.1483498,190.995227 Z M108.311368,233.983294 C95.4843872,221.539379 93.9753306,202.873508 93.7866985,197.97136 C96.9934437,197.217184 99.2570286,194.389021 99.2570286,190.995227 L99.2570286,157.057279 L117.554339,157.057279 L117.554339,190.995227 C117.554339,194.389021 119.817924,197.217184 123.024669,197.97136 C122.836037,202.873508 121.326981,221.539379 108.311368,233.983294 Z M100.740741,87.0415225 C102.222222,88.349481 104.074074,89.0968858 106.111111,89.283737 L106.111111,73.2145329 C103.333333,73.0276817 100.925926,71.9065744 98.8888889,70.2249135 C96.4814815,68.1695502 95.1851852,65.366782 95.1851852,62.5640138 C95.1851852,59.7612457 96.4814815,56.9584775 98.8888889,54.9031142 C100.925926,53.2214533 103.333333,52.100346 106.111111,51.9134948 L106.111111,46.4948097 C106.111111,45.5605536 106.851852,45 107.592593,45 C108.518519,45 109.074074,45.7474048 109.074074,46.4948097 L109.074074,51.9134948 C111.851852,52.100346 114.259259,53.2214533 116.296296,54.9031142 C118.703704,56.9584775 120,59.5743945 120,62.5640138 C120,63.4982699 119.259259,64.0588235 118.518519,64.0588235 C117.592593,64.0588235 117.037037,63.3114187 117.037037,62.5640138 C117.037037,60.5086505 115.925926,58.4532872 114.259259,56.9584775 C112.777778,55.8373702 110.925926,54.9031142 108.888889,54.716263 L108.888889,70.7854671 C111.666667,70.9723183 114.074074,72.0934256 116.111111,73.7750865 C118.518519,75.8304498 119.814815,78.633218 119.814815,81.4359862 C119.814815,84.2387543 118.518519,87.0415225 116.111111,89.0968858 C114.074074,90.7785467 111.666667,91.899654 108.888889,92.0865052 L108.888889,97.5051903 C108.888889,98.4394464 108.148148,99 107.407407,99 C106.481481,99 105.925926,98.2525952 105.925926,97.5051903 L105.925926,92.0865052 C103.148148,91.899654 100.740741,90.7785467 98.7037037,89.0968858 C96.2962963,87.0415225 95,84.4256055 95,81.4359862 C95,80.5017301 95.7407407,79.9411765 96.4814815,79.9411765 C97.4074074,79.9411765 97.962963,80.6885813 97.962963,81.4359862 C97.962963,83.4913495 99.0740741,85.5467128 100.740741,87.0415225 Z M114.259259,75.8304498 C112.777778,74.5224913 110.925926,73.7750865 108.888889,73.4013841 L108.888889,89.283737 C110.925926,89.0968858 112.777778,88.349481 114.259259,87.0415225 C116.111111,85.5467128 117.037037,83.4913495 117.037037,81.4359862 C117.037037,79.3806228 115.925926,77.3252595 114.259259,75.8304498 Z M100.740741,68.1695502 C102.222222,69.4775087 104.074074,70.2249135 106.111111,70.5986159 L106.111111,54.716263 C104.074074,54.9031142 102.222222,55.650519 100.740741,56.9584775 C98.8888889,58.4532872 97.962963,60.5086505 97.962963,62.5640138 C97.962963,64.6193772 99.0740741,66.6747405 100.740741,68.1695502 Z" id="Combined-Shape"></path>
                <path d="M212.001975,216.734654 C199.087069,213.186224 194.338942,223.63438 194.149017,223.831515 C193.769167,224.620055 194.149017,225.408595 194.908717,225.802865 C195.098642,225.802865 195.288568,226 195.478493,226 C196.048268,226 196.618043,225.60573 196.807968,225.21146 C196.997893,224.81719 200.60647,216.734654 211.242275,219.69168 C212.001975,219.888815 212.761676,219.494545 212.951601,218.706005 C213.141526,217.917464 212.761676,216.931789 212.001975,216.734654 Z" id="Shape"></path>
                <path d="M174.143812,231.087767 C170.123304,231.435545 167.442966,234.73944 167.251513,234.913329 C166.868608,235.434997 166.868608,236.304443 167.634419,236.826111 C167.825871,237 168.208777,237 168.40023,237 C168.783135,237 169.357493,236.826111 169.548946,236.478332 C169.548946,236.478332 171.654926,234.043883 174.335264,233.696105 C175.866886,233.522216 177.207055,234.043883 178.547225,235.087219 C179.121583,235.608886 180.078847,235.434997 180.653205,234.913329 C181.227563,234.391662 181.03611,233.522216 180.461752,233.000548 C178.547225,231.435545 176.249792,230.739988 174.143812,231.087767 Z" id="Shape"></path>
                <path d="M199.6875,231.036544 C192.9375,230.467725 189.1875,236.724727 189.1875,236.914333 C188.8125,237.672757 189,238.431182 189.75,238.810394 C189.9375,239 190.3125,239 190.5,239 C191.0625,239 191.4375,238.810394 191.625,238.241576 C191.625,238.241576 194.625,233.311817 199.5,233.691029 C200.25,233.691029 201,233.122211 201,232.363786 C201,231.984574 200.4375,231.22615 199.6875,231.036544 Z" id="Shape"></path>
                <g id="Group-2" transform="translate(33.076081, 225.841156) rotate(6.000000) translate(-33.076081, -225.841156) translate(10.076081, 214.341156)">
                    <path d="M16.2609395,9.21145995 C16.4516729,9.80286499 17.0238729,10 17.5960729,10 C17.7868063,10 17.9775396,10 18.168273,9.80286499 C18.9312063,9.40859496 19.1219397,8.62005491 18.9312063,7.83151486 C18.9312063,7.63437985 13.9721394,-2.81377583 1.00227206,0.734654397 C0.239338684,0.931789409 -0.142128003,1.72032946 0.0486053401,2.50886951 C0.239338684,3.29740956 1.00227206,3.69167959 1.76520543,3.49454458 C12.2555393,0.734654397 16.0702062,8.81718992 16.2609395,9.21145995 Z" id="Shape"></path>
                    <path d="M39.0740693,15.029872 C36.7680212,14.8307255 34.6541438,15.6273115 32.5402664,17.4196302 C31.9637544,18.0170697 31.7715837,18.8136558 32.3480957,19.6102418 C32.9246077,20.2076814 33.6932904,20.4068279 34.4619731,19.8093883 C35.8071678,18.6145092 37.3445332,18.0170697 38.689728,18.2162162 C41.5722881,18.6145092 43.4939948,21.4025605 43.4939948,21.4025605 C43.6861655,21.8008535 44.2626775,22 44.6470188,22 C45.0313602,22 45.2235309,22 45.4157015,21.8008535 C45.9922136,21.4025605 46.1843842,20.4068279 45.8000429,19.6102418 C45.8000429,19.2119488 43.1096535,15.428165 39.0740693,15.029872 Z" id="Shape"></path>
                    <path d="M12.3125,15.0356825 C11.5625,15.0356825 11,15.7765492 11,16.517416 C11,17.2582827 11.75,17.8139328 12.5,17.8139328 C17.375,17.2582827 20.375,22.2591333 20.375,22.2591333 C20.5625,22.6295666 21.125,23 21.5,23 C21.6875,23 22.0625,23 22.25,22.8147833 C23,22.4443499 23.1875,21.5182665 22.8125,20.9626164 C22.8125,20.5921831 19.0625,14.4800324 12.3125,15.0356825 Z" id="Shape"></path>
                </g>
            </g>
        </g>
    </g>
</svg>