<?xml version="1.0" encoding="UTF-8"?>
<svg width="90px" height="77px" viewBox="0 0 90 77" version="1.1" xmlns="http://www.w3.org/2000/svg" xmlns:xlink="http://www.w3.org/1999/xlink">
    <!-- Generator: Sketch 48.2 (47327) - http://www.bohemiancoding.com/sketch -->
    <title>Group 3</title>
    <desc>Created with Sketch.</desc>
    <defs></defs>
    <g id="icons" stroke="none" stroke-width="1" fill="none" fill-rule="evenodd" transform="translate(-518.000000, -1791.000000)">
        <g id="Group-3" transform="translate(518.000000, 1791.000000)">
            <circle id="Oval-2" fill="#3BD59A" cx="75" cy="54" r="14"></circle>
            <g id="Group-Copy-4" fill="#000000" fill-rule="nonzero">
                <path d="M87.5390625,28.98 C87.8203125,28.98 88.1015625,28.77 88.1015625,28.42 L88.1015625,20.02 C88.1015625,19.74 87.890625,19.46 87.5390625,19.46 C87.2578125,19.46 86.9765625,19.67 86.9765625,20.02 L86.9765625,28.42 C86.9765625,28.77 87.2578125,28.98 87.5390625,28.98 Z" id="Shape"></path>
                <path d="M86.9765625,35.42 C86.9765625,35.7 87.1875,35.98 87.5390625,35.98 C87.8203125,35.98 88.1015625,35.77 88.1015625,35.42 L88.1015625,32.41 C88.1015625,32.13 87.890625,31.85 87.5390625,31.85 C87.2578125,31.85 86.9765625,32.06 86.9765625,32.41 L86.9765625,35.42 Z" id="Shape"></path>
                <path d="M53.15625,55.3 C52.875,55.3 52.59375,55.51 52.59375,55.86 L52.59375,64.26 C52.59375,64.54 52.8046875,64.82 53.15625,64.82 C53.4375,64.82 53.71875,64.61 53.71875,64.26 L53.71875,55.86 C53.71875,55.58 53.4375,55.3 53.15625,55.3 Z" id="Shape"></path>
                <path d="M53.15625,67.62 C52.875,67.62 52.59375,67.83 52.59375,68.18 L52.59375,71.19 C52.59375,71.47 52.8046875,71.75 53.15625,71.75 C53.4375,71.75 53.71875,71.54 53.71875,71.19 L53.71875,68.18 C53.71875,67.9 53.4375,67.62 53.15625,67.62 Z" id="Shape"></path>
                <path d="M73.125,17.71 C73.125,19.04 74.1796875,20.09 75.515625,20.09 C76.8515625,20.09 77.90625,19.04 77.90625,17.71 C77.90625,16.38 76.8515625,15.33 75.515625,15.33 C74.25,15.33 73.125,16.38 73.125,17.71 Z M76.921875,17.71 C76.921875,18.48 76.2890625,19.04 75.5859375,19.04 C74.8125,19.04 74.25,18.41 74.25,17.71 C74.25,16.94 74.8828125,16.38 75.5859375,16.38 C76.2890625,16.38 76.921875,17.01 76.921875,17.71 Z" id="Shape"></path>
                <path d="M5.203125,71.89 C3.8671875,71.89 2.8125,72.94 2.8125,74.27 C2.8125,75.6 3.8671875,76.65 5.203125,76.65 C6.5390625,76.65 7.59375,75.6 7.59375,74.27 C7.6640625,72.94 6.5390625,71.89 5.203125,71.89 Z M5.203125,75.67 C4.4296875,75.67 3.8671875,75.04 3.8671875,74.34 C3.8671875,73.57 4.5,73.01 5.203125,73.01 C5.9765625,73.01 6.5390625,73.64 6.5390625,74.34 C6.609375,75.04 5.9765625,75.67 5.203125,75.67 Z" id="Shape"></path>
                <path d="M72.84375,3.64 L82.6875,3.64 C82.96875,3.64 83.25,3.43 83.25,3.08 C83.25,2.73 83.0390625,2.52 82.6875,2.52 L72.84375,2.52 C72.5625,2.52 72.28125,2.73 72.28125,3.08 C72.28125,3.43 72.5625,3.64 72.84375,3.64 Z" id="Shape"></path>
                <path d="M85.921875,3.64 L89.0859375,3.64 C89.3671875,3.64 89.6484375,3.43 89.6484375,3.08 C89.6484375,2.73 89.4375,2.52 89.0859375,2.52 L85.921875,2.52 C85.640625,2.52 85.359375,2.73 85.359375,3.08 C85.359375,3.43 85.640625,3.64 85.921875,3.64 Z" id="Shape"></path>
                <path d="M89.0859375,5.95 L82.265625,5.95 C81.984375,5.95 81.703125,6.16 81.703125,6.51 C81.703125,6.79 81.9140625,7.07 82.265625,7.07 L89.15625,7.07 C89.4375,7.07 89.71875,6.86 89.71875,6.51 C89.6484375,6.16 89.4375,5.95 89.0859375,5.95 Z" id="Shape"></path>
                <path d="M79.8046875,6.44 C79.8046875,6.16 79.59375,5.88 79.2421875,5.88 L76.9921875,5.88 C76.7109375,5.88 76.4296875,6.09 76.4296875,6.44 C76.4296875,6.72 76.640625,7 76.9921875,7 L79.2421875,7 C79.59375,7 79.8046875,6.72 79.8046875,6.44 Z" id="Shape"></path>
                <path d="M7.6640625,10.36 C7.6640625,10.64 7.875,10.92 8.2265625,10.92 L18.0703125,10.92 C18.3515625,10.92 18.6328125,10.71 18.6328125,10.36 C18.6328125,10.08 18.421875,9.8 18.0703125,9.8 L8.2265625,9.8 C7.9453125,9.87 7.6640625,10.08 7.6640625,10.36 Z" id="Shape"></path>
                <path d="M1.7578125,10.92 L4.921875,10.92 C5.203125,10.92 5.484375,10.71 5.484375,10.36 C5.484375,10.08 5.2734375,9.8 4.921875,9.8 L1.7578125,9.8 C1.4765625,9.8 1.1953125,10.01 1.1953125,10.36 C1.265625,10.64 1.4765625,10.92 1.7578125,10.92 Z" id="Shape"></path>
                <path d="M1.7578125,7.56 L8.6484375,7.56 C8.9296875,7.56 9.2109375,7.35 9.2109375,7 C9.2109375,6.72 9,6.44 8.6484375,6.44 L1.7578125,6.44 C1.4765625,6.44 1.1953125,6.65 1.1953125,7 C1.265625,7.28 1.4765625,7.56 1.7578125,7.56 Z" id="Shape"></path>
                <path d="M11.6015625,7.56 L13.8515625,7.56 C14.1328125,7.56 14.4140625,7.35 14.4140625,7 C14.4140625,6.72 14.203125,6.44 13.8515625,6.44 L11.6015625,6.44 C11.3203125,6.44 11.0390625,6.65 11.0390625,7 C11.109375,7.28 11.3203125,7.56 11.6015625,7.56 Z" id="Shape"></path>
                <path d="M45.9140625,75.46 L36.0703125,75.46 C35.7890625,75.46 35.5078125,75.67 35.5078125,76.02 C35.5078125,76.3 35.71875,76.58 36.0703125,76.58 L45.9140625,76.58 C46.1953125,76.58 46.4765625,76.37 46.4765625,76.02 C46.4765625,75.67 46.1953125,75.46 45.9140625,75.46 Z" id="Shape"></path>
                <path d="M32.8359375,75.46 L29.671875,75.46 C29.390625,75.46 29.109375,75.67 29.109375,76.02 C29.109375,76.3 29.3203125,76.58 29.671875,76.58 L32.8359375,76.58 C33.1171875,76.58 33.3984375,76.37 33.3984375,76.02 C33.3984375,75.67 33.1171875,75.46 32.8359375,75.46 Z" id="Shape"></path>
                <path d="M29.671875,73.15 L36.5625,73.15 C36.84375,73.15 37.125,72.94 37.125,72.59 C37.125,72.31 36.9140625,72.03 36.5625,72.03 L29.671875,72.03 C29.390625,72.03 29.109375,72.24 29.109375,72.59 C29.109375,72.94 29.3203125,73.15 29.671875,73.15 Z" id="Shape"></path>
                <path d="M41.6953125,73.15 C41.9765625,73.15 42.2578125,72.94 42.2578125,72.59 C42.2578125,72.31 42.046875,72.03 41.6953125,72.03 L39.4453125,72.03 C39.1640625,72.03 38.8828125,72.24 38.8828125,72.59 C38.8828125,72.87 39.09375,73.15 39.4453125,73.15 L41.6953125,73.15 Z" id="Shape"></path>
                <path d="M45.703125,43.89 C45.4921875,43.68 45.140625,43.68 44.9296875,43.89 C44.71875,44.1 44.71875,44.45 44.9296875,44.66 L45.9140625,45.64 C45.984375,45.71 46.125,45.78 46.265625,45.78 C46.40625,45.78 46.546875,45.71 46.6171875,45.64 C46.828125,45.43 46.828125,45.08 46.6171875,44.87 L45.703125,43.89 Z" id="Shape"></path>
                <path d="M49.0078125,47.18 C48.796875,46.97 48.4453125,46.97 48.234375,47.18 C48.0234375,47.39 48.0234375,47.74 48.234375,47.95 L49.21875,48.93 C49.2890625,49 49.4296875,49.07 49.5703125,49.07 C49.7109375,49.07 49.8515625,49 49.921875,48.93 C50.1328125,48.72 50.1328125,48.37 49.921875,48.16 L49.0078125,47.18 Z" id="Shape"></path>
                <path d="M45.984375,47.18 L45,48.23 C44.7890625,48.44 44.7890625,48.79 45,49 C45.0703125,49.07 45.2109375,49.14 45.3515625,49.14 C45.4921875,49.14 45.6328125,49.07 45.703125,49 L46.6875,48.02 C46.8984375,47.81 46.8984375,47.46 46.6875,47.25 C46.546875,46.97 46.1953125,46.97 45.984375,47.18 Z" id="Shape"></path>
                <path d="M49.2890625,43.89 L48.3046875,44.87 C48.09375,45.08 48.09375,45.43 48.3046875,45.64 C48.375,45.71 48.515625,45.78 48.65625,45.78 C48.796875,45.78 48.9375,45.71 49.0078125,45.64 L49.9921875,44.66 C50.203125,44.45 50.203125,44.1 49.9921875,43.89 C49.8515625,43.68 49.5,43.68 49.2890625,43.89 Z" id="Shape"></path>
                <path d="M84.1640625,70.77 C83.953125,70.56 83.6015625,70.56 83.390625,70.77 C83.1796875,70.98 83.1796875,71.33 83.390625,71.54 L84.375,72.52 C84.4453125,72.59 84.5859375,72.66 84.7265625,72.66 C84.8671875,72.66 85.0078125,72.59 85.078125,72.52 C85.2890625,72.31 85.2890625,71.96 85.078125,71.75 L84.1640625,70.77 Z" id="Shape"></path>
                <path d="M87.46875,74.06 C87.2578125,73.85 86.90625,73.85 86.6953125,74.06 C86.484375,74.27 86.484375,74.62 86.6953125,74.83 L87.6796875,75.81 C87.75,75.88 87.890625,75.95 88.03125,75.95 C88.171875,75.95 88.3125,75.88 88.3828125,75.81 C88.59375,75.6 88.59375,75.25 88.3828125,75.04 L87.46875,74.06 Z" id="Shape"></path>
                <path d="M84.4453125,74.06 L83.4609375,75.04 C83.25,75.25 83.25,75.6 83.4609375,75.81 C83.53125,75.88 83.671875,75.95 83.8125,75.95 C83.953125,75.95 84.09375,75.88 84.1640625,75.81 L85.1484375,74.83 C85.359375,74.62 85.359375,74.27 85.1484375,74.06 C84.9375,73.85 84.65625,73.85 84.4453125,74.06 Z" id="Shape"></path>
                <path d="M87.6796875,70.77 L86.6953125,71.75 C86.484375,71.96 86.484375,72.31 86.6953125,72.52 C86.765625,72.59 86.90625,72.66 87.046875,72.66 C87.1875,72.66 87.328125,72.59 87.3984375,72.52 L88.3828125,71.54 C88.59375,71.33 88.59375,70.98 88.3828125,70.77 C88.2421875,70.56 87.890625,70.56 87.6796875,70.77 Z" id="Shape"></path>
                <path d="M54.5625,35.49 C54.5625,35.42 54.4921875,35.35 54.421875,35.28 C52.03125,32.55 49.4296875,26.04 47.7421875,18.69 C46.125,11.62 45.703125,4.97 46.4765625,1.33 C46.4765625,1.26 46.4765625,1.19 46.4765625,1.12 L46.40625,0.7 C46.40625,0.56 46.265625,0.42 46.1953125,0.35 C46.0546875,0.28 45.9140625,0.28 45.7734375,0.28 L42.046875,1.12 C41.34375,1.26 40.640625,1.61 40.078125,2.1 L23.203125,16.45 L7.59375,20.02 C3.234375,21 0.5625,25.34 1.546875,29.68 C2.53125,33.95 6.890625,36.68 11.25,35.7 L15.046875,34.86 L16.734375,42.14 C14.90625,42.84 13.359375,44.24 12.65625,46.13 C12.1640625,47.39 11.0390625,48.37 9.703125,48.65 L8.3671875,48.93 C8.296875,48.86 8.15625,48.79 8.015625,48.72 C7.453125,48.37 6.75,48.3 6.1171875,48.51 C4.359375,49 2.6015625,49.49 0.84375,49.98 C0.5625,50.05 0.421875,50.33 0.4921875,50.61 C0.5625,50.89 0.84375,51.03 1.125,50.96 C2.8828125,50.54 4.7109375,50.05 6.46875,49.49 C6.890625,49.35 7.2421875,49.42 7.59375,49.56 C7.734375,49.63 7.9453125,49.84 8.015625,50.12 L11.3203125,64.33 C11.390625,64.61 11.3203125,64.89 11.1796875,65.03 C10.96875,65.31 10.6171875,65.52 10.265625,65.59 C7.59375,66.01 4.9921875,66.57 2.390625,67.13 C2.109375,67.2 1.8984375,67.48 1.96875,67.76 C2.0390625,67.97 2.25,68.18 2.4609375,68.18 C2.53125,68.18 2.53125,68.18 2.6015625,68.18 C5.1328125,67.55 7.734375,67.06 10.40625,66.64 C11.109375,66.5 11.671875,66.15 12.0234375,65.66 C12.09375,65.66 12.09375,65.66 12.1640625,65.66 C12.1640625,65.66 13.921875,65.31 15.046875,65.66 C15.328125,65.73 15.5390625,65.8 15.8203125,65.87 C16.9453125,66.22 18.28125,66.64 20.6015625,66.64 C20.671875,66.64 20.671875,66.64 20.7421875,66.64 C23.4140625,66.64 34.1015625,63.63 34.5234375,63.56 C35.296875,63.35 35.9296875,62.93 36.3515625,62.23 C36.7734375,61.6 36.9140625,60.76 36.703125,59.99 C36.5625,59.29 36.140625,58.73 35.6484375,58.38 C36.28125,58.17 36.84375,57.75 37.265625,57.19 C37.6875,56.56 37.828125,55.72 37.6171875,54.95 C37.4765625,54.25 37.0546875,53.69 36.4921875,53.27 C37.8984375,52.78 38.8125,51.31 38.4609375,49.84 C38.109375,48.3 36.4921875,47.32 34.9453125,47.67 L34.875,47.67 C35.15625,47.11 35.296875,46.41 35.15625,45.71 C34.8046875,44.17 33.1875,43.19 31.640625,43.54 L27.28125,44.59 C27.5625,43.96 27.703125,43.26 27.5625,42.63 C27.3515625,41.86 26.9296875,41.23 26.2265625,40.81 C25.875,40.6 25.5234375,40.46 25.1015625,40.39 L23.34375,32.97 L27,32.13 L47.8828125,37.59 L48.515625,37.73 C48.8671875,37.8 49.2890625,37.87 49.7109375,37.87 C50.0625,37.87 50.4140625,37.8 50.765625,37.73 L54.5625,36.82 C54.84375,36.75 55.0546875,36.47 54.984375,36.19 L54.5625,35.49 Z M26.296875,42.84 C26.4375,43.33 26.296875,43.82 26.0859375,44.24 C25.8046875,44.66 25.3828125,44.94 24.890625,45.08 L21.3046875,45.92 C21.0234375,45.99 20.8125,46.27 20.8828125,46.55 C20.953125,46.76 21.1640625,46.97 21.375,46.97 C21.4453125,46.97 21.4453125,46.97 21.515625,46.97 L25.1015625,46.13 C25.2421875,46.13 25.3125,46.06 25.453125,45.99 C25.5234375,45.99 25.59375,45.99 25.6640625,45.99 L31.640625,44.59 C32.625,44.38 33.6796875,45.01 33.890625,45.99 C34.03125,46.48 33.890625,46.97 33.6796875,47.39 C33.3984375,47.81 32.9765625,48.09 32.484375,48.23 L26.5078125,49.63 C26.2265625,49.7 26.015625,49.98 26.0859375,50.26 C26.15625,50.47 26.3671875,50.68 26.578125,50.68 C26.6484375,50.68 26.6484375,50.68 26.71875,50.68 L28.8984375,50.19 C28.8984375,50.19 28.8984375,50.19 28.96875,50.19 L34.9453125,48.79 C35.4375,48.65 35.9296875,48.79 36.3515625,49 C36.7734375,49.28 37.0546875,49.7 37.1953125,50.19 C37.3359375,50.68 37.1953125,51.17 36.984375,51.59 C36.703125,52.01 36.28125,52.29 35.7890625,52.43 L33.9609375,52.85 L33.890625,52.85 L27.9140625,54.25 C27.6328125,54.32 27.421875,54.6 27.4921875,54.88 C27.5625,55.16 27.84375,55.37 28.125,55.3 L29.953125,54.88 L30.0234375,54.88 L34.171875,53.9 C34.6640625,53.83 35.0859375,53.9 35.5078125,54.11 C35.9296875,54.39 36.2109375,54.81 36.3515625,55.3 C36.4921875,55.79 36.3515625,56.28 36.140625,56.7 C35.859375,57.12 35.4375,57.4 34.9453125,57.54 L33.046875,57.89 L27.4921875,59.22 C27.2109375,59.29 27,59.57 27.0703125,59.85 C27.140625,60.13 27.421875,60.34 27.703125,60.27 L29.1796875,59.92 C29.1796875,59.92 29.1796875,59.92 29.25,59.92 L33.328125,58.94 C34.3125,58.73 35.296875,59.29 35.5078125,60.27 C35.6484375,60.76 35.5078125,61.25 35.296875,61.67 C35.015625,62.09 34.59375,62.37 34.1015625,62.51 C33.9609375,62.51 23.0625,65.59 20.53125,65.59 C18.28125,65.59 17.0859375,65.24 15.9609375,64.89 C15.6796875,64.82 15.46875,64.75 15.1875,64.68 C14.203125,64.4 12.9375,64.54 12.234375,64.61 C12.234375,64.47 12.234375,64.33 12.1640625,64.12 L8.859375,49.91 L8.859375,49.84 L9.84375,49.63 C11.53125,49.21 12.9375,48.02 13.5703125,46.48 C14.2734375,44.66 15.8203125,43.33 17.71875,42.91 L22.5703125,41.79 L23.90625,41.51 L24.046875,41.51 C25.03125,41.23 26.0859375,41.86 26.296875,42.84 Z M23.765625,40.39 L17.71875,41.79 L16.03125,34.58 L22.078125,33.18 L23.765625,40.39 Z M50.2734375,36.75 C49.7109375,36.89 49.078125,36.89 48.515625,36.75 L26.9296875,31.15 C26.859375,31.15 26.859375,31.15 26.7890625,31.15 C26.71875,31.15 26.71875,31.15 26.6484375,31.15 L22.4296875,32.13 L22.359375,32.13 L15.2578125,33.81 L10.96875,34.79 C7.171875,35.63 3.4453125,33.25 2.53125,29.54 C1.6875,25.76 4.078125,21.98 7.8046875,21.14 L23.484375,17.57 C23.5546875,17.57 23.625,17.5 23.6953125,17.43 L40.078125,3.57 L40.640625,3.08 C41.0625,2.73 41.625,2.45 42.1875,2.31 L45.2109375,1.61 C44.5078125,5.46 45,12.04 46.546875,18.97 C48.234375,26.53 50.8359375,32.97 53.3671875,35.91 L53.4375,36.05 L50.2734375,36.75 Z" id="Shape"></path>
                <path d="M50.2734375,3.57 C50.34375,3.57 50.34375,3.57 50.4140625,3.57 L58.2890625,1.75 C58.5,1.68 58.7109375,1.47 58.7109375,1.26 C58.7109375,1.19 58.7109375,1.19 58.7109375,1.12 C58.640625,0.84 58.359375,0.63 58.078125,0.7 L50.203125,2.52 C49.9921875,2.59 49.78125,2.8 49.78125,3.01 C49.78125,3.08 49.78125,3.08 49.78125,3.15 C49.8515625,3.36 50.0625,3.57 50.2734375,3.57 Z" id="Shape"></path>
                <path d="M51.46875,10.36 C51.46875,10.43 51.46875,10.43 51.46875,10.5 C51.5390625,10.71 51.75,10.92 51.9609375,10.92 C52.03125,10.92 52.03125,10.92 52.1015625,10.92 L62.9296875,8.4 C63.140625,8.33 63.3515625,8.12 63.3515625,7.91 C63.3515625,7.84 63.3515625,7.84 63.3515625,7.77 C63.28125,7.49 63,7.28 62.71875,7.35 L51.890625,9.87 C51.6796875,9.94 51.46875,10.15 51.46875,10.36 Z" id="Shape"></path>
                <path d="M53.2265625,17.71 C53.2265625,17.78 53.2265625,17.78 53.2265625,17.85 C53.296875,18.06 53.5078125,18.27 53.71875,18.27 C53.7890625,18.27 53.7890625,18.27 53.859375,18.27 L65.6015625,15.54 C65.8125,15.47 66.0234375,15.26 66.0234375,15.05 C66.0234375,14.98 66.0234375,14.98 66.0234375,14.91 C65.953125,14.63 65.671875,14.42 65.390625,14.49 L53.6484375,17.22 C53.3671875,17.29 53.2265625,17.5 53.2265625,17.71 Z" id="Shape"></path>
                <path d="M66.796875,22.61 C66.796875,22.54 66.796875,22.54 66.796875,22.47 C66.7265625,22.19 66.4453125,21.98 66.1640625,22.05 L55.3359375,24.57 C55.125,24.64 54.9140625,24.85 54.9140625,25.06 C54.9140625,25.13 54.9140625,25.13 54.9140625,25.2 C54.984375,25.41 55.1953125,25.62 55.40625,25.62 C55.4765625,25.62 55.4765625,25.62 55.546875,25.62 L66.375,23.1 C66.65625,23.03 66.796875,22.82 66.796875,22.61 Z" id="Shape"></path>
                <path d="M65.53125,30.66 C65.53125,30.59 65.53125,30.59 65.53125,30.52 C65.4609375,30.24 65.1796875,30.03 64.8984375,30.1 L57.0234375,31.92 C56.8125,31.99 56.6015625,32.2 56.6015625,32.41 C56.6015625,32.48 56.6015625,32.48 56.6015625,32.55 C56.671875,32.76 56.8828125,32.97 57.09375,32.97 C57.1640625,32.97 57.1640625,32.97 57.234375,32.97 L65.109375,31.15 C65.390625,31.08 65.53125,30.87 65.53125,30.66 Z" id="Shape"></path>
                <path d="M39.8671875,8.33 L29.0390625,17.5 C28.828125,17.71 28.7578125,17.99 28.96875,18.27 C29.0390625,18.41 29.25,18.48 29.390625,18.48 C29.53125,18.48 29.6015625,18.41 29.7421875,18.34 L40.5,9.1 C40.7109375,8.89 40.78125,8.61 40.5703125,8.33 C40.4296875,8.12 40.078125,8.12 39.8671875,8.33 Z" id="Shape"></path>
                <path d="M7.6640625,63.42 C7.734375,63.42 7.734375,63.42 7.8046875,63.42 C8.0859375,63.35 8.296875,63.07 8.2265625,62.79 L7.6640625,60.27 C7.59375,59.99 7.3125,59.78 7.03125,59.85 C6.75,59.92 6.5390625,60.2 6.609375,60.48 L7.171875,63 C7.2421875,63.21 7.453125,63.42 7.6640625,63.42 Z" id="Shape"></path>
                <path d="M79.171875,38.5 C75.4453125,37.17 71.3671875,37.38 67.78125,39.06 C64.1953125,40.74 61.453125,43.75 60.1171875,47.46 C57.65625,54.25 60.3984375,61.81 66.7265625,65.38 C66.796875,65.8 66.375,67.34 65.7421875,68.74 C65.671875,68.88 65.671875,69.02 65.7421875,69.16 C65.8125,69.3 65.8828125,69.37 66.0234375,69.44 C66.09375,69.44 66.1640625,69.51 66.3046875,69.51 C66.796875,69.51 67.5703125,69.09 69.1171875,68.18 C69.8203125,67.76 70.9453125,67.13 71.15625,67.13 C78.3984375,68.6 85.7109375,64.54 88.171875,57.61 C89.5078125,53.9 89.296875,49.84 87.609375,46.27 C85.921875,42.56 82.8984375,39.83 79.171875,38.5 Z M87.1875,57.19 C84.8671875,63.63 78.046875,67.41 71.3671875,66.08 C70.875,66.01 70.2421875,66.36 68.625,67.27 C68.203125,67.48 67.640625,67.83 67.1484375,68.11 C68.2734375,65.1 67.5703125,64.68 67.359375,64.54 C61.453125,61.25 58.8515625,54.18 61.171875,47.88 C63.2109375,42.28 68.5546875,38.71 74.25,38.71 C75.796875,38.71 77.4140625,38.99 78.9609375,39.55 C85.9921875,42.07 89.71875,49.98 87.1875,57.19 Z" id="Shape"></path>
                <path d="M74.109375,42.77 C68.6953125,42.77 64.265625,47.18 64.265625,52.57 C64.265625,57.96 68.6953125,62.37 74.109375,62.37 C79.5234375,62.37 83.953125,57.96 83.953125,52.57 C83.953125,47.18 79.5234375,42.77 74.109375,42.77 Z M74.109375,61.32 C69.2578125,61.32 65.3203125,57.4 65.3203125,52.57 C65.3203125,47.74 69.2578125,43.82 74.109375,43.82 C78.9609375,43.82 82.8984375,47.74 82.8984375,52.57 C82.8984375,57.4 78.9609375,61.32 74.109375,61.32 Z" id="Shape"></path>
                <path d="M79.5234375,52.5 L68.6953125,52.5 C68.4140625,52.5 68.1328125,52.71 68.1328125,53.06 C68.1328125,56.35 70.8046875,59.01 74.109375,59.01 C77.4140625,59.01 80.0859375,56.35 80.0859375,53.06 C80.015625,52.71 79.8046875,52.5 79.5234375,52.5 Z M74.109375,57.89 C71.578125,57.89 69.5390625,56 69.2578125,53.55 L78.9609375,53.55 C78.6796875,55.93 76.640625,57.89 74.109375,57.89 Z" id="Shape"></path>
                <path d="M76.0078125,49.28 C77.203125,48.09 78.3984375,49.14 78.5390625,49.28 C78.609375,49.35 78.75,49.42 78.890625,49.42 C79.03125,49.42 79.171875,49.35 79.2421875,49.28 C79.453125,49.07 79.453125,48.72 79.2421875,48.51 C78.5390625,47.88 76.8515625,46.97 75.234375,48.51 C75.0234375,48.72 75.0234375,49.07 75.234375,49.28 C75.4453125,49.49 75.796875,49.49 76.0078125,49.28 Z" id="Shape"></path>
                <path d="M69.6796875,49.28 C70.875,48.09 72.0703125,49.14 72.2109375,49.28 C72.28125,49.35 72.421875,49.42 72.5625,49.42 C72.703125,49.42 72.84375,49.35 72.9140625,49.28 C73.125,49.07 73.125,48.72 72.9140625,48.51 C72.2109375,47.88 70.5234375,46.97 68.90625,48.51 C68.6953125,48.72 68.6953125,49.07 68.90625,49.28 C69.1171875,49.49 69.46875,49.49 69.6796875,49.28 Z" id="Shape"></path>
            </g>
        </g>
    </g>
</svg>