
<svg width="451px" height="153px" viewBox="0 0 451 153" version="1.1" xmlns="http://www.w3.org/2000/svg" xmlns:xlink="http://www.w3.org/1999/xlink">
    <!-- Generator: Sketch 51.3 (57544) - http://www.bohemiancoding.com/sketch -->
    <desc>Created with Sketch.</desc>
    <defs></defs>
    <g id="primary-brands" stroke="none" stroke-width="1" fill="none" fill-rule="evenodd">
        <path d="M73.6,82 C71.733324,79.599988 69.200016,77.666674 66,76.2 C62.799984,74.733326 59.53335,74 56.2,74 C52.733316,74 49.600014,74.699993 46.8,76.1 C43.999986,77.500007 41.60001,79.366655 39.6,81.7 C37.59999,84.033345 36.033339,86.733318 34.9,89.8 C33.766661,92.866682 33.2,96.133316 33.2,99.6 C33.2,103.066684 33.733328,106.333318 34.8,109.4 C35.866672,112.466682 37.433323,115.166655 39.5,117.5 C41.566677,119.833345 44.033319,121.66666 46.9,123 C49.766681,124.33334 52.999982,125 56.6,125 C59.93335,125 63.233317,124.366673 66.5,123.1 C69.766683,121.833327 72.39999,120.000012 74.4,117.6 L92.6,139.8 C88.466646,143.80002 83.133366,146.933322 76.6,149.2 C70.066634,151.466678 63.13337,152.6 55.8,152.6 C47.933294,152.6 40.600034,151.400012 33.8,149 C26.999966,146.599988 21.100025,143.100023 16.1,138.5 C11.099975,133.899977 7.166681,128.333366 4.3,121.8 C1.433319,115.266634 0,107.866708 0,99.6 C0,91.466626 1.433319,84.133366 4.3,77.6 C7.166681,71.066634 11.099975,65.500023 16.1,60.9 C21.100025,56.299977 26.999966,52.766679 33.8,50.3 C40.600034,47.833321 47.866628,46.6 55.6,46.6 C59.200018,46.6 62.766649,46.93333 66.3,47.6 C69.833351,48.26667 73.233317,49.166661 76.5,50.3 C79.766683,51.433339 82.766653,52.833325 85.5,54.5 C88.233347,56.166675 90.59999,57.99999 92.6,60 L73.6,82 Z M141.2,18 C141.2,20.533346 140.700005,22.899989 139.7,25.1 C138.699995,27.300011 137.366675,29.199992 135.7,30.8 C134.033325,32.400008 132.033345,33.666662 129.7,34.6 C127.366655,35.533338 124.933346,36 122.4,36 C117.06664,36 112.600018,34.233351 109,30.7 C105.399982,27.166649 103.6,22.933358 103.6,18 C103.6,15.599988 104.066662,13.300011 105,11.1 C105.933338,8.899989 107.266658,7.000008 109,5.4 C110.733342,3.799992 112.733322,2.500005 115,1.5 C117.266678,0.499995 119.73332,0 122.4,0 C124.933346,0 127.366655,0.466662 129.7,1.4 C132.033345,2.333338 134.033325,3.599992 135.7,5.2 C137.366675,6.800008 138.699995,8.699989 139.7,10.9 C140.700005,13.100011 141.2,15.466654 141.2,18 Z M106,149.4 L106,49.8 L138.8,49.8 L138.8,149.4 L106,149.4 Z M229.4,76.6 C227.933326,76.199998 226.500007,75.933334 225.1,75.8 C223.699993,75.666666 222.33334,75.6 221,75.6 C216.599978,75.6 212.900015,76.399992 209.9,78 C206.899985,79.600008 204.500009,81.533322 202.7,83.8 C200.899991,86.066678 199.600004,88.53332 198.8,91.2 C197.999996,93.86668 197.6,96.19999 197.6,98.2 L197.6,149.4 L164.8,149.4 L164.8,49.8 L196.4,49.8 L196.4,64.2 L196.8,64.2 C199.333346,59.133308 202.93331,55.000016 207.6,51.8 C212.26669,48.599984 217.666636,47 223.8,47 C225.13334,47 226.433327,47.066666 227.7,47.2 C228.966673,47.333334 229.999996,47.533332 230.8,47.8 L229.4,76.6 Z M312.6,82 C310.733324,79.599988 308.200016,77.666674 305,76.2 C301.799984,74.733326 298.53335,74 295.2,74 C291.733316,74 288.600014,74.699993 285.8,76.1 C282.999986,77.500007 280.60001,79.366655 278.6,81.7 C276.59999,84.033345 275.033339,86.733318 273.9,89.8 C272.766661,92.866682 272.2,96.133316 272.2,99.6 C272.2,103.066684 272.733328,106.333318 273.8,109.4 C274.866672,112.466682 276.433323,115.166655 278.5,117.5 C280.566677,119.833345 283.033319,121.66666 285.9,123 C288.766681,124.33334 291.999982,125 295.6,125 C298.93335,125 302.233317,124.366673 305.5,123.1 C308.766683,121.833327 311.39999,120.000012 313.4,117.6 L331.6,139.8 C327.466646,143.80002 322.133366,146.933322 315.6,149.2 C309.066634,151.466678 302.13337,152.6 294.8,152.6 C286.933294,152.6 279.600034,151.400012 272.8,149 C265.999966,146.599988 260.100025,143.100023 255.1,138.5 C250.099975,133.899977 246.166681,128.333366 243.3,121.8 C240.433319,115.266634 239,107.866708 239,99.6 C239,91.466626 240.433319,84.133366 243.3,77.6 C246.166681,71.066634 250.099975,65.500023 255.1,60.9 C260.100025,56.299977 265.999966,52.766679 272.8,50.3 C279.600034,47.833321 286.866628,46.6 294.6,46.6 C298.200018,46.6 301.766649,46.93333 305.3,47.6 C308.833351,48.26667 312.233317,49.166661 315.5,50.3 C318.766683,51.433339 321.766653,52.833325 324.5,54.5 C327.233347,56.166675 329.59999,57.99999 331.6,60 L312.6,82 Z M450.2,99.2 C450.2,107.333374 448.733348,114.699967 445.8,121.3 C442.866652,127.900033 438.866692,133.499977 433.8,138.1 C428.733308,142.700023 422.8667,146.266654 416.2,148.8 C409.5333,151.333346 402.400038,152.6 394.8,152.6 C387.333296,152.6 380.233367,151.333346 373.5,148.8 C366.766633,146.266654 360.900025,142.700023 355.9,138.1 C350.899975,133.499977 346.933348,127.900033 344,121.3 C341.066652,114.699967 339.6,107.333374 339.6,99.2 C339.6,91.066626 341.066652,83.733366 344,77.2 C346.933348,70.666634 350.899975,65.133356 355.9,60.6 C360.900025,56.066644 366.766633,52.600012 373.5,50.2 C380.233367,47.799988 387.333296,46.6 394.8,46.6 C402.400038,46.6 409.5333,47.799988 416.2,50.2 C422.8667,52.600012 428.733308,56.066644 433.8,60.6 C438.866692,65.133356 442.866652,70.666634 445.8,77.2 C448.733348,83.733366 450.2,91.066626 450.2,99.2 Z M418.6,99.2 C418.6,95.999984 418.066672,92.866682 417,89.8 C415.933328,86.733318 414.40001,84.033345 412.4,81.7 C410.39999,79.366655 407.933348,77.466674 405,76 C402.066652,74.533326 398.666686,73.8 394.8,73.8 C390.933314,73.8 387.533348,74.533326 384.6,76 C381.666652,77.466674 379.233343,79.366655 377.3,81.7 C375.366657,84.033345 373.900005,86.733318 372.9,89.8 C371.899995,92.866682 371.4,95.999984 371.4,99.2 C371.4,102.400016 371.899995,105.533318 372.9,108.6 C373.900005,111.666682 375.39999,114.433321 377.4,116.9 C379.40001,119.366679 381.866652,121.333326 384.8,122.8 C387.733348,124.266674 391.133314,125 395,125 C398.866686,125 402.266652,124.266674 405.2,122.8 C408.133348,121.333326 410.59999,119.366679 412.6,116.9 C414.60001,114.433321 416.099995,111.666682 417.1,108.6 C418.100005,105.533318 418.6,102.400016 418.6,99.2 Z" id="mapitout-copy-2" fill="#0877d2"></path>
    </g>
</svg>