<?xml version="1.0" encoding="UTF-8"?>
<svg width="75px" height="85px" viewBox="0 0 75 85" version="1.1" xmlns="http://www.w3.org/2000/svg" xmlns:xlink="http://www.w3.org/1999/xlink">
    <!-- Generator: Sketch 63.1 (92452) - https://sketch.com -->
    <title>Combined Shape</title>
    <desc>Created with Sketch.</desc>
    <g id="Page-1" stroke="none" stroke-width="1" fill="none" fill-rule="evenodd">
        <g id="Artboard-Copy-4" transform="translate(-36.000000, -15.000000)" fill="#3BD59A" fill-rule="nonzero">
            <g id="Group" transform="translate(22.188932, 15.000000)">
                <path d="M51.3110677,-9.9475983e-14 C72.0122607,0.0226905134 88.7881865,16.6588098 88.8110677,37.187484 C88.8110677,67.7542677 53.918657,84.0702763 52.4333891,84.7555885 C51.7212579,85.0814705 50.9008775,85.0814705 50.1887463,84.7555885 C48.7034784,84.0702763 13.8110677,67.7542677 13.8110677,37.187484 C13.8339489,16.6588098 30.6098747,0.0226905134 51.3110677,-9.9475983e-14 Z M51.3110677,18.593742 C46.8730653,18.593742 43.2753534,22.1614714 43.2753534,26.5624886 C43.2753534,30.9635058 46.8730653,34.5312351 51.3110677,34.5312351 C55.7490702,34.5312351 59.346782,30.9635058 59.346782,26.5624886 C59.3423525,22.1632921 55.7472341,18.5981346 51.3110677,18.593742 Z" id="Combined-Shape"></path>
            </g>
        </g>
    </g>
</svg>